<svg width="44" height="32" viewBox="0 0 44 32" fill="none" xmlns="http://www.w3.org/2000/svg">
<path d="M20.3862 13.3069C20.3994 13.3026 20.4139 13.2967 20.427 13.2924C20.4562 13.2822 20.4853 13.2705 20.5144 13.2603C20.6848 13.1962 20.8553 13.1351 21.0286 13.0841C21.333 12.9938 21.6418 12.9253 21.9549 12.8671C22.2666 12.8088 22.5827 12.7666 22.8973 12.7374C23.2017 12.7097 23.5105 12.6966 23.8178 12.6937C24.1354 12.6937 24.4544 12.7025 24.769 12.7287C25.085 12.7534 25.4011 12.7942 25.7128 12.851C26.0245 12.9078 26.3347 12.9807 26.6392 13.0681C26.7295 13.0943 26.8183 13.1219 26.9072 13.1525C26.9101 13.1525 26.913 13.154 26.9174 13.1554C27.0776 13.2093 27.2392 13.2691 27.4024 13.3259C27.4388 13.339 27.4738 13.3506 27.5116 13.3637C27.5218 13.3666 27.5306 13.3696 27.5408 13.3739C27.5699 13.3069 27.5976 13.253 27.6179 13.1962C27.6646 13.0724 27.7068 12.9472 27.7621 12.7971C27.6413 12.7272 27.5218 12.6704 27.4038 12.6238C27.2684 12.5685 27.1344 12.5248 26.9975 12.4869C26.0376 12.216 25.0574 12.0718 24.0582 12.0456C22.9337 12.0164 21.8326 12.1781 20.7504 12.4825C20.6295 12.516 20.5071 12.5524 20.3892 12.5918C20.2187 12.65 20.0512 12.7141 19.8925 12.7971C19.9682 13.1569 20.0119 13.2632 20.1314 13.4001C20.2187 13.3681 20.3032 13.3375 20.3892 13.304" fill="#60041E"/>
<path d="M43.0441 23.3978C42.9975 23.258 42.9203 23.1327 42.7951 23.0555C42.4135 22.8167 42.0333 22.5705 41.6371 22.3549C41.4536 22.253 41.2438 22.2821 41.0574 22.4132C41.0793 22.6229 41.2089 22.8021 41.1914 23.0264C41.1375 23.0322 40.5899 23.1618 40.5141 23.1808C39.0692 23.5333 37.6375 23.928 36.2203 24.3795C35.8037 24.5121 35.3886 24.649 34.9749 24.7903C33.6422 25.2447 32.3269 25.7443 31.0262 26.2876C30.8791 26.3488 30.7335 26.4114 30.5878 26.474C30.2266 26.6284 29.8654 26.7843 29.5085 26.9445C29.258 27.0581 29.0075 27.1732 28.7584 27.2897C27.5131 27.8752 26.2925 28.5132 25.1069 29.2225C25.0006 29.2866 24.8971 29.3521 24.7937 29.4191C24.7588 29.441 24.7253 29.4643 24.6903 29.4861C24.6903 29.4847 24.6889 29.4818 24.6874 29.4803C24.6859 29.4759 24.6845 29.4716 24.683 29.4687C25.0981 29.0841 28.4147 26.1492 34.8016 24.1363C34.6705 23.6862 34.5117 23.2492 34.3282 22.8239C33.1251 23.1954 31.8317 23.6702 30.5602 24.263C29.3367 24.8325 28.135 25.5098 27.0557 26.3109C26.6829 26.5862 26.3245 26.8775 25.9852 27.1833C25.9764 27.1426 25.9692 27.1163 25.9677 27.1032C25.9677 27.0989 25.9677 27.096 25.9677 27.0945C26.0114 27.0508 26.0536 27.0071 26.0973 26.962C26.141 26.9183 26.1833 26.8731 26.227 26.8294C26.3129 26.742 26.4003 26.6561 26.492 26.5745C26.5547 26.5192 26.6173 26.4638 26.6814 26.4085C26.76 26.34 26.8387 26.273 26.9188 26.206C27.1708 25.9948 27.4271 25.7924 27.6879 25.5943C27.9253 25.4137 28.1656 25.2374 28.4103 25.0699C28.5807 24.9519 28.754 24.8383 28.9288 24.7262C29.2769 24.5033 29.6323 24.2921 29.995 24.0926C30.1756 23.9935 30.3592 23.8959 30.5427 23.8027C30.7277 23.7081 30.9126 23.6177 31.1005 23.5289C31.4457 23.3658 31.7953 23.2128 32.1521 23.0701C32.3298 22.9987 32.509 22.9288 32.6911 22.8618C32.8731 22.7948 33.0537 22.7307 33.2373 22.6681C33.5329 22.5676 33.8315 22.4729 34.1301 22.3841C35.4337 21.9966 36.7606 21.7155 38.1167 21.5582C38.4094 21.5247 38.7007 21.4766 38.9935 21.4359C38.9935 21.4227 38.992 21.4111 38.9906 21.3994C38.8377 21.3994 38.6847 21.3922 38.5318 21.3994C37.9783 21.43 37.4263 21.4621 36.8728 21.4999C35.9712 21.5626 35.0798 21.698 34.1942 21.8786C34.0966 21.8976 34.0005 21.9194 33.9044 21.9398C33.6524 21.9952 33.4019 22.0549 33.1528 22.119C32.9037 22.1831 32.6576 22.2515 32.4114 22.3258C32.2891 22.3622 32.1667 22.4001 32.0444 22.4394C31.6788 22.5574 31.3176 22.6856 30.9607 22.8239C30.464 23.0162 29.9761 23.2303 29.4983 23.4663C29.0191 23.7022 28.5487 23.9615 28.087 24.2441C27.5757 24.5572 27.0834 24.8922 26.6115 25.2505C26.4542 25.37 26.2983 25.4923 26.1454 25.6161C25.621 26.0429 25.1244 26.5002 24.6554 26.9896C24.4675 27.1848 24.2854 27.3858 24.1062 27.5926C24.0174 27.6961 23.9285 27.8009 23.8412 27.9058C23.4042 28.4374 23.0109 28.9996 22.6439 29.5808C22.5696 29.6973 22.4895 29.7614 22.3846 29.7818C22.303 29.7978 22.2069 29.7876 22.0846 29.7527C22.1064 29.6303 22.1545 29.5182 22.2157 29.4148C22.236 29.3798 22.2579 29.3463 22.2827 29.3128C22.6104 28.8482 22.9323 28.3763 23.2629 27.9145C23.3736 27.7601 23.4858 27.6072 23.5979 27.4557C24.0523 26.8469 24.5461 26.2774 25.0763 25.7443C25.1651 25.6554 25.254 25.568 25.3458 25.4807C25.4375 25.3933 25.5278 25.3073 25.621 25.2228C25.9298 24.9388 26.2503 24.6665 26.5824 24.4057C27.2203 23.9032 27.886 23.4502 28.5793 23.0453C29.2726 22.6404 29.9936 22.2806 30.7364 21.966C30.9155 21.8903 31.0947 21.816 31.2753 21.7446C31.9628 21.4752 32.659 21.2378 33.3596 21.0295C35.2284 20.476 37.1466 20.1424 39.11 20.0245C39.2542 20.0157 39.397 20.0128 39.5412 20.0128C40.0655 20.0172 40.587 20.0259 41.1113 20.0303C41.1565 20.0303 41.2162 20.0521 41.2468 19.9837C41.2351 19.9604 41.2264 19.9298 41.2089 19.9094C39.4028 17.8615 37.5967 15.8151 35.7906 13.7701C35.7644 13.7395 35.7294 13.7177 35.7046 13.6944C35.3973 13.757 34.7288 14.0148 34.5132 14.1575C34.6006 14.2595 34.6851 14.3615 34.7725 14.4605C34.8598 14.5625 34.9487 14.6615 35.0375 14.7605C35.1264 14.8596 35.2167 14.9586 35.3056 15.0577C35.3944 15.1582 35.4818 15.2587 35.5706 15.3577C35.6595 15.4582 35.7469 15.5587 35.8357 15.6578L36.1008 15.9578C36.1897 16.0583 36.2756 16.1588 36.3645 16.2579C36.4533 16.3584 36.5422 16.4574 36.631 16.5565C36.7184 16.657 36.8058 16.7575 36.8946 16.8565C36.9762 16.9483 37.0607 17.04 37.1422 17.1318C37.2311 17.2308 37.317 17.3342 37.4044 17.4347C37.4918 17.5352 37.5821 17.6328 37.671 17.7333C37.7584 17.8338 37.8458 17.9343 37.9346 18.0334C38.0235 18.1339 38.1138 18.2329 38.1997 18.3334C38.2885 18.4339 38.3745 18.5344 38.4619 18.6349C38.5507 18.7354 38.641 18.8345 38.7284 18.935C38.8173 19.034 38.9061 19.1345 38.9935 19.235C39.0824 19.3355 39.1727 19.4331 39.2542 19.538C39.3343 19.6385 39.4509 19.7128 39.5018 19.8686C39.3751 19.8686 39.2746 19.8686 39.1741 19.8686C38.0773 19.8526 36.9791 19.8104 35.8838 19.9269C35.4556 19.972 35.0274 20.0114 34.602 20.0798C34.066 20.1687 33.5359 20.2837 33.0028 20.3871C32.9751 20.393 32.946 20.3944 32.9139 20.3944C32.8702 20.3376 32.828 20.2808 32.7828 20.2255C32.7624 18.7587 32.7755 17.3051 32.7785 15.8544C32.8149 15.7539 32.8367 15.6418 32.8367 15.5281V15.4116C32.9897 15.3111 33.0173 15.1553 33.0406 14.998C32.9751 14.963 32.9066 14.931 32.8367 14.9004C31.6613 14.3891 29.9397 14.4328 28.9026 14.8727C28.7919 14.9179 28.69 14.9688 28.5982 15.0242C28.6885 15.1392 28.6579 15.3126 28.8138 15.4058C28.8487 15.4262 28.8691 15.4888 28.8749 15.5354C28.8851 15.6257 28.8808 15.7189 28.8808 15.8122C28.8822 16.2156 28.8837 16.6205 28.8866 17.0255C28.3885 16.772 27.8714 16.5535 27.3354 16.3729V13.6448C27.2422 13.6099 27.1387 13.5662 27.0324 13.5312C26.9523 13.5036 26.8707 13.4773 26.7892 13.454C25.8643 13.1758 24.9088 13.0724 23.946 13.0404C23.4319 13.0229 22.9221 13.0812 22.4123 13.1423C21.7947 13.2181 21.1932 13.3579 20.6076 13.5691C20.5989 13.572 20.5887 13.5749 20.58 13.5793C20.5173 13.6026 20.4591 13.6346 20.3862 13.6696C20.3761 13.6754 20.3673 13.6798 20.3557 13.6842C20.3498 14.5333 20.3324 15.3767 20.3222 16.2287C19.7366 16.3992 19.17 16.6147 18.6267 16.8725C18.6369 16.7895 18.6617 16.7138 18.7273 16.6453C18.8278 16.539 18.8554 16.3962 18.8816 16.2433C18.6602 16.1166 18.4272 16.0423 18.1912 15.9797C17.814 15.8792 17.4295 15.8165 17.0391 15.7947C16.9124 15.7889 16.793 15.767 16.7041 15.6709C16.6983 15.6636 16.5861 15.5864 16.4157 15.467C16.4521 15.467 16.49 15.467 16.5279 15.467C17.3406 15.467 18.1097 15.5981 18.7433 15.8442C18.752 15.8471 18.7607 15.85 18.7695 15.8544V14.6047C18.7695 14.577 18.7695 14.5523 18.768 14.5246C18.7622 14.2114 18.7287 13.9201 18.6646 13.6478V13.6448C18.6064 13.3929 18.5248 13.1627 18.4141 12.9486C18.283 12.6923 18.114 12.4621 17.9043 12.2626C17.7237 12.0922 17.5271 11.9523 17.3465 11.7819C17.3246 11.7615 17.3028 11.7411 17.2809 11.7193C17.144 11.5882 17.01 11.4469 16.8847 11.2969C16.8731 11.2823 16.8614 11.2692 16.8498 11.2561C16.7697 11.1585 16.7158 11.0202 16.6546 10.9051C16.5992 10.8978 16.5395 10.8847 16.4769 10.8862C16.4798 10.892 16.4827 10.8964 16.4856 10.9022C16.4652 10.9473 16.4434 10.9939 16.4201 11.0391C16.4055 11.0697 16.3895 11.1003 16.3735 11.1294C16.3283 11.2081 16.2803 11.2794 16.2293 11.3464C16.1011 11.5168 15.954 11.6567 15.7996 11.7863C15.6525 11.9086 15.5039 12.0295 15.3583 12.1533C14.9286 12.5233 14.6358 13.004 14.4902 13.5939C14.4494 13.7512 14.4203 13.9172 14.4013 14.0905C12.9171 13.2996 11.347 12.8816 9.67342 12.8612C9.76518 12.8991 10.2764 13.0156 10.4352 13.0549C11.5538 13.3215 12.5836 13.7978 13.558 14.4008C13.8362 14.5727 14.1057 14.7547 14.3664 14.9455C14.6489 15.1524 14.9213 15.3694 15.185 15.5981C15.9089 16.22 16.5658 16.9162 17.1688 17.6678C17.1746 17.6736 17.179 17.6824 17.1848 17.6882C17.581 18.1834 17.948 18.6947 18.2874 19.2219C18.3558 19.3268 18.4228 19.4331 18.4884 19.5409C19.1453 20.6085 19.6988 21.7359 20.1692 22.9099C20.4605 23.6367 20.7111 24.3766 20.931 25.1267C21.0621 25.5768 21.1815 26.0312 21.2922 26.4871C21.4685 27.2154 21.6345 27.9451 21.7554 28.6836C21.7598 28.7156 21.767 28.7477 21.7656 28.7841C21.7656 28.7928 21.7656 28.8016 21.7641 28.8118C21.7598 28.8394 21.751 28.87 21.7321 28.9035C21.6928 28.8321 21.6651 28.7899 21.6461 28.7448C21.5194 28.4651 21.3971 28.1811 21.2689 27.9029C21.2267 27.8097 21.1815 27.7164 21.1364 27.6247C20.7227 26.7813 20.178 26.0225 19.5779 25.3059C18.7884 24.3649 17.8927 23.5493 16.8935 22.8603C16.5599 22.6302 16.2147 22.4146 15.8593 22.2122C15.1689 21.8204 14.4567 21.4941 13.727 21.2203C12.5064 20.7644 11.2392 20.4571 9.93851 20.2444C9.34133 20.1454 8.74123 20.0711 8.13677 20.0405C7.43035 20.0041 6.72248 19.9516 6.01606 19.9487C5.34022 19.9473 4.66293 20.0026 3.9871 20.0318C3.95651 20.0318 3.92593 20.0318 3.89534 20.0303C3.82397 20.0245 3.79192 19.9531 3.83708 19.8963C3.98127 19.7215 4.12693 19.5496 4.27404 19.3778C5.41159 18.029 6.5506 16.6817 7.68816 15.3301C8.03045 14.9222 8.36691 14.5057 8.70337 14.092C8.75143 14.0323 8.82717 13.9798 8.80532 13.8837C8.46595 13.7148 7.96199 13.5443 7.72457 13.5196C5.94177 15.7306 4.10654 17.911 2.33539 20.1483C2.37326 20.1658 2.39074 20.1803 2.40676 20.1803C3.21659 20.157 4.02497 20.1323 4.83626 20.1905C5.5922 20.2444 6.34815 20.31 7.09972 20.409C8.04501 20.5328 8.98011 20.7134 9.90646 20.9479C11.0484 21.2378 12.1685 21.5917 13.2565 22.0403C13.373 22.0869 13.4881 22.1364 13.6032 22.186C13.877 22.3039 14.1479 22.4292 14.4144 22.5603C16.2759 23.4735 17.9305 24.6854 19.3594 26.2162C19.5677 26.4405 19.7701 26.6692 19.9653 26.9037C20.2581 27.2547 20.5392 27.6159 20.8101 27.9859C21.081 28.3544 21.3417 28.7302 21.5981 29.1103C21.652 29.1905 21.7015 29.2749 21.7481 29.3609C21.7947 29.4468 21.8399 29.5342 21.885 29.6201C21.8908 29.6318 21.8967 29.6449 21.901 29.6595C21.9142 29.7002 21.9185 29.7483 21.9316 29.7993C21.7467 29.824 21.5908 29.808 21.4699 29.7177C21.4466 29.7002 21.4248 29.6799 21.4044 29.658C21.3738 29.6245 21.3461 29.5852 21.3213 29.5371C21.2762 29.4468 21.2092 29.3667 21.1538 29.2808C20.8625 28.8336 20.5523 28.4068 20.2246 28.0005C20.0061 27.7281 19.7803 27.4659 19.5473 27.211C19.4308 27.0843 19.3128 26.959 19.1919 26.8352C18.3966 26.0225 17.5183 25.3015 16.5672 24.665C16.4536 24.5893 16.3385 24.5135 16.222 24.4392C15.9846 24.2878 15.7443 24.1406 15.4981 23.9994C15.3452 23.912 15.1908 23.826 15.0349 23.743C14.3402 23.3701 13.6308 23.0482 12.9055 22.773C11.4518 22.2224 9.93997 21.8568 8.38147 21.6427C7.61825 21.5378 6.85211 21.4723 6.08451 21.4169C5.74077 21.3922 5.39411 21.382 5.04892 21.414C5.20913 21.4519 5.36935 21.4825 5.52957 21.5029C6.31319 21.5975 7.09098 21.7286 7.86586 21.8888C9.51466 22.2253 11.1096 22.7293 12.6418 23.424C12.6564 23.4299 12.671 23.4371 12.6855 23.443C12.9069 23.5435 13.1269 23.6498 13.3439 23.7576C14.8645 24.5193 16.2642 25.4675 17.5314 26.6168C17.6188 26.6954 17.7033 26.7784 17.7863 26.8615C17.8694 26.9445 17.9509 27.0304 18.0325 27.1149C18.05 27.1324 18.0762 27.1513 18.082 27.179C18.0835 27.1877 18.0835 27.1994 18.0805 27.211C16.4929 25.7749 14.4887 24.6665 12.4991 23.8362C12.3549 24.2776 12.2369 24.732 12.1466 25.1952C16.6866 27.0712 19.0593 29.1948 19.3652 29.4803C19.3652 29.4847 19.3638 29.4905 19.3608 29.4949C18.9778 29.2735 18.6005 29.0492 18.2204 28.8307C18.0937 28.7579 17.9669 28.6865 17.8388 28.6166C15.9627 27.581 14.0197 26.6867 12.0316 25.8972C11.8844 25.8375 11.7373 25.7792 11.5902 25.7224C9.42872 24.882 7.23372 24.1436 4.99939 23.5245C4.24782 23.3162 3.49479 23.1254 2.7403 22.9273C2.71263 22.9201 2.68933 22.8968 2.66019 22.8778C2.65291 22.6506 2.78983 22.4511 2.79711 22.2195C2.60485 22.1161 2.4155 22.0913 2.23343 22.1947C1.87658 22.3972 1.52555 22.6084 1.17744 22.8254C1.08422 22.8837 0.993917 22.9667 0.942938 23.0613C0.827872 23.2769 0.768154 23.5129 0.739023 23.7736C0.852633 23.7984 0.950221 23.8275 1.04927 23.8421C1.84162 23.9557 2.62378 24.1217 3.40012 24.3169C5.00231 24.7174 6.57245 25.2272 8.12075 25.7982C9.40687 26.2716 10.6784 26.7828 11.9311 27.329C12.1714 27.4339 12.4103 27.5387 12.6491 27.6465C14.3227 28.3952 15.9686 29.2065 17.5882 30.0746C17.9538 30.2712 18.3151 30.4751 18.669 30.6921C18.9341 30.8553 19.1948 31.0257 19.4482 31.2078C19.5327 31.2675 19.6172 31.3301 19.7002 31.3927C19.7628 31.4393 19.8269 31.483 19.8925 31.5224C20.025 31.601 20.1634 31.6651 20.3076 31.719C20.3804 31.7452 20.4532 31.77 20.5275 31.7918C20.7358 31.853 20.9441 31.9011 21.1538 31.9346C21.3636 31.9681 21.5733 31.9899 21.7831 31.9972C21.9928 32.0045 22.204 31.9972 22.4167 31.9797C22.6279 31.9608 22.8405 31.9273 23.0517 31.8821C23.2338 31.8428 23.4129 31.7962 23.5877 31.735C23.7756 31.6695 23.9577 31.5879 24.1295 31.4801C24.1762 31.451 24.2228 31.419 24.2679 31.3855C24.482 31.2267 24.702 31.0781 24.9248 30.9354C25.2977 30.698 25.6822 30.4795 26.0682 30.2654C27.7257 29.3492 29.4211 28.5117 31.1501 27.7412C31.4384 27.613 31.7268 27.4863 32.0167 27.361C32.3065 27.2358 32.5964 27.1134 32.8877 26.9925C32.9984 26.9459 33.1105 26.9022 33.2212 26.8556C33.8781 26.5847 34.5365 26.3211 35.2007 26.072C36.4577 25.6001 37.7307 25.1733 39.027 24.8121C40.351 24.4436 41.6866 24.1217 43.0558 23.9659C43.0922 23.9615 43.1272 23.9353 43.1621 23.9193C43.1621 23.7299 43.1009 23.5668 43.047 23.4036" fill="#60041E"/>
<path d="M32.8367 14.5508V13.4351C32.8367 13.4118 32.8367 13.3885 32.8352 13.3637C32.8207 12.5189 32.5745 11.8329 32.0633 11.345C31.9016 11.192 31.7268 11.0668 31.5651 10.9153C31.4108 10.7711 31.2622 10.6138 31.1224 10.4448C31.0495 10.3574 31.0015 10.2307 30.9461 10.1258C30.9578 10.1069 30.968 10.0909 30.9767 10.0749C30.917 10.0938 30.8573 10.1287 30.7888 10.1462C30.7597 10.2074 30.7306 10.2715 30.6971 10.3297C30.5572 10.5774 30.3752 10.7551 30.1843 10.9167C30.0533 11.026 29.9193 11.1338 29.7896 11.2445C29.2361 11.7207 28.9405 12.4024 28.9128 13.2851C28.9128 13.3302 28.9113 13.3739 28.9113 13.4205C28.9113 13.4569 28.9113 13.489 28.9055 13.5196V14.5231C29.443 14.3192 30.1203 14.2056 30.8383 14.2056C31.5564 14.2056 32.2687 14.3265 32.8396 14.5508" fill="#60041E"/>
<path d="M23.7945 11.7164C23.8834 11.7164 23.9737 11.7164 24.064 11.7193C25.0967 11.747 26.1133 11.8984 27.0834 12.1723C27.197 12.2043 27.3019 12.2378 27.4009 12.2742V11.0187C27.4009 10.9779 27.4009 10.9357 27.3995 10.8934C27.3718 9.38738 26.9348 8.16389 26.0216 7.29288C25.7346 7.01905 25.4215 6.79766 25.1345 6.52528C24.8607 6.26748 24.5942 5.98782 24.3436 5.68632C24.214 5.52901 24.131 5.30471 24.0305 5.11827C24.0552 5.07894 23.7523 5.10079 23.7654 5.12264C23.7071 5.24062 23.6518 5.36588 23.5862 5.48241C23.3372 5.92374 23.0153 6.24272 22.6715 6.5282C22.437 6.72483 22.1996 6.91418 21.968 7.11373C20.9805 7.96143 20.4547 9.17909 20.4052 10.7536C20.4023 10.8337 20.4008 10.9124 20.4008 10.9925C20.4008 11.058 20.3979 11.1163 20.3891 11.1687V12.248C20.4809 12.2189 20.5727 12.1927 20.663 12.1679C21.7292 11.8679 22.7837 11.7149 23.7974 11.7149" fill="#60041E"/>
<path d="M40.1966 22.8458C38.2041 23.1793 36.4067 23.6279 34.803 24.1333C28.4161 26.1477 25.0981 29.0812 24.6845 29.4657C24.683 29.4672 24.6787 29.4701 24.6772 29.473C24.6685 29.4803 24.6612 29.4876 24.6554 29.4919C24.6452 29.5021 24.6408 29.5065 24.6408 29.5065C24.6408 29.5065 20.9965 31.7918 25.8555 27.2984C25.8992 27.2576 25.9429 27.2183 25.9866 27.179C26.326 26.8731 26.6843 26.5818 27.0572 26.3065C28.1365 25.5069 29.3381 24.8281 30.5631 24.2586C31.8346 23.6673 33.128 23.191 34.3297 22.8195C37.3301 21.8903 39.7626 21.6048 39.8645 21.7461C40.0611 22.0199 40.1981 22.8429 40.1981 22.8429" fill="#A48640"/>
<path d="M19.3958 29.508C19.3958 29.508 19.3856 29.4963 19.3608 29.4759C19.0535 29.1905 16.6823 27.0668 12.1422 25.1908C9.90499 24.2659 7.14194 23.4007 3.83852 22.8472C3.83852 22.8472 3.97543 22.0243 4.17207 21.7505C4.30316 21.5669 8.36689 22.1044 12.4947 23.8304C14.4843 24.6621 16.49 25.7705 18.0762 27.2066C18.1111 27.2387 18.1461 27.2693 18.181 27.3013C23.04 31.7947 19.3958 29.5094 19.3958 29.5094" fill="#A48640"/>
<path d="M24.45 3.84524V4.00254C24.45 4.04624 24.415 4.0812 24.3713 4.0812H23.4304C23.3867 4.0812 23.3518 4.04624 23.3518 4.00254V3.84524C23.3518 3.80154 23.3867 3.76658 23.4304 3.76658H24.3713C24.415 3.76658 24.45 3.80154 24.45 3.84524Z" fill="#60041E"/>
<path d="M23.9708 5.60912H23.847C23.7945 5.60912 23.7523 5.56688 23.7523 5.51444V3.40538C23.7523 3.35294 23.7945 3.31071 23.847 3.31071H23.9708C24.0232 3.31071 24.0655 3.35294 24.0655 3.40538V5.51444C24.0655 5.56688 24.0232 5.60912 23.9708 5.60912Z" fill="#60041E"/>
<path d="M31.3263 9.3393V9.47185C31.3263 9.50826 31.2971 9.53739 31.2607 9.53739H30.4669C30.4305 9.53739 30.4014 9.50826 30.4014 9.47185V9.3393C30.4014 9.30289 30.4305 9.27376 30.4669 9.27376H31.2607C31.2971 9.27376 31.3263 9.30289 31.3263 9.3393Z" fill="#60041E"/>
<path d="M30.9214 10.8279H30.8165C30.7728 10.8279 30.7364 10.7915 30.7364 10.7478V8.9679C30.7364 8.9242 30.7713 8.88779 30.8165 8.88779H30.9214C30.9651 8.88779 31.0015 8.9242 31.0015 8.9679V10.7478C31.0015 10.7915 30.9651 10.8279 30.9214 10.8279Z" fill="#60041E"/>
<path d="M17.0362 9.99332V10.1259C17.0362 10.1623 17.0071 10.1914 16.9707 10.1914H16.1768C16.1404 10.1914 16.1113 10.1623 16.1113 10.1259V9.99332C16.1113 9.95691 16.1404 9.92778 16.1768 9.92778H16.9707C17.0071 9.92778 17.0362 9.95691 17.0362 9.99332Z" fill="#60041E"/>
<path d="M16.6313 11.4804H16.5264C16.4827 11.4804 16.4463 11.444 16.4463 11.4003V9.62042C16.4463 9.57673 16.4813 9.54031 16.5264 9.54031H16.6313C16.675 9.54031 16.7114 9.57673 16.7114 9.62042V11.4003C16.7114 11.444 16.675 11.4804 16.6313 11.4804Z" fill="#60041E"/>
<path d="M1.91735 12.9515C0.540925 15.933 -0.152386 19.2379 0.0282241 22.6244C0.176791 19.3151 1.058 16.1253 2.55532 13.269L1.91881 12.9501L1.91735 12.9515Z" fill="#A48640"/>
<path d="M40.048 10.3545C35.7949 3.68069 28.3506 0.0218702 20.7591 0.340852L20.8625 1.64591C21.1393 1.63426 21.4146 1.62697 21.684 1.62406C28.5895 1.55852 35.3915 5.13431 39.3329 10.8323C41.7682 14.277 43.1286 18.3859 43.3383 22.6244C43.5626 18.3538 42.3639 13.9755 40.0466 10.3545" fill="#A48640"/>
<path d="M3.08403 10.4084L3.05199 10.4681C2.98353 10.4609 2.91653 10.4652 2.85099 10.4798C2.78544 10.4944 2.72281 10.5177 2.66455 10.5497C2.60629 10.5817 2.5524 10.6211 2.50579 10.6662C2.45772 10.7114 2.41839 10.7624 2.38635 10.8162C2.34702 10.8818 2.32372 10.9503 2.31498 11.0231C2.30624 11.0959 2.31061 11.1687 2.32663 11.243C2.34265 11.3173 2.36887 11.3916 2.40529 11.4644C2.4417 11.5387 2.48685 11.6071 2.53783 11.6741C2.58881 11.7397 2.64707 11.8023 2.71116 11.8577C2.77525 11.9145 2.84079 11.9625 2.90925 12.0033C2.97916 12.0441 3.05199 12.0776 3.12773 12.1009C3.20347 12.1242 3.28066 12.1388 3.35932 12.1446C3.43797 12.1504 3.51517 12.1475 3.59091 12.133C3.66665 12.1198 3.74093 12.0965 3.80939 12.0645C3.8793 12.0325 3.94339 11.9902 4.00165 11.9392C4.05991 11.8868 4.11089 11.8256 4.15459 11.7543C4.19246 11.6887 4.22159 11.6275 4.23906 11.5707C4.25654 11.5139 4.26674 11.4615 4.26965 11.4134C4.27257 11.3654 4.26965 11.3231 4.26237 11.2838C4.25363 11.2459 4.24489 11.2124 4.2347 11.1833C4.22304 11.1556 4.21285 11.1323 4.2012 11.1148C4.18954 11.0974 4.18372 11.0843 4.1808 11.077L4.34976 11.2051C4.36578 11.2459 4.37598 11.2925 4.37744 11.3464C4.37889 11.4003 4.37452 11.4586 4.36287 11.5227C4.35122 11.5868 4.33083 11.6538 4.30461 11.7237C4.27693 11.7936 4.24198 11.8635 4.19974 11.9349C4.14439 12.0295 4.0803 12.114 4.00893 12.1912C3.93756 12.2684 3.86037 12.3354 3.7788 12.3922C3.69723 12.449 3.6113 12.4942 3.52099 12.5277C3.43069 12.5612 3.33893 12.5816 3.24716 12.5903C3.15395 12.5976 3.06073 12.5918 2.96605 12.5714C2.87138 12.551 2.77962 12.5146 2.68931 12.4621C2.5524 12.3777 2.4417 12.2786 2.35868 12.1665C2.27565 12.0543 2.21448 11.9363 2.17807 11.8096C2.14165 11.6843 2.12563 11.5547 2.13291 11.4193C2.13874 11.2853 2.1635 11.1527 2.20574 11.0216C2.22759 10.9517 2.25963 10.8774 2.30187 10.7959C2.34411 10.7143 2.38926 10.6342 2.43733 10.5541C2.48248 10.4769 2.52763 10.4055 2.56987 10.3385C2.61211 10.2715 2.64707 10.2147 2.67474 10.1681C2.7097 10.2016 2.74175 10.2293 2.76942 10.2511C2.79855 10.273 2.82622 10.2934 2.8539 10.3094C2.89177 10.3327 2.92964 10.3502 2.96605 10.3647C3.00247 10.3778 3.04325 10.3909 3.08694 10.404" fill="#60041E"/>
<path d="M3.93028 10.7026C3.8793 10.6648 3.83269 10.6211 3.789 10.5686C3.7453 10.5162 3.70743 10.4579 3.67539 10.3938C3.64334 10.3298 3.62004 10.2613 3.60402 10.187C3.58799 10.1127 3.58362 10.0355 3.58945 9.95542C3.59528 9.87531 3.61421 9.79229 3.64626 9.70781C3.6783 9.62333 3.72491 9.5374 3.789 9.45146C3.85454 9.36116 3.92445 9.28833 3.99582 9.23007C4.06719 9.1718 4.14002 9.12665 4.21285 9.09607C4.28567 9.06402 4.35996 9.04509 4.43279 9.0378C4.50707 9.03052 4.57844 9.03198 4.64835 9.04509C4.71827 9.05674 4.78527 9.07859 4.85081 9.10772C4.9149 9.13685 4.97462 9.1718 5.02997 9.21259C5.0824 9.25191 5.13192 9.29707 5.17708 9.3495C5.22223 9.40194 5.2601 9.45874 5.29214 9.52283C5.32419 9.58546 5.34603 9.65392 5.36206 9.72675C5.37662 9.79957 5.38099 9.87531 5.37225 9.95542C5.36351 10.0355 5.34312 10.1186 5.30962 10.2045C5.27612 10.2904 5.2266 10.3778 5.16105 10.4667C5.09697 10.5526 5.03142 10.6225 4.96005 10.6793C4.89014 10.7347 4.81731 10.7784 4.74448 10.809C4.67166 10.8395 4.59737 10.8585 4.52309 10.8658C4.44881 10.873 4.37598 10.8716 4.30607 10.8614C4.23615 10.8512 4.16915 10.8323 4.10506 10.8046C4.04098 10.7769 3.98272 10.7434 3.93028 10.7055M4.19537 10.3327C4.27111 10.3895 4.34976 10.4375 4.42987 10.4798C4.50998 10.522 4.58863 10.5497 4.66437 10.5643C4.74011 10.5774 4.8144 10.5744 4.88431 10.5511C4.95423 10.5293 5.01686 10.4827 5.07366 10.4099C5.11007 10.3603 5.13338 10.3108 5.14503 10.2613C5.15668 10.2103 5.1596 10.1608 5.15231 10.1098C5.14503 10.0588 5.12901 10.0108 5.10571 9.9627C5.0824 9.91464 5.05327 9.86803 5.01831 9.82288C4.98336 9.77772 4.94549 9.73403 4.90179 9.69325C4.85955 9.65246 4.8144 9.61459 4.76925 9.57818C4.72118 9.54322 4.67166 9.50972 4.61922 9.47913C4.56679 9.44855 4.51435 9.42087 4.46046 9.39903C4.40657 9.37718 4.35268 9.36115 4.30024 9.3495C4.24635 9.33931 4.19537 9.33639 4.14439 9.34368C4.09487 9.3495 4.0468 9.36552 4.00165 9.39174C3.9565 9.41796 3.91571 9.45583 3.87784 9.50535C3.82395 9.57964 3.79482 9.65246 3.79191 9.72529C3.789 9.79812 3.80502 9.87094 3.83852 9.94086C3.87202 10.0108 3.92008 10.0792 3.98417 10.1462C4.0468 10.2118 4.11817 10.2744 4.19537 10.3327Z" fill="#60041E"/>
<path d="M4.51727 8.56878L5.0023 8.02549C5.05764 7.96431 5.11882 7.9046 5.18436 7.84779C5.25136 7.79099 5.32128 7.74001 5.39702 7.69485C5.4713 7.6497 5.5485 7.61475 5.63006 7.58707C5.71017 7.5594 5.79174 7.54629 5.8733 7.54483C5.95487 7.54483 6.03789 7.5594 6.11946 7.58853C6.20103 7.61912 6.28114 7.66864 6.35979 7.73709C6.44864 7.8172 6.51709 7.90605 6.5637 8.00655C6.61031 8.1056 6.63653 8.21047 6.63944 8.3168C6.64381 8.42458 6.62488 8.53236 6.5841 8.64015C6.54331 8.74793 6.48068 8.84989 6.39329 8.94748C6.34814 8.99845 6.30444 9.03778 6.26366 9.06254C6.22287 9.08876 6.18355 9.1077 6.14276 9.1208L6.15587 8.9533C6.19374 8.9533 6.22579 8.94748 6.25492 8.93291C6.28405 8.9198 6.31172 8.89795 6.3394 8.86591C6.37727 8.82221 6.40203 8.77269 6.41077 8.71443C6.41951 8.65617 6.41222 8.59208 6.38892 8.52362C6.36561 8.45517 6.32774 8.38234 6.2724 8.3066C6.21705 8.23086 6.14713 8.15366 6.05829 8.07501C5.98255 8.00655 5.90681 7.95557 5.83544 7.92353C5.76261 7.89149 5.69415 7.8711 5.62861 7.86381C5.56306 7.85653 5.50043 7.85944 5.44217 7.87255C5.38391 7.88566 5.33147 7.9046 5.28341 7.9279C5.23534 7.9512 5.19456 7.97742 5.15815 8.00655C5.12319 8.03568 5.09406 8.0619 5.07221 8.08666L5.01103 8.15512L6.43262 9.42522C6.44427 9.43542 6.45738 9.44415 6.4734 9.45289C6.48942 9.46163 6.50835 9.466 6.5302 9.466C6.55205 9.466 6.57536 9.46018 6.60012 9.44852C6.62488 9.43687 6.65255 9.41357 6.68168 9.38152L6.72247 9.41794L6.16461 10.0428L6.12383 10.0064C6.1515 9.97433 6.17044 9.94666 6.18209 9.9219C6.19374 9.89714 6.19811 9.87383 6.19811 9.85199C6.19811 9.83159 6.19229 9.81266 6.18209 9.79518C6.17189 9.7777 6.15879 9.76314 6.14422 9.74857L4.80129 8.54838C4.78964 8.53819 4.77653 8.52945 4.75905 8.52071C4.74158 8.51197 4.72264 8.5076 4.70079 8.5076C4.67895 8.5076 4.65564 8.51488 4.62942 8.52799C4.6032 8.5411 4.57699 8.56441 4.54786 8.59645L4.51727 8.56878Z" fill="#60041E"/>
<path d="M5.96507 7.10355C5.94759 7.04528 5.92428 6.99285 5.89224 6.9477C5.8602 6.90254 5.83107 6.86613 5.80339 6.83554C5.79611 6.82826 5.78883 6.82098 5.783 6.81515C5.77717 6.80932 5.77135 6.80496 5.76843 6.80059C5.76261 6.79622 5.75824 6.79185 5.75387 6.78748L5.78883 6.74378C5.82087 6.77437 5.85728 6.79476 5.8937 6.80204C5.93157 6.81078 5.96798 6.81224 6.00585 6.80641C6.04372 6.80059 6.08013 6.78893 6.11655 6.77291C6.15296 6.75689 6.18646 6.73796 6.2185 6.71756C6.25055 6.69717 6.27822 6.67678 6.30153 6.65639C6.32629 6.636 6.34522 6.61998 6.35979 6.60541L7.21332 5.80723C7.23225 5.86695 7.25701 5.91792 7.2876 5.96308C7.31819 6.00823 7.34732 6.04464 7.37645 6.07523C7.38373 6.08397 7.39102 6.0898 7.39684 6.09708C7.40267 6.1029 7.40849 6.10873 7.41286 6.11164C7.41723 6.11747 7.42306 6.12184 7.42743 6.12475L7.39393 6.16845C7.36043 6.13786 7.32547 6.11893 7.2876 6.11019C7.24973 6.10145 7.21332 6.09999 7.17545 6.10582C7.13758 6.11164 7.10116 6.12184 7.06475 6.13932C7.02834 6.15534 6.99484 6.17428 6.96425 6.19467C6.93366 6.21506 6.90599 6.23545 6.88123 6.25584C6.85647 6.27623 6.83753 6.29225 6.82297 6.30536L6.80258 6.3243C6.73703 6.39276 6.69042 6.46704 6.66566 6.54861C6.63944 6.62872 6.6307 6.71174 6.63944 6.79622C6.64818 6.8807 6.67149 6.96372 6.71081 7.04528C6.75014 7.12685 6.80112 7.20259 6.86521 7.2725C6.92929 7.34096 6.99775 7.40214 7.06912 7.45457C7.14049 7.50701 7.21186 7.54633 7.28178 7.57109C7.35315 7.59586 7.42306 7.60314 7.49006 7.59294C7.55852 7.58275 7.62261 7.5507 7.68087 7.49535C7.72456 7.45603 7.75515 7.41379 7.77263 7.37009C7.79156 7.3264 7.8003 7.2827 7.8003 7.23755C7.8003 7.19239 7.79302 7.14579 7.77845 7.09772C7.76389 7.04965 7.74495 7.00159 7.72165 6.95061L8.05957 6.79767C8.06831 6.85885 8.06976 6.92148 8.06539 6.98411C8.06102 7.04674 8.04791 7.11083 8.02461 7.17492C8.0013 7.239 7.96926 7.30309 7.92556 7.36864C7.88333 7.43272 7.82652 7.49827 7.75806 7.56236C7.68524 7.63081 7.6095 7.68616 7.53376 7.72694C7.45802 7.76773 7.38228 7.79686 7.30799 7.81288C7.23371 7.83036 7.15943 7.83618 7.08806 7.83181C7.01669 7.82744 6.94823 7.81434 6.88268 7.79249C6.81714 7.77064 6.75597 7.74151 6.69916 7.70364C6.64236 7.66577 6.59138 7.62353 6.54768 7.57546C6.49088 7.51429 6.44572 7.44729 6.41222 7.37592C6.37872 7.30455 6.35833 7.22881 6.34959 7.15016C6.34085 7.0715 6.34522 6.98994 6.3627 6.90691C6.38018 6.82243 6.40931 6.73796 6.45155 6.65202L5.97089 7.10209L5.96507 7.10355Z" fill="#60041E"/>
<path d="M7.241 5.28579C7.22061 5.26103 7.20605 5.23335 7.19876 5.20422C7.19002 5.17509 7.18857 5.1445 7.19002 5.11537C7.19294 5.08624 7.20168 5.05711 7.21624 5.02944C7.23081 5.00176 7.24974 4.97846 7.2745 4.95807C7.29926 4.93768 7.32694 4.92311 7.35607 4.91583C7.3852 4.90709 7.41579 4.90418 7.44492 4.90709C7.47405 4.91 7.50318 4.91874 7.53085 4.93331C7.55853 4.94787 7.58183 4.96681 7.60222 4.99157C7.62261 5.01633 7.63718 5.044 7.64446 5.07313C7.6532 5.10226 7.65612 5.13285 7.6532 5.16198C7.65029 5.19111 7.64155 5.22024 7.62698 5.24646C7.61242 5.27414 7.59348 5.29744 7.56872 5.31783C7.54396 5.33822 7.51629 5.35279 7.48716 5.36153C7.45803 5.37027 7.4289 5.37318 7.39831 5.37027C7.36918 5.36735 7.34005 5.35862 7.31237 5.34405C7.2847 5.32948 7.26139 5.31055 7.241 5.28579ZM9.01069 6.42626L8.36108 6.95789L8.32612 6.91565C8.35817 6.88944 8.38293 6.86467 8.39749 6.84137C8.41206 6.81806 8.4208 6.79622 8.42371 6.77583C8.42662 6.75543 8.42371 6.7365 8.41643 6.71756C8.40915 6.70009 8.39895 6.68261 8.38584 6.66659L7.63864 5.75188C7.6299 5.74023 7.61679 5.72858 7.60077 5.71838C7.58474 5.70673 7.56727 5.7009 7.54542 5.69799C7.52503 5.69508 7.50027 5.69799 7.47405 5.70673C7.44783 5.71547 7.41724 5.73295 7.38229 5.76062L7.34587 5.71547L7.99549 5.18383L8.0319 5.22898C8.00131 5.25374 7.97801 5.27851 7.96345 5.30181C7.94742 5.32511 7.93868 5.34551 7.93431 5.3659C7.92994 5.38629 7.9314 5.40377 7.93868 5.42125C7.94451 5.43872 7.95471 5.45475 7.96636 5.46931L8.72084 6.39421C8.73104 6.40586 8.74269 6.41606 8.75726 6.42771C8.77182 6.43791 8.79076 6.44519 8.81115 6.4481C8.83154 6.45102 8.8563 6.44811 8.88398 6.43937C8.91165 6.43063 8.94224 6.41315 8.97574 6.38547L9.01069 6.42771V6.42626Z" fill="#60041E"/>
<path d="M9.67777 4.44824L9.6399 4.47883C9.59475 4.45407 9.54668 4.43659 9.49571 4.42785C9.44473 4.41911 9.3952 4.4162 9.34423 4.42057C9.2947 4.42494 9.24664 4.43513 9.20003 4.45261C9.15342 4.46863 9.11264 4.49048 9.07622 4.5167C9.00485 4.56768 8.95242 4.63322 8.92037 4.71188C8.88833 4.79053 8.87231 4.8721 8.87231 4.96094C8.87231 5.04834 8.88687 5.13573 8.91601 5.22458C8.94514 5.31343 8.98446 5.39208 9.03544 5.46199C9.08933 5.53628 9.15196 5.59891 9.22625 5.64989C9.30053 5.70086 9.37918 5.73437 9.46221 5.75476C9.54523 5.77369 9.63116 5.77515 9.72001 5.75913C9.80886 5.7431 9.8948 5.70523 9.97636 5.64552C10.0448 5.59745 10.0943 5.54647 10.1249 5.49549C10.1555 5.44451 10.1774 5.39645 10.1876 5.35421C10.1978 5.31051 10.2007 5.2741 10.1992 5.24497C10.1963 5.21438 10.1948 5.1969 10.1948 5.18962L10.2793 5.34401C10.2793 5.37606 10.2735 5.41101 10.2575 5.44888C10.2429 5.48675 10.2211 5.52754 10.1934 5.56832C10.1657 5.6091 10.1308 5.64989 10.09 5.69067C10.0492 5.73145 10.0026 5.77078 9.95015 5.80865C9.82925 5.89458 9.70982 5.96013 9.59329 6.00674C9.47531 6.05189 9.36316 6.07374 9.25392 6.07374C9.14468 6.07374 9.04272 6.04752 8.94659 5.99654C8.85046 5.94556 8.76452 5.86691 8.68878 5.76058C8.62324 5.663 8.57663 5.56978 8.5475 5.47947C8.51983 5.38917 8.50817 5.30177 8.51254 5.21729C8.51691 5.13282 8.53585 5.04979 8.56935 4.97114C8.60285 4.89249 8.648 4.81529 8.70335 4.74246C8.7587 4.66818 8.8257 4.59681 8.9029 4.52835C8.98009 4.4599 9.06457 4.39144 9.15488 4.32735C9.2146 4.28511 9.26849 4.24724 9.31364 4.21665C9.36025 4.18607 9.40103 4.15694 9.4389 4.13072C9.45201 4.16422 9.46803 4.19772 9.48842 4.23122C9.50881 4.26472 9.52484 4.29239 9.54086 4.31279C9.56125 4.34192 9.5831 4.36668 9.60495 4.38853C9.62679 4.41037 9.65156 4.43077 9.67923 4.45116" fill="#60041E"/>
<path d="M13.0089 3.92096C12.9462 3.9967 12.8865 4.05642 12.8283 4.10303C12.77 4.14818 12.7161 4.18459 12.668 4.21081C12.6069 4.24431 12.537 4.26033 12.4583 4.26033C12.3796 4.26033 12.2981 4.25014 12.2151 4.22975C12.132 4.20936 12.0476 4.18168 11.966 4.14818C11.883 4.11322 11.8058 4.07681 11.7344 4.0404C11.663 4.00253 11.6004 3.96757 11.5465 3.93407C11.4926 3.90057 11.4547 3.87581 11.43 3.85687C11.5319 3.77822 11.6135 3.69228 11.6747 3.59615C11.7009 3.55537 11.7242 3.51022 11.7446 3.46215C11.765 3.41409 11.7796 3.36311 11.7854 3.30776C11.7927 3.25387 11.7912 3.19561 11.781 3.13589C11.7708 3.07617 11.749 3.01354 11.714 2.94799C11.682 2.88973 11.647 2.84021 11.6062 2.79943C11.5654 2.7601 11.5232 2.72806 11.4781 2.7033C11.4344 2.67854 11.3877 2.66251 11.3411 2.65232C11.2945 2.64212 11.2479 2.63921 11.2042 2.64067C11.1591 2.64067 11.1168 2.64795 11.0775 2.65814C11.0382 2.66834 11.0018 2.6829 10.9712 2.69893C10.9246 2.72369 10.8882 2.74991 10.8634 2.77467C10.8386 2.80088 10.8212 2.82565 10.8124 2.85186C10.8037 2.87808 10.8022 2.90284 10.8066 2.9276C10.811 2.95236 10.8197 2.97713 10.8328 3.00043L11.5844 4.40307C11.5931 4.42055 11.6062 4.43803 11.6237 4.45697C11.6412 4.47445 11.6616 4.48901 11.6878 4.49921C11.714 4.5094 11.7461 4.51232 11.7839 4.50795C11.8218 4.50358 11.8655 4.48901 11.915 4.46134L11.9412 4.5094L11.0586 4.98132L11.0324 4.93325C11.079 4.90849 11.1154 4.88373 11.1401 4.85751C11.1649 4.83275 11.1824 4.80654 11.1911 4.78177C11.1999 4.75556 11.2028 4.7308 11.1969 4.70603C11.1926 4.68127 11.1838 4.65651 11.1707 4.63321L10.3973 3.18978C10.3886 3.1723 10.374 3.15482 10.3565 3.1388C10.339 3.12278 10.3172 3.10967 10.291 3.10239C10.2648 3.0951 10.2342 3.09219 10.1978 3.09656C10.1613 3.10093 10.1206 3.1155 10.0725 3.14171L10.0463 3.09219L10.9289 2.62027C11.0542 2.55327 11.1765 2.50084 11.2989 2.46442C11.4212 2.42655 11.5363 2.40908 11.6441 2.41199C11.7519 2.4149 11.8509 2.43966 11.9383 2.48627C12.0257 2.53288 12.0985 2.60862 12.1524 2.71058C12.199 2.79797 12.2223 2.88245 12.2209 2.96693C12.2209 3.05141 12.2034 3.13152 12.1699 3.21017C12.1364 3.28737 12.0913 3.36165 12.033 3.43157C11.9747 3.50148 11.9121 3.56557 11.8436 3.62528C11.9034 3.66315 11.9645 3.70102 12.0301 3.73598C12.0956 3.77094 12.1612 3.80298 12.2267 3.83211C12.2923 3.86124 12.3578 3.886 12.4204 3.90785C12.4831 3.9297 12.5428 3.94572 12.5967 3.95737C12.652 3.96903 12.7001 3.97485 12.7423 3.97631C12.7846 3.97631 12.8195 3.97048 12.8443 3.95592C12.8559 3.95009 12.8734 3.93844 12.8923 3.92533C12.9127 3.91077 12.9331 3.89183 12.9521 3.86707L13.003 3.91514L13.0089 3.92096Z" fill="#60041E"/>
<path d="M13.0788 2.91745C13.0846 2.9393 13.0919 2.95824 13.1006 2.97717C13.1079 2.99611 13.1167 3.01504 13.1239 3.03398C13.1604 3.12137 13.2011 3.20439 13.2463 3.28304C13.2914 3.3617 13.3424 3.42578 13.3992 3.47822C13.456 3.53066 13.5187 3.56561 13.5886 3.58309C13.6585 3.60057 13.7357 3.59329 13.8216 3.55979C13.8755 3.53794 13.9207 3.50881 13.9556 3.47385C13.9906 3.43889 14.0183 3.39957 14.0386 3.35441C14.0576 3.31072 14.0707 3.26265 14.0765 3.21167C14.0823 3.16069 14.0823 3.10826 14.078 3.05291L14.4494 3.02815C14.4363 3.08932 14.4144 3.14904 14.3853 3.2073C14.3562 3.26557 14.3168 3.32237 14.2702 3.37626C14.2222 3.43015 14.1654 3.47968 14.0998 3.52629C14.0343 3.57289 13.9571 3.61513 13.8697 3.65155C13.7706 3.69233 13.6774 3.71855 13.5886 3.7302C13.4997 3.74185 13.4153 3.74185 13.3366 3.7302C13.2579 3.71855 13.1851 3.6967 13.1167 3.66466C13.0497 3.63261 12.987 3.59474 12.9331 3.54959C12.8778 3.50444 12.8297 3.45346 12.7904 3.39665C12.7496 3.33985 12.7161 3.28159 12.6914 3.22041C12.668 3.16215 12.6491 3.10098 12.6375 3.03398C12.6258 2.96698 12.6214 2.89852 12.6258 2.82715C12.6302 2.75578 12.6433 2.68586 12.6651 2.61595C12.687 2.54604 12.7205 2.47904 12.7656 2.41349C12.8108 2.34795 12.8676 2.28823 12.9375 2.23288C13.0074 2.17753 13.0919 2.12947 13.1895 2.08868C13.3337 2.02897 13.4648 1.99547 13.5813 1.98964C13.6978 1.98381 13.8012 1.99692 13.893 2.03042C13.9848 2.06392 14.0634 2.1149 14.129 2.1819C14.1945 2.2489 14.2498 2.3261 14.295 2.41349L13.0802 2.91745H13.0788ZM13.2376 2.18045C13.1706 2.20812 13.1181 2.24453 13.0832 2.28823C13.0467 2.33193 13.0234 2.3829 13.0103 2.43825C12.9987 2.4936 12.9958 2.55478 13.0045 2.61886C13.0132 2.68441 13.0264 2.75141 13.0482 2.82132L13.826 2.49797C13.7925 2.43388 13.7575 2.37562 13.7197 2.32464C13.6818 2.27366 13.6381 2.23142 13.5915 2.19938C13.5449 2.16734 13.4924 2.1484 13.4342 2.14403C13.3759 2.13821 13.3118 2.14986 13.2405 2.18045" fill="#60041E"/>
<path d="M15.1107 1.38078C15.182 1.35893 15.2505 1.34582 15.3146 1.34291C15.3787 1.34 15.4369 1.34291 15.4908 1.35019C15.5432 1.35747 15.5913 1.36913 15.6321 1.38369C15.6729 1.39826 15.7078 1.41282 15.7326 1.42593C15.7544 1.39389 15.7807 1.3633 15.8098 1.33417C15.8389 1.30504 15.8681 1.27882 15.9001 1.25406C15.9307 1.23076 15.9627 1.20891 15.9962 1.19143C16.0283 1.17395 16.0603 1.15939 16.0909 1.14773L16.123 1.18997C16.0895 1.21619 16.0632 1.2526 16.0428 1.2963C16.0268 1.33417 16.0152 1.38078 16.0093 1.43904C16.0035 1.4973 16.0123 1.56867 16.0356 1.6517C16.0501 1.70122 16.0647 1.75074 16.0807 1.80318C16.0967 1.85561 16.1128 1.90659 16.1273 1.95902C16.1433 2.01 16.1565 2.05807 16.171 2.10468C16.1841 2.15129 16.1972 2.19207 16.2074 2.22848C16.2176 2.2649 16.2264 2.29403 16.2336 2.31733C16.2409 2.33918 16.2438 2.35229 16.2453 2.35666C16.2701 2.43968 16.3021 2.50377 16.3385 2.54746C16.3764 2.59262 16.4128 2.62612 16.4478 2.64651C16.49 2.67127 16.5322 2.68438 16.5759 2.68875L16.573 2.74118C16.5264 2.75284 16.474 2.76012 16.4157 2.76303C16.3575 2.76449 16.3006 2.76158 16.2409 2.75138C16.1827 2.74118 16.1259 2.72516 16.0734 2.70186C16.0195 2.68001 15.9729 2.64942 15.9321 2.61155C15.9249 2.65379 15.9103 2.69603 15.8914 2.73973C15.8724 2.78342 15.8462 2.82421 15.8113 2.86499C15.7763 2.90432 15.7326 2.94219 15.6802 2.97569C15.6277 3.01064 15.5636 3.03832 15.4879 3.06162C15.3641 3.09949 15.249 3.11114 15.1412 3.09512C15.0335 3.0791 14.9373 3.0456 14.8529 2.99317C14.7684 2.94073 14.6955 2.87373 14.6358 2.79362C14.5761 2.71351 14.5324 2.62612 14.5033 2.53436C14.4814 2.46444 14.4683 2.39307 14.464 2.31733C14.4581 2.24159 14.464 2.16585 14.4756 2.09157C14.4887 2.01583 14.5106 1.943 14.5426 1.87018C14.5747 1.79735 14.6154 1.73035 14.6679 1.66772C14.7203 1.60509 14.7829 1.54974 14.8558 1.50022C14.9286 1.45069 15.0145 1.41137 15.1107 1.38224M15.5753 2.87082C15.6423 2.85042 15.6918 2.81838 15.7268 2.77468C15.7617 2.73099 15.785 2.68292 15.7981 2.63049C15.8113 2.57805 15.8156 2.52707 15.8127 2.47464C15.8098 2.4222 15.8054 2.37705 15.7981 2.33772L15.6438 1.79298C15.635 1.77404 15.6248 1.75074 15.6102 1.72307C15.5957 1.69685 15.5797 1.66917 15.5593 1.6415C15.5389 1.61383 15.517 1.58761 15.4908 1.56139C15.4646 1.53517 15.4355 1.51478 15.402 1.49876C15.3685 1.48274 15.3321 1.47254 15.2913 1.46817C15.2505 1.4638 15.2068 1.46817 15.1587 1.48419C15.0874 1.50604 15.0276 1.54391 14.981 1.5978C14.9344 1.6517 14.8995 1.71578 14.8776 1.79152C14.8558 1.86581 14.847 1.94883 14.8499 2.03768C14.8528 2.12798 14.8689 2.21829 14.898 2.31151C14.9359 2.43386 14.981 2.53436 15.0335 2.61301C15.0859 2.69312 15.1442 2.75429 15.2039 2.79799C15.2651 2.84169 15.3277 2.86936 15.3903 2.87956C15.4544 2.88975 15.5156 2.88538 15.5724 2.8679" fill="#60041E"/>
<path d="M17.9349 2.15422C17.9189 2.19354 17.897 2.23433 17.8693 2.27511C17.8417 2.31589 17.8082 2.35376 17.7659 2.39018C17.7251 2.42659 17.6756 2.45863 17.6188 2.48631C17.562 2.51398 17.4965 2.53583 17.4222 2.55185C17.2955 2.57807 17.1789 2.57661 17.0741 2.55185C16.9692 2.52563 16.876 2.48194 16.7973 2.42222C16.7187 2.36105 16.6531 2.28822 16.6007 2.20228C16.5497 2.11635 16.5148 2.02604 16.4958 1.93137C16.4813 1.86 16.474 1.78717 16.474 1.71143C16.474 1.63715 16.4813 1.56286 16.4973 1.49004C16.5133 1.41721 16.5381 1.3473 16.5701 1.2803C16.6036 1.21184 16.6473 1.15066 16.6997 1.09532C16.7536 1.03997 16.8177 0.990445 16.8935 0.949662C16.9692 0.908879 17.0551 0.878291 17.1556 0.8579C17.2124 0.846248 17.2663 0.840422 17.3188 0.840422C17.3697 0.840422 17.4178 0.843334 17.463 0.849161C17.5081 0.856443 17.5489 0.865183 17.5868 0.878291C17.6246 0.889944 17.6581 0.903053 17.6873 0.916162L17.5606 0.286938C17.5576 0.272373 17.5518 0.25635 17.5431 0.240328C17.5343 0.224306 17.5212 0.211198 17.5037 0.199545C17.4863 0.187893 17.4644 0.18061 17.4367 0.176241C17.4091 0.171871 17.3756 0.174784 17.3348 0.182067L17.3231 0.125262L17.9465 0L18.3718 2.11052C18.3748 2.12509 18.3806 2.13965 18.3893 2.15567C18.3981 2.1717 18.4112 2.1848 18.4286 2.19646C18.4461 2.20811 18.4694 2.21539 18.4971 2.21976C18.5248 2.22413 18.5583 2.22268 18.5991 2.21394L18.6107 2.26783L17.9873 2.39309L17.9393 2.15567L17.9349 2.15422ZM17.5008 2.37561C17.5649 2.3625 17.6174 2.34065 17.6611 2.30715C17.7047 2.27365 17.7397 2.23578 17.7659 2.195C17.7936 2.15276 17.8125 2.10906 17.8271 2.061C17.8402 2.01439 17.8504 1.97069 17.8548 1.92845C17.8606 1.88767 17.8621 1.85126 17.8621 1.82213C17.8621 1.793 17.8591 1.77261 17.8577 1.76387L17.7426 1.19145L17.6611 1.36623C17.6377 1.27884 17.6072 1.20164 17.5664 1.13756C17.5489 1.10988 17.5285 1.08366 17.5052 1.05745C17.4819 1.03268 17.4542 1.01084 17.4251 0.993358C17.3945 0.975879 17.361 0.964227 17.3231 0.956945C17.2853 0.951118 17.243 0.951118 17.1979 0.961314C17.125 0.975879 17.0653 1.00792 17.0187 1.05453C16.9721 1.1026 16.9386 1.16232 16.9182 1.23223C16.8964 1.3036 16.8862 1.38225 16.8876 1.4711C16.8876 1.55995 16.8978 1.65171 16.9168 1.74639C16.9415 1.87165 16.975 1.97652 17.0173 2.061C17.0595 2.14548 17.1061 2.21394 17.1585 2.26491C17.211 2.31589 17.2663 2.34939 17.3246 2.36687C17.3843 2.38435 17.444 2.38581 17.5037 2.37415" fill="#60041E"/>
<path d="M19.138 2.24742C19.0681 2.2547 19.0098 2.25907 18.9661 2.25907C18.921 2.25907 18.8845 2.25907 18.8554 2.25616C18.8263 2.25324 18.803 2.25033 18.784 2.24742C18.7651 2.2445 18.7476 2.2445 18.7287 2.24742C18.7331 2.21246 18.7345 2.18187 18.7345 2.1542C18.7345 2.12652 18.7345 2.10031 18.7302 2.07846C18.7258 2.04496 18.72 2.01437 18.7112 1.98524C18.7025 1.95611 18.6923 1.92698 18.6806 1.89639L18.7316 1.88765C18.7578 1.9328 18.7957 1.97067 18.8409 2.00272C18.8875 2.03331 18.937 2.05952 18.9923 2.07846C19.0477 2.09739 19.103 2.1105 19.1613 2.11633C19.2196 2.12361 19.2734 2.12361 19.323 2.11778C19.3856 2.1105 19.4395 2.09594 19.4861 2.07555C19.5327 2.0537 19.572 2.02602 19.6012 1.99398C19.6318 1.96194 19.6536 1.92407 19.6667 1.88328C19.6798 1.84104 19.6842 1.79735 19.6784 1.74928C19.6725 1.6983 19.658 1.65898 19.6347 1.62839C19.6114 1.5978 19.5793 1.57595 19.5429 1.55993C19.505 1.54391 19.4628 1.53371 19.4133 1.52934C19.3652 1.52497 19.3128 1.52352 19.2574 1.52352C19.2152 1.52352 19.17 1.52352 19.122 1.52352C19.0739 1.52352 19.0258 1.51915 18.9763 1.51187C18.9282 1.50458 18.8802 1.49439 18.8336 1.47982C18.787 1.46526 18.7462 1.44341 18.7083 1.41719C18.6704 1.39097 18.6399 1.35602 18.6151 1.31378C18.5903 1.27154 18.5743 1.22056 18.567 1.16084C18.5583 1.08947 18.567 1.02538 18.5889 0.968577C18.6122 0.911772 18.6442 0.86225 18.6879 0.818554C18.7302 0.774858 18.7811 0.736988 18.8394 0.704944C18.8977 0.6729 18.9588 0.646683 19.0215 0.624835C19.0841 0.602987 19.1482 0.585508 19.2108 0.572399C19.2734 0.559291 19.3317 0.550551 19.3841 0.544725C19.4774 0.534529 19.5589 0.530159 19.6303 0.531616C19.7017 0.533072 19.7599 0.531616 19.808 0.52579C19.8022 0.562204 19.7993 0.595704 19.7993 0.627748C19.7993 0.659792 19.7993 0.688922 19.8036 0.713683C19.8065 0.745727 19.8138 0.776314 19.8226 0.803989C19.8313 0.833119 19.8415 0.86225 19.8561 0.892838L19.8051 0.901576C19.7832 0.86225 19.7614 0.825836 19.741 0.792336C19.7206 0.758836 19.6929 0.731162 19.6565 0.709314C19.6201 0.687466 19.572 0.6729 19.5109 0.665618C19.4497 0.658335 19.3667 0.659792 19.2618 0.671444C19.2283 0.675813 19.1933 0.684553 19.1584 0.700575C19.1234 0.716597 19.0914 0.736988 19.0637 0.763205C19.036 0.789423 19.0142 0.821467 18.9982 0.85788C18.9821 0.894294 18.9763 0.936533 18.9821 0.983143C18.9894 1.04432 19.0084 1.09093 19.0389 1.12443C19.0695 1.15793 19.1059 1.18123 19.1467 1.1958C19.1875 1.21036 19.2283 1.2191 19.2705 1.22056C19.3128 1.22201 19.3477 1.22201 19.3769 1.22056C19.4133 1.22056 19.4541 1.22056 19.5021 1.22056C19.5502 1.22056 19.5983 1.22493 19.6492 1.23221C19.7002 1.23949 19.7497 1.24969 19.7993 1.26425C19.8488 1.27882 19.8939 1.29921 19.9347 1.32689C19.9755 1.35456 20.0105 1.38952 20.0381 1.43176C20.0658 1.474 20.0833 1.52643 20.0906 1.5876C20.0993 1.66917 20.092 1.74054 20.0687 1.80172C20.0454 1.86289 20.0105 1.91678 19.9638 1.96194C19.9172 2.00709 19.8619 2.04641 19.7963 2.07846C19.7308 2.1105 19.6623 2.13672 19.5881 2.15857C19.5138 2.18042 19.438 2.19644 19.3608 2.20955C19.2836 2.22266 19.2079 2.23285 19.1351 2.24159" fill="#60041E"/>
</svg>
