<svg width="881" height="651" viewBox="0 0 881 651" fill="none" xmlns="http://www.w3.org/2000/svg">
<path d="M47.5527 313.812H143.295" stroke="#87847D" stroke-width="3.16696" stroke-miterlimit="10" stroke-linecap="round" stroke-linejoin="round"/>
<path d="M166.274 313.812H186.713" stroke="#87847D" stroke-width="3.16696" stroke-miterlimit="10" stroke-linecap="round" stroke-linejoin="round"/>
<path d="M30.2148 286.863H201.613" stroke="#87847D" stroke-width="3.16696" stroke-miterlimit="10" stroke-linecap="round" stroke-linejoin="round"/>
<path d="M16.1076 286.863H2" stroke="#87847D" stroke-width="3.16696" stroke-miterlimit="10" stroke-linecap="round" stroke-linejoin="round"/>
<path d="M30.2148 261.266H87.1188" stroke="#87847D" stroke-width="3.16696" stroke-miterlimit="10" stroke-linecap="round" stroke-linejoin="round"/>
<path d="M102.355 261.266H221.862" stroke="#87847D" stroke-width="3.16696" stroke-miterlimit="10" stroke-linecap="round" stroke-linejoin="round"/>
<path d="M724.314 527.594H826.769" stroke="#87847D" stroke-width="3.16696" stroke-miterlimit="10" stroke-linecap="round" stroke-linejoin="round"/>
<path d="M843.432 527.594H858.251" stroke="#87847D" stroke-width="3.16696" stroke-miterlimit="10" stroke-linecap="round" stroke-linejoin="round"/>
<path d="M744.774 500.645H879.043" stroke="#87847D" stroke-width="3.16696" stroke-miterlimit="10" stroke-linecap="round" stroke-linejoin="round"/>
<path d="M734.544 500.645H724.314" stroke="#87847D" stroke-width="3.16696" stroke-miterlimit="10" stroke-linecap="round" stroke-linejoin="round"/>
<path d="M724.314 475.047H786.036" stroke="#87847D" stroke-width="3.16696" stroke-miterlimit="10" stroke-linecap="round" stroke-linejoin="round"/>
<path d="M797.083 475.047H843.434" stroke="#87847D" stroke-width="3.16696" stroke-miterlimit="10" stroke-linecap="round" stroke-linejoin="round"/>
<path d="M769.022 307.972V286.016" stroke="#87847D" stroke-width="3.16696" stroke-miterlimit="10" stroke-linecap="round" stroke-linejoin="round"/>
<path d="M753.697 314.323L738.173 298.797" stroke="#87847D" stroke-width="3.16696" stroke-miterlimit="10" stroke-linecap="round" stroke-linejoin="round"/>
<path d="M747.351 329.648H725.395" stroke="#87847D" stroke-width="3.16696" stroke-miterlimit="10" stroke-linecap="round" stroke-linejoin="round"/>
<path d="M753.697 344.973L738.173 360.498" stroke="#87847D" stroke-width="3.16696" stroke-miterlimit="10" stroke-linecap="round" stroke-linejoin="round"/>
<path d="M769.022 351.32V373.276" stroke="#87847D" stroke-width="3.16696" stroke-miterlimit="10" stroke-linecap="round" stroke-linejoin="round"/>
<path d="M784.351 344.973L799.876 360.498" stroke="#87847D" stroke-width="3.16696" stroke-miterlimit="10" stroke-linecap="round" stroke-linejoin="round"/>
<path d="M790.699 329.648H812.655" stroke="#87847D" stroke-width="3.16696" stroke-miterlimit="10" stroke-linecap="round" stroke-linejoin="round"/>
<path d="M784.351 314.323L799.876 298.797" stroke="#87847D" stroke-width="3.16696" stroke-miterlimit="10" stroke-linecap="round" stroke-linejoin="round"/>
<path d="M80.3945 417.292V401.422" stroke="#87847D" stroke-width="3.16696" stroke-miterlimit="10" stroke-linecap="round" stroke-linejoin="round"/>
<path d="M69.3125 421.882L58.0908 410.66" stroke="#87847D" stroke-width="3.16696" stroke-miterlimit="10" stroke-linecap="round" stroke-linejoin="round"/>
<path d="M64.7263 432.961H48.8564" stroke="#87847D" stroke-width="3.16696" stroke-miterlimit="10" stroke-linecap="round" stroke-linejoin="round"/>
<path d="M69.3125 444.039L58.0908 455.261" stroke="#87847D" stroke-width="3.16696" stroke-miterlimit="10" stroke-linecap="round" stroke-linejoin="round"/>
<path d="M80.3945 448.633V464.503" stroke="#87847D" stroke-width="3.16696" stroke-miterlimit="10" stroke-linecap="round" stroke-linejoin="round"/>
<path d="M91.4707 444.039L102.692 455.261" stroke="#87847D" stroke-width="3.16696" stroke-miterlimit="10" stroke-linecap="round" stroke-linejoin="round"/>
<path d="M96.0605 432.961H111.932" stroke="#87847D" stroke-width="3.16696" stroke-miterlimit="10" stroke-linecap="round" stroke-linejoin="round"/>
<path d="M91.4707 421.882L102.692 410.66" stroke="#87847D" stroke-width="3.16696" stroke-miterlimit="10" stroke-linecap="round" stroke-linejoin="round"/>
<path d="M509.854 89.489V73.6172" stroke="#87847D" stroke-width="3.16696" stroke-miterlimit="10" stroke-linecap="round" stroke-linejoin="round"/>
<path d="M498.773 94.0771L487.552 82.8555" stroke="#87847D" stroke-width="3.16696" stroke-miterlimit="10" stroke-linecap="round" stroke-linejoin="round"/>
<path d="M494.187 105.156H478.317" stroke="#87847D" stroke-width="3.16696" stroke-miterlimit="10" stroke-linecap="round" stroke-linejoin="round"/>
<path d="M498.773 116.234L487.552 127.456" stroke="#87847D" stroke-width="3.16696" stroke-miterlimit="10" stroke-linecap="round" stroke-linejoin="round"/>
<path d="M509.854 120.824V136.694" stroke="#87847D" stroke-width="3.16696" stroke-miterlimit="10" stroke-linecap="round" stroke-linejoin="round"/>
<path d="M520.932 116.234L532.153 127.456" stroke="#87847D" stroke-width="3.16696" stroke-miterlimit="10" stroke-linecap="round" stroke-linejoin="round"/>
<path d="M525.522 105.156H541.392" stroke="#87847D" stroke-width="3.16696" stroke-miterlimit="10" stroke-linecap="round" stroke-linejoin="round"/>
<path d="M520.932 94.0771L532.153 82.8555" stroke="#87847D" stroke-width="3.16696" stroke-miterlimit="10" stroke-linecap="round" stroke-linejoin="round"/>
<path d="M201.615 222.641V153.965H558.618V306.557" stroke="#87847D" stroke-width="3.16696" stroke-miterlimit="10" stroke-linecap="round" stroke-linejoin="round"/>
<path d="M432.786 105.156V191.139H669.527V230.257" stroke="#87847D" stroke-width="3.16696" stroke-miterlimit="10" stroke-linecap="round" stroke-linejoin="round"/>
<path d="M210.133 231.159C210.133 235.865 206.318 239.678 201.614 239.678C196.909 239.678 193.096 235.863 193.096 231.159C193.096 226.455 196.91 222.641 201.614 222.641C206.32 222.641 210.133 226.453 210.133 231.159Z" stroke="#87847D" stroke-width="3.16696" stroke-miterlimit="10" stroke-linecap="round" stroke-linejoin="round"/>
<path d="M432.785 105.155C437.49 105.155 441.304 101.341 441.304 96.6359C441.304 91.9311 437.49 88.1172 432.785 88.1172C428.081 88.1172 424.267 91.9311 424.267 96.6359C424.267 101.341 428.081 105.155 432.785 105.155Z" stroke="#87847D" stroke-width="3.16696" stroke-miterlimit="10" stroke-linecap="round" stroke-linejoin="round"/>
<path d="M678.047 239.675C678.047 244.379 674.232 248.194 669.528 248.194C664.823 248.194 661.01 244.379 661.01 239.675C661.01 234.969 664.825 231.156 669.528 231.156C674.232 231.156 678.047 234.971 678.047 239.675Z" stroke="#87847D" stroke-width="3.16696" stroke-miterlimit="10" stroke-linecap="round" stroke-linejoin="round"/>
<path d="M567.137 316.487C567.137 321.191 563.322 325.006 558.618 325.006C553.914 325.006 550.1 321.191 550.1 316.487C550.1 311.782 553.914 307.969 558.618 307.969C563.322 307.969 567.137 311.784 567.137 316.487Z" stroke="#87847D" stroke-width="3.16696" stroke-miterlimit="10" stroke-linecap="round" stroke-linejoin="round"/>
<path d="M146.098 487.105L125.942 507.262" stroke="#87847D" stroke-width="3.16696" stroke-miterlimit="10" stroke-linecap="round" stroke-linejoin="round"/>
<path d="M125.942 487.105L146.098 507.262" stroke="#87847D" stroke-width="3.16696" stroke-miterlimit="10" stroke-linecap="round" stroke-linejoin="round"/>
<path d="M156.176 194.398L136.02 214.556" stroke="#87847D" stroke-width="3.16696" stroke-miterlimit="10" stroke-linecap="round" stroke-linejoin="round"/>
<path d="M136.02 194.398L156.176 214.556" stroke="#87847D" stroke-width="3.16696" stroke-miterlimit="10" stroke-linecap="round" stroke-linejoin="round"/>
<path d="M809.955 422.887L789.797 443.045" stroke="#87847D" stroke-width="3.16696" stroke-miterlimit="10" stroke-linecap="round" stroke-linejoin="round"/>
<path d="M789.797 422.887L809.955 443.045" stroke="#87847D" stroke-width="3.16696" stroke-miterlimit="10" stroke-linecap="round" stroke-linejoin="round"/>
<path d="M237.938 79.3621C231.51 79.3621 225.627 81.6753 221.058 85.506C216.392 71.46 203.169 61.3203 187.558 61.3203C170.081 61.3203 155.606 74.0277 152.777 90.6992C150.936 90.1721 148.996 89.8717 146.984 89.8717C135.362 89.8717 125.942 99.2934 125.942 110.913C125.942 121.604 133.922 130.411 144.245 131.757V131.956H237.938C252.462 131.956 264.236 120.183 264.236 105.658C264.236 91.1367 252.462 79.3621 237.938 79.3621Z" stroke="#87847D" stroke-width="3.31133" stroke-miterlimit="10" stroke-linecap="round" stroke-linejoin="round"/>
<path d="M725.499 213.131C730.169 213.131 734.444 214.811 737.763 217.594C741.152 207.391 750.759 200.023 762.1 200.023C774.798 200.023 785.313 209.256 787.368 221.367C788.706 220.983 790.114 220.766 791.576 220.766C800.019 220.766 806.863 227.61 806.863 236.053C806.863 243.82 801.068 250.219 793.567 251.195V251.338H725.501C714.95 251.338 706.397 242.784 706.397 232.235C706.397 221.685 714.948 213.131 725.499 213.131Z" stroke="#87847D" stroke-width="3.16696" stroke-miterlimit="10" stroke-linecap="round" stroke-linejoin="round"/>
<path d="M819.346 574.516C815.43 574.516 811.846 575.927 809.062 578.26C806.219 569.703 798.162 563.523 788.651 563.523C778.002 563.523 769.183 571.266 767.461 581.424C766.339 581.104 765.157 580.921 763.93 580.921C756.85 580.921 751.109 586.661 751.109 593.742C751.109 600.255 755.97 605.622 762.261 606.441V606.562H819.344C828.193 606.562 835.367 599.39 835.367 590.541C835.367 581.691 828.195 574.516 819.346 574.516Z" stroke="#87847D" stroke-width="3.16696" stroke-miterlimit="10" stroke-linecap="round" stroke-linejoin="round"/>
<path d="M44.5775 540.701C49.2476 540.701 53.5219 542.382 56.8414 545.164C60.2306 534.961 69.8372 527.594 81.1783 527.594C93.8757 527.594 104.391 536.827 106.446 548.937C107.784 548.553 109.193 548.337 110.655 548.337C119.098 548.337 125.942 555.181 125.942 563.624C125.942 571.391 120.146 577.789 112.645 578.766V578.909H44.5775C34.0261 578.909 25.4736 570.356 25.4736 559.805C25.4736 549.253 34.0261 540.701 44.5775 540.701Z" stroke="#87847D" stroke-width="3.16696" stroke-miterlimit="10" stroke-linecap="round" stroke-linejoin="round"/>
<path d="M264.234 66.7457C264.234 66.7457 384.447 -31.264 547.78 13.8893C719.353 61.3198 753.698 183.66 753.698 183.66" stroke="#87847D" stroke-width="3.16696" stroke-miterlimit="10" stroke-linecap="round" stroke-linejoin="round" stroke-dasharray="4.78 11.16"/>
<path d="M82.7264 351.609C36.1232 358.837 12.6953 457.746 65.1162 497.01" stroke="#87847D" stroke-width="2.95288" stroke-miterlimit="10" stroke-linecap="round" stroke-linejoin="round" stroke-dasharray="4.46 10.41"/>
<path d="M669.528 636.996C669.528 636.996 749.361 671.895 784.355 623.207" stroke="#87847D" stroke-width="3.16696" stroke-miterlimit="10" stroke-linecap="round" stroke-linejoin="round" stroke-dasharray="4.78 11.16"/>
<path d="M289.735 239.678V189.266" stroke="#87847D" stroke-width="3.16696" stroke-miterlimit="10" stroke-linecap="round" stroke-linejoin="round"/>
<path d="M277.566 239.677V214.559" stroke="#87847D" stroke-width="3.16696" stroke-miterlimit="10" stroke-linecap="round" stroke-linejoin="round"/>
<path d="M475.021 251.338V214.469" stroke="#87847D" stroke-width="3.16696" stroke-miterlimit="10" stroke-linecap="round" stroke-linejoin="round"/>
<path d="M461.196 248.197V232.906" stroke="#87847D" stroke-width="3.16696" stroke-miterlimit="10" stroke-linecap="round" stroke-linejoin="round"/>
<path d="M448.934 248.197V222.641" stroke="#87847D" stroke-width="3.16696" stroke-miterlimit="10" stroke-linecap="round" stroke-linejoin="round"/>
<path d="M301.431 239.675V214.469" stroke="#87847D" stroke-width="3.16696" stroke-miterlimit="10" stroke-linecap="round" stroke-linejoin="round"/>
<path d="M635.578 246.695V235.418" stroke="#87847D" stroke-width="3.16696" stroke-miterlimit="10" stroke-linecap="round" stroke-linejoin="round"/>
<path d="M623.409 246.694V219.227" stroke="#87847D" stroke-width="3.16696" stroke-miterlimit="10" stroke-linecap="round" stroke-linejoin="round"/>
<path d="M647.275 246.693V227.074" stroke="#87847D" stroke-width="3.16696" stroke-miterlimit="10" stroke-linecap="round" stroke-linejoin="round"/>
</svg>
