<svg width="175" height="48" viewBox="0 0 175 48" fill="none" xmlns="http://www.w3.org/2000/svg">
<path d="M20.3862 21.3069C20.3994 21.3026 20.4139 21.2967 20.427 21.2924C20.4562 21.2822 20.4853 21.2705 20.5144 21.2603C20.6848 21.1962 20.8553 21.1351 21.0286 21.0841C21.333 20.9938 21.6418 20.9253 21.9549 20.8671C22.2666 20.8088 22.5827 20.7666 22.8973 20.7374C23.2017 20.7097 23.5105 20.6966 23.8178 20.6937C24.1354 20.6937 24.4544 20.7025 24.769 20.7287C25.085 20.7534 25.4011 20.7942 25.7128 20.851C26.0245 20.9078 26.3347 20.9807 26.6392 21.0681C26.7295 21.0943 26.8183 21.1219 26.9072 21.1525C26.9101 21.1525 26.913 21.154 26.9174 21.1554C27.0776 21.2093 27.2392 21.2691 27.4024 21.3259C27.4388 21.339 27.4738 21.3506 27.5116 21.3637C27.5218 21.3666 27.5306 21.3696 27.5408 21.3739C27.5699 21.3069 27.5976 21.253 27.6179 21.1962C27.6646 21.0724 27.7068 20.9472 27.7621 20.7971C27.6413 20.7272 27.5218 20.6704 27.4038 20.6238C27.2684 20.5685 27.1344 20.5248 26.9975 20.4869C26.0376 20.216 25.0574 20.0718 24.0582 20.0456C22.9337 20.0164 21.8326 20.1781 20.7504 20.4825C20.6295 20.516 20.5071 20.5524 20.3892 20.5918C20.2187 20.65 20.0512 20.7141 19.8925 20.7971C19.9682 21.1569 20.0119 21.2632 20.1314 21.4001C20.2187 21.3681 20.3032 21.3375 20.3892 21.304" fill="#60041E"/>
<path d="M43.0441 31.3978C42.9975 31.258 42.9203 31.1327 42.7951 31.0555C42.4135 30.8167 42.0333 30.5705 41.6371 30.3549C41.4536 30.253 41.2438 30.2821 41.0574 30.4132C41.0793 30.6229 41.2089 30.8021 41.1914 31.0264C41.1375 31.0322 40.5899 31.1618 40.5141 31.1808C39.0692 31.5333 37.6375 31.928 36.2203 32.3795C35.8037 32.5121 35.3886 32.649 34.9749 32.7903C33.6422 33.2447 32.3269 33.7443 31.0262 34.2876C30.8791 34.3488 30.7335 34.4114 30.5878 34.474C30.2266 34.6284 29.8654 34.7843 29.5085 34.9445C29.258 35.0581 29.0075 35.1732 28.7584 35.2897C27.5131 35.8752 26.2925 36.5132 25.1069 37.2225C25.0006 37.2866 24.8971 37.3521 24.7937 37.4191C24.7588 37.441 24.7253 37.4643 24.6903 37.4861C24.6903 37.4847 24.6889 37.4818 24.6874 37.4803C24.6859 37.4759 24.6845 37.4716 24.683 37.4687C25.0981 37.0841 28.4147 34.1492 34.8016 32.1363C34.6705 31.6862 34.5117 31.2492 34.3282 30.8239C33.1251 31.1954 31.8317 31.6702 30.5602 32.263C29.3367 32.8325 28.135 33.5098 27.0557 34.3109C26.6829 34.5862 26.3245 34.8775 25.9852 35.1833C25.9764 35.1426 25.9692 35.1163 25.9677 35.1032C25.9677 35.0989 25.9677 35.096 25.9677 35.0945C26.0114 35.0508 26.0536 35.0071 26.0973 34.962C26.141 34.9183 26.1833 34.8731 26.227 34.8294C26.3129 34.742 26.4003 34.6561 26.492 34.5745C26.5547 34.5192 26.6173 34.4638 26.6814 34.4085C26.76 34.34 26.8387 34.273 26.9188 34.206C27.1708 33.9948 27.4271 33.7924 27.6879 33.5943C27.9253 33.4137 28.1656 33.2374 28.4103 33.0699C28.5807 32.9519 28.754 32.8383 28.9288 32.7262C29.2769 32.5033 29.6323 32.2921 29.995 32.0926C30.1756 31.9935 30.3592 31.8959 30.5427 31.8027C30.7277 31.7081 30.9126 31.6177 31.1005 31.5289C31.4457 31.3658 31.7953 31.2128 32.1521 31.0701C32.3298 30.9987 32.509 30.9288 32.6911 30.8618C32.8731 30.7948 33.0537 30.7307 33.2373 30.6681C33.5329 30.5676 33.8315 30.4729 34.1301 30.3841C35.4337 29.9966 36.7606 29.7155 38.1167 29.5582C38.4094 29.5247 38.7007 29.4766 38.9935 29.4359C38.9935 29.4227 38.992 29.4111 38.9906 29.3994C38.8377 29.3994 38.6847 29.3922 38.5318 29.3994C37.9783 29.43 37.4263 29.4621 36.8728 29.4999C35.9712 29.5626 35.0798 29.698 34.1942 29.8786C34.0966 29.8976 34.0005 29.9194 33.9044 29.9398C33.6524 29.9952 33.4019 30.0549 33.1528 30.119C32.9037 30.1831 32.6576 30.2515 32.4114 30.3258C32.2891 30.3622 32.1667 30.4001 32.0444 30.4394C31.6788 30.5574 31.3176 30.6856 30.9607 30.8239C30.464 31.0162 29.9761 31.2303 29.4983 31.4663C29.0191 31.7022 28.5487 31.9615 28.087 32.2441C27.5757 32.5572 27.0834 32.8922 26.6115 33.2505C26.4542 33.37 26.2983 33.4923 26.1454 33.6161C25.621 34.0429 25.1244 34.5002 24.6554 34.9896C24.4675 35.1848 24.2854 35.3858 24.1062 35.5926C24.0174 35.6961 23.9285 35.8009 23.8412 35.9058C23.4042 36.4374 23.0109 36.9996 22.6439 37.5808C22.5696 37.6973 22.4895 37.7614 22.3846 37.7818C22.303 37.7978 22.2069 37.7876 22.0846 37.7527C22.1064 37.6303 22.1545 37.5182 22.2157 37.4148C22.236 37.3798 22.2579 37.3463 22.2827 37.3128C22.6104 36.8482 22.9323 36.3763 23.2629 35.9145C23.3736 35.7601 23.4858 35.6072 23.5979 35.4557C24.0523 34.8469 24.5461 34.2774 25.0763 33.7443C25.1651 33.6554 25.254 33.568 25.3458 33.4807C25.4375 33.3933 25.5278 33.3073 25.621 33.2228C25.9298 32.9388 26.2503 32.6665 26.5824 32.4057C27.2203 31.9032 27.886 31.4502 28.5793 31.0453C29.2726 30.6404 29.9936 30.2806 30.7364 29.966C30.9155 29.8903 31.0947 29.816 31.2753 29.7446C31.9628 29.4752 32.659 29.2378 33.3596 29.0295C35.2284 28.476 37.1466 28.1424 39.11 28.0245C39.2542 28.0157 39.397 28.0128 39.5412 28.0128C40.0655 28.0172 40.587 28.0259 41.1113 28.0303C41.1565 28.0303 41.2162 28.0521 41.2468 27.9837C41.2351 27.9604 41.2264 27.9298 41.2089 27.9094C39.4028 25.8615 37.5967 23.8151 35.7906 21.7701C35.7644 21.7395 35.7294 21.7177 35.7046 21.6944C35.3973 21.757 34.7288 22.0148 34.5132 22.1575C34.6006 22.2595 34.6851 22.3615 34.7725 22.4605C34.8598 22.5625 34.9487 22.6615 35.0375 22.7605C35.1264 22.8596 35.2167 22.9586 35.3056 23.0577C35.3944 23.1582 35.4818 23.2587 35.5706 23.3577C35.6595 23.4582 35.7469 23.5587 35.8357 23.6578L36.1008 23.9578C36.1897 24.0583 36.2756 24.1588 36.3645 24.2579C36.4533 24.3584 36.5422 24.4574 36.631 24.5565C36.7184 24.657 36.8058 24.7575 36.8946 24.8565C36.9762 24.9483 37.0607 25.04 37.1422 25.1318C37.2311 25.2308 37.317 25.3342 37.4044 25.4347C37.4918 25.5352 37.5821 25.6328 37.671 25.7333C37.7584 25.8338 37.8458 25.9343 37.9346 26.0334C38.0235 26.1339 38.1138 26.2329 38.1997 26.3334C38.2885 26.4339 38.3745 26.5344 38.4619 26.6349C38.5507 26.7354 38.641 26.8345 38.7284 26.935C38.8173 27.034 38.9061 27.1345 38.9935 27.235C39.0824 27.3355 39.1727 27.4331 39.2542 27.538C39.3343 27.6385 39.4509 27.7128 39.5018 27.8686C39.3751 27.8686 39.2746 27.8686 39.1741 27.8686C38.0773 27.8526 36.9791 27.8104 35.8838 27.9269C35.4556 27.972 35.0274 28.0114 34.602 28.0798C34.066 28.1687 33.5359 28.2837 33.0028 28.3871C32.9751 28.393 32.946 28.3944 32.9139 28.3944C32.8702 28.3376 32.828 28.2808 32.7828 28.2255C32.7624 26.7587 32.7755 25.3051 32.7785 23.8544C32.8149 23.7539 32.8367 23.6418 32.8367 23.5281V23.4116C32.9897 23.3111 33.0173 23.1553 33.0406 22.998C32.9751 22.963 32.9066 22.931 32.8367 22.9004C31.6613 22.3891 29.9397 22.4328 28.9026 22.8727C28.7919 22.9179 28.69 22.9688 28.5982 23.0242C28.6885 23.1392 28.6579 23.3126 28.8138 23.4058C28.8487 23.4262 28.8691 23.4888 28.8749 23.5354C28.8851 23.6257 28.8808 23.7189 28.8808 23.8122C28.8822 24.2156 28.8837 24.6205 28.8866 25.0255C28.3885 24.772 27.8714 24.5535 27.3354 24.3729V21.6448C27.2422 21.6099 27.1387 21.5662 27.0324 21.5312C26.9523 21.5036 26.8707 21.4773 26.7892 21.454C25.8643 21.1758 24.9088 21.0724 23.946 21.0404C23.4319 21.0229 22.9221 21.0812 22.4123 21.1423C21.7947 21.2181 21.1932 21.3579 20.6076 21.5691C20.5989 21.572 20.5887 21.5749 20.58 21.5793C20.5173 21.6026 20.4591 21.6346 20.3862 21.6696C20.3761 21.6754 20.3673 21.6798 20.3557 21.6842C20.3498 22.5333 20.3324 23.3767 20.3222 24.2287C19.7366 24.3992 19.17 24.6147 18.6267 24.8725C18.6369 24.7895 18.6617 24.7138 18.7273 24.6453C18.8278 24.539 18.8554 24.3962 18.8816 24.2433C18.6602 24.1166 18.4272 24.0423 18.1912 23.9797C17.814 23.8792 17.4295 23.8165 17.0391 23.7947C16.9124 23.7889 16.793 23.767 16.7041 23.6709C16.6983 23.6636 16.5861 23.5864 16.4157 23.467C16.4521 23.467 16.49 23.467 16.5279 23.467C17.3406 23.467 18.1097 23.5981 18.7433 23.8442C18.752 23.8471 18.7607 23.85 18.7695 23.8544V22.6047C18.7695 22.577 18.7695 22.5523 18.768 22.5246C18.7622 22.2114 18.7287 21.9201 18.6646 21.6478V21.6448C18.6064 21.3929 18.5248 21.1627 18.4141 20.9486C18.283 20.6923 18.114 20.4621 17.9043 20.2626C17.7237 20.0922 17.5271 19.9523 17.3465 19.7819C17.3246 19.7615 17.3028 19.7411 17.2809 19.7193C17.144 19.5882 17.01 19.4469 16.8847 19.2969C16.8731 19.2823 16.8614 19.2692 16.8498 19.2561C16.7697 19.1585 16.7158 19.0202 16.6546 18.9051C16.5992 18.8978 16.5395 18.8847 16.4769 18.8862C16.4798 18.892 16.4827 18.8964 16.4856 18.9022C16.4652 18.9473 16.4434 18.9939 16.4201 19.0391C16.4055 19.0697 16.3895 19.1003 16.3735 19.1294C16.3283 19.2081 16.2803 19.2794 16.2293 19.3464C16.1011 19.5168 15.954 19.6567 15.7996 19.7863C15.6525 19.9086 15.5039 20.0295 15.3583 20.1533C14.9286 20.5233 14.6358 21.004 14.4902 21.5939C14.4494 21.7512 14.4203 21.9172 14.4013 22.0905C12.9171 21.2996 11.347 20.8816 9.67342 20.8612C9.76518 20.8991 10.2764 21.0156 10.4352 21.0549C11.5538 21.3215 12.5836 21.7978 13.558 22.4008C13.8362 22.5727 14.1057 22.7547 14.3664 22.9455C14.6489 23.1524 14.9213 23.3694 15.185 23.5981C15.9089 24.22 16.5658 24.9162 17.1688 25.6678C17.1746 25.6736 17.179 25.6824 17.1848 25.6882C17.581 26.1834 17.948 26.6947 18.2874 27.2219C18.3558 27.3268 18.4228 27.4331 18.4884 27.5409C19.1453 28.6085 19.6988 29.7359 20.1692 30.9099C20.4605 31.6367 20.7111 32.3766 20.931 33.1267C21.0621 33.5768 21.1815 34.0312 21.2922 34.4871C21.4685 35.2154 21.6345 35.9451 21.7554 36.6836C21.7598 36.7156 21.767 36.7477 21.7656 36.7841C21.7656 36.7928 21.7656 36.8016 21.7641 36.8118C21.7598 36.8394 21.751 36.87 21.7321 36.9035C21.6928 36.8321 21.6651 36.7899 21.6461 36.7448C21.5194 36.4651 21.3971 36.1811 21.2689 35.9029C21.2267 35.8097 21.1815 35.7164 21.1364 35.6247C20.7227 34.7813 20.178 34.0225 19.5779 33.3059C18.7884 32.3649 17.8927 31.5493 16.8935 30.8603C16.5599 30.6302 16.2147 30.4146 15.8593 30.2122C15.1689 29.8204 14.4567 29.4941 13.727 29.2203C12.5064 28.7644 11.2392 28.4571 9.93851 28.2444C9.34133 28.1454 8.74123 28.0711 8.13677 28.0405C7.43035 28.0041 6.72248 27.9516 6.01606 27.9487C5.34022 27.9473 4.66293 28.0026 3.9871 28.0318C3.95651 28.0318 3.92593 28.0318 3.89534 28.0303C3.82397 28.0245 3.79192 27.9531 3.83708 27.8963C3.98127 27.7215 4.12693 27.5496 4.27404 27.3778C5.41159 26.029 6.5506 24.6817 7.68816 23.3301C8.03045 22.9222 8.36691 22.5057 8.70337 22.092C8.75143 22.0323 8.82717 21.9798 8.80532 21.8837C8.46595 21.7148 7.96199 21.5443 7.72457 21.5196C5.94177 23.7306 4.10654 25.911 2.33539 28.1483C2.37326 28.1658 2.39074 28.1803 2.40676 28.1803C3.21659 28.157 4.02497 28.1323 4.83626 28.1905C5.5922 28.2444 6.34815 28.31 7.09972 28.409C8.04501 28.5328 8.98011 28.7134 9.90646 28.9479C11.0484 29.2378 12.1685 29.5917 13.2565 30.0403C13.373 30.0869 13.4881 30.1364 13.6032 30.186C13.877 30.3039 14.1479 30.4292 14.4144 30.5603C16.2759 31.4735 17.9305 32.6854 19.3594 34.2162C19.5677 34.4405 19.7701 34.6692 19.9653 34.9037C20.2581 35.2547 20.5392 35.6159 20.8101 35.9859C21.081 36.3544 21.3417 36.7302 21.5981 37.1103C21.652 37.1905 21.7015 37.2749 21.7481 37.3609C21.7947 37.4468 21.8399 37.5342 21.885 37.6201C21.8908 37.6318 21.8967 37.6449 21.901 37.6595C21.9142 37.7002 21.9185 37.7483 21.9316 37.7993C21.7467 37.824 21.5908 37.808 21.4699 37.7177C21.4466 37.7002 21.4248 37.6799 21.4044 37.658C21.3738 37.6245 21.3461 37.5852 21.3213 37.5371C21.2762 37.4468 21.2092 37.3667 21.1538 37.2808C20.8625 36.8336 20.5523 36.4068 20.2246 36.0005C20.0061 35.7281 19.7803 35.4659 19.5473 35.211C19.4308 35.0843 19.3128 34.959 19.1919 34.8352C18.3966 34.0225 17.5183 33.3015 16.5672 32.665C16.4536 32.5893 16.3385 32.5135 16.222 32.4392C15.9846 32.2878 15.7443 32.1406 15.4981 31.9994C15.3452 31.912 15.1908 31.826 15.0349 31.743C14.3402 31.3701 13.6308 31.0482 12.9055 30.773C11.4518 30.2224 9.93997 29.8568 8.38147 29.6427C7.61825 29.5378 6.85211 29.4723 6.08451 29.4169C5.74077 29.3922 5.39411 29.382 5.04892 29.414C5.20913 29.4519 5.36935 29.4825 5.52957 29.5029C6.31319 29.5975 7.09098 29.7286 7.86586 29.8888C9.51466 30.2253 11.1096 30.7293 12.6418 31.424C12.6564 31.4299 12.671 31.4371 12.6855 31.443C12.9069 31.5435 13.1269 31.6498 13.3439 31.7576C14.8645 32.5193 16.2642 33.4675 17.5314 34.6168C17.6188 34.6954 17.7033 34.7784 17.7863 34.8615C17.8694 34.9445 17.9509 35.0304 18.0325 35.1149C18.05 35.1324 18.0762 35.1513 18.082 35.179C18.0835 35.1877 18.0835 35.1994 18.0805 35.211C16.4929 33.7749 14.4887 32.6665 12.4991 31.8362C12.3549 32.2776 12.2369 32.732 12.1466 33.1952C16.6866 35.0712 19.0593 37.1948 19.3652 37.4803C19.3652 37.4847 19.3638 37.4905 19.3608 37.4949C18.9778 37.2735 18.6005 37.0492 18.2204 36.8307C18.0937 36.7579 17.9669 36.6865 17.8388 36.6166C15.9627 35.581 14.0197 34.6867 12.0316 33.8972C11.8844 33.8375 11.7373 33.7792 11.5902 33.7224C9.42872 32.882 7.23372 32.1436 4.99939 31.5245C4.24782 31.3162 3.49479 31.1254 2.7403 30.9273C2.71263 30.9201 2.68933 30.8968 2.66019 30.8778C2.65291 30.6506 2.78983 30.4511 2.79711 30.2195C2.60485 30.1161 2.4155 30.0913 2.23343 30.1947C1.87658 30.3972 1.52555 30.6084 1.17744 30.8254C1.08422 30.8837 0.993917 30.9667 0.942938 31.0613C0.827872 31.2769 0.768154 31.5129 0.739023 31.7736C0.852633 31.7984 0.950221 31.8275 1.04927 31.8421C1.84162 31.9557 2.62378 32.1217 3.40012 32.3169C5.00231 32.7174 6.57245 33.2272 8.12075 33.7982C9.40687 34.2716 10.6784 34.7828 11.9311 35.329C12.1714 35.4339 12.4103 35.5387 12.6491 35.6465C14.3227 36.3952 15.9686 37.2065 17.5882 38.0746C17.9538 38.2712 18.3151 38.4751 18.669 38.6921C18.9341 38.8553 19.1948 39.0257 19.4482 39.2078C19.5327 39.2675 19.6172 39.3301 19.7002 39.3927C19.7628 39.4393 19.8269 39.483 19.8925 39.5224C20.025 39.601 20.1634 39.6651 20.3076 39.719C20.3804 39.7452 20.4532 39.77 20.5275 39.7918C20.7358 39.853 20.9441 39.9011 21.1538 39.9346C21.3636 39.9681 21.5733 39.9899 21.7831 39.9972C21.9928 40.0045 22.204 39.9972 22.4167 39.9797C22.6279 39.9608 22.8405 39.9273 23.0517 39.8821C23.2338 39.8428 23.4129 39.7962 23.5877 39.735C23.7756 39.6695 23.9577 39.5879 24.1295 39.4801C24.1762 39.451 24.2228 39.419 24.2679 39.3855C24.482 39.2267 24.702 39.0781 24.9248 38.9354C25.2977 38.698 25.6822 38.4795 26.0682 38.2654C27.7257 37.3492 29.4211 36.5117 31.1501 35.7412C31.4384 35.613 31.7268 35.4863 32.0167 35.361C32.3065 35.2358 32.5964 35.1134 32.8877 34.9925C32.9984 34.9459 33.1105 34.9022 33.2212 34.8556C33.8781 34.5847 34.5365 34.3211 35.2007 34.072C36.4577 33.6001 37.7307 33.1733 39.027 32.8121C40.351 32.4436 41.6866 32.1217 43.0558 31.9659C43.0922 31.9615 43.1272 31.9353 43.1621 31.9193C43.1621 31.7299 43.1009 31.5668 43.047 31.4036" fill="#60041E"/>
<path d="M32.8367 22.5508V21.4351C32.8367 21.4118 32.8367 21.3885 32.8352 21.3637C32.8207 20.5189 32.5745 19.8329 32.0633 19.345C31.9016 19.192 31.7268 19.0668 31.5651 18.9153C31.4108 18.7711 31.2622 18.6138 31.1224 18.4448C31.0495 18.3574 31.0015 18.2307 30.9461 18.1258C30.9578 18.1069 30.968 18.0909 30.9767 18.0749C30.917 18.0938 30.8573 18.1287 30.7888 18.1462C30.7597 18.2074 30.7306 18.2715 30.6971 18.3297C30.5572 18.5774 30.3752 18.7551 30.1843 18.9167C30.0533 19.026 29.9193 19.1338 29.7896 19.2445C29.2361 19.7207 28.9405 20.4024 28.9128 21.2851C28.9128 21.3302 28.9113 21.3739 28.9113 21.4205C28.9113 21.4569 28.9113 21.489 28.9055 21.5196V22.5231C29.443 22.3192 30.1203 22.2056 30.8383 22.2056C31.5564 22.2056 32.2687 22.3265 32.8396 22.5508" fill="#60041E"/>
<path d="M23.7945 19.7164C23.8834 19.7164 23.9737 19.7164 24.064 19.7193C25.0967 19.747 26.1133 19.8984 27.0834 20.1723C27.197 20.2043 27.3019 20.2378 27.4009 20.2742V19.0187C27.4009 18.9779 27.4009 18.9357 27.3995 18.8934C27.3718 17.3874 26.9348 16.1639 26.0216 15.2929C25.7346 15.0191 25.4215 14.7977 25.1345 14.5253C24.8607 14.2675 24.5942 13.9878 24.3436 13.6863C24.214 13.529 24.131 13.3047 24.0305 13.1183C24.0552 13.0789 23.7523 13.1008 23.7654 13.1226C23.7071 13.2406 23.6518 13.3659 23.5862 13.4824C23.3372 13.9237 23.0153 14.2427 22.6715 14.5282C22.437 14.7248 22.1996 14.9142 21.968 15.1137C20.9805 15.9614 20.4547 17.1791 20.4052 18.7536C20.4023 18.8337 20.4008 18.9124 20.4008 18.9925C20.4008 19.058 20.3979 19.1163 20.3891 19.1687V20.248C20.4809 20.2189 20.5727 20.1927 20.663 20.1679C21.7292 19.8679 22.7837 19.7149 23.7974 19.7149" fill="#60041E"/>
<path d="M40.1966 30.8458C38.2041 31.1793 36.4067 31.6279 34.803 32.1333C28.4161 34.1477 25.0981 37.0812 24.6845 37.4657C24.683 37.4672 24.6787 37.4701 24.6772 37.473C24.6685 37.4803 24.6612 37.4876 24.6554 37.4919C24.6452 37.5021 24.6408 37.5065 24.6408 37.5065C24.6408 37.5065 20.9965 39.7918 25.8555 35.2984C25.8992 35.2576 25.9429 35.2183 25.9866 35.179C26.326 34.8731 26.6843 34.5818 27.0572 34.3065C28.1365 33.5069 29.3381 32.8281 30.5631 32.2586C31.8346 31.6673 33.128 31.191 34.3297 30.8195C37.3301 29.8903 39.7626 29.6048 39.8645 29.7461C40.0611 30.0199 40.1981 30.8429 40.1981 30.8429" fill="#A48640"/>
<path d="M19.3958 37.508C19.3958 37.508 19.3856 37.4963 19.3608 37.4759C19.0535 37.1905 16.6823 35.0668 12.1422 33.1908C9.90499 32.2659 7.14194 31.4007 3.83852 30.8472C3.83852 30.8472 3.97543 30.0243 4.17207 29.7505C4.30316 29.5669 8.36689 30.1044 12.4947 31.8304C14.4843 32.6621 16.49 33.7705 18.0762 35.2066C18.1111 35.2387 18.1461 35.2693 18.181 35.3013C23.04 39.7947 19.3958 37.5094 19.3958 37.5094" fill="#A48640"/>
<path d="M24.45 11.8452V12.0025C24.45 12.0462 24.415 12.0812 24.3713 12.0812H23.4304C23.3867 12.0812 23.3518 12.0462 23.3518 12.0025V11.8452C23.3518 11.8015 23.3867 11.7666 23.4304 11.7666H24.3713C24.415 11.7666 24.45 11.8015 24.45 11.8452Z" fill="#60041E"/>
<path d="M23.9708 13.6091H23.847C23.7945 13.6091 23.7523 13.5669 23.7523 13.5144V11.4054C23.7523 11.3529 23.7945 11.3107 23.847 11.3107H23.9708C24.0232 11.3107 24.0655 11.3529 24.0655 11.4054V13.5144C24.0655 13.5669 24.0232 13.6091 23.9708 13.6091Z" fill="#60041E"/>
<path d="M31.3263 17.3393V17.4718C31.3263 17.5083 31.2971 17.5374 31.2607 17.5374H30.4669C30.4305 17.5374 30.4014 17.5083 30.4014 17.4718V17.3393C30.4014 17.3029 30.4305 17.2738 30.4669 17.2738H31.2607C31.2971 17.2738 31.3263 17.3029 31.3263 17.3393Z" fill="#60041E"/>
<path d="M30.9214 18.8279H30.8165C30.7728 18.8279 30.7364 18.7915 30.7364 18.7478V16.9679C30.7364 16.9242 30.7713 16.8878 30.8165 16.8878H30.9214C30.9651 16.8878 31.0015 16.9242 31.0015 16.9679V18.7478C31.0015 18.7915 30.9651 18.8279 30.9214 18.8279Z" fill="#60041E"/>
<path d="M17.0362 17.9933V18.1259C17.0362 18.1623 17.0071 18.1914 16.9707 18.1914H16.1768C16.1404 18.1914 16.1113 18.1623 16.1113 18.1259V17.9933C16.1113 17.9569 16.1404 17.9278 16.1768 17.9278H16.9707C17.0071 17.9278 17.0362 17.9569 17.0362 17.9933Z" fill="#60041E"/>
<path d="M16.6313 19.4804H16.5264C16.4827 19.4804 16.4463 19.444 16.4463 19.4003V17.6204C16.4463 17.5767 16.4813 17.5403 16.5264 17.5403H16.6313C16.675 17.5403 16.7114 17.5767 16.7114 17.6204V19.4003C16.7114 19.444 16.675 19.4804 16.6313 19.4804Z" fill="#60041E"/>
<path d="M1.91735 20.9515C0.540925 23.933 -0.152386 27.2379 0.0282241 30.6244C0.176791 27.3151 1.058 24.1253 2.55532 21.269L1.91881 20.9501L1.91735 20.9515Z" fill="#A48640"/>
<path d="M40.048 18.3545C35.7949 11.6807 28.3506 8.02187 20.7591 8.34085L20.8625 9.64591C21.1393 9.63426 21.4146 9.62697 21.684 9.62406C28.5895 9.55852 35.3915 13.1343 39.3329 18.8323C41.7682 22.277 43.1286 26.3859 43.3383 30.6244C43.5626 26.3538 42.3639 21.9755 40.0466 18.3545" fill="#A48640"/>
<path d="M3.08403 18.4084L3.05199 18.4681C2.98353 18.4609 2.91653 18.4652 2.85099 18.4798C2.78544 18.4944 2.72281 18.5177 2.66455 18.5497C2.60629 18.5817 2.5524 18.6211 2.50579 18.6662C2.45772 18.7114 2.41839 18.7624 2.38635 18.8162C2.34702 18.8818 2.32372 18.9503 2.31498 19.0231C2.30624 19.0959 2.31061 19.1687 2.32663 19.243C2.34265 19.3173 2.36887 19.3916 2.40529 19.4644C2.4417 19.5387 2.48685 19.6071 2.53783 19.6741C2.58881 19.7397 2.64707 19.8023 2.71116 19.8577C2.77525 19.9145 2.84079 19.9625 2.90925 20.0033C2.97916 20.0441 3.05199 20.0776 3.12773 20.1009C3.20347 20.1242 3.28066 20.1388 3.35932 20.1446C3.43797 20.1504 3.51517 20.1475 3.59091 20.133C3.66665 20.1198 3.74093 20.0965 3.80939 20.0645C3.8793 20.0325 3.94339 19.9902 4.00165 19.9392C4.05991 19.8868 4.11089 19.8256 4.15459 19.7543C4.19246 19.6887 4.22159 19.6275 4.23906 19.5707C4.25654 19.5139 4.26674 19.4615 4.26965 19.4134C4.27257 19.3654 4.26965 19.3231 4.26237 19.2838C4.25363 19.2459 4.24489 19.2124 4.2347 19.1833C4.22304 19.1556 4.21285 19.1323 4.2012 19.1148C4.18954 19.0974 4.18372 19.0843 4.1808 19.077L4.34976 19.2051C4.36578 19.2459 4.37598 19.2925 4.37744 19.3464C4.37889 19.4003 4.37452 19.4586 4.36287 19.5227C4.35122 19.5868 4.33083 19.6538 4.30461 19.7237C4.27693 19.7936 4.24198 19.8635 4.19974 19.9349C4.14439 20.0295 4.0803 20.114 4.00893 20.1912C3.93756 20.2684 3.86037 20.3354 3.7788 20.3922C3.69723 20.449 3.6113 20.4942 3.52099 20.5277C3.43069 20.5612 3.33893 20.5816 3.24716 20.5903C3.15395 20.5976 3.06073 20.5918 2.96605 20.5714C2.87138 20.551 2.77962 20.5146 2.68931 20.4621C2.5524 20.3777 2.4417 20.2786 2.35868 20.1665C2.27565 20.0543 2.21448 19.9363 2.17807 19.8096C2.14165 19.6843 2.12563 19.5547 2.13291 19.4193C2.13874 19.2853 2.1635 19.1527 2.20574 19.0216C2.22759 18.9517 2.25963 18.8774 2.30187 18.7959C2.34411 18.7143 2.38926 18.6342 2.43733 18.5541C2.48248 18.4769 2.52763 18.4055 2.56987 18.3385C2.61211 18.2715 2.64707 18.2147 2.67474 18.1681C2.7097 18.2016 2.74175 18.2293 2.76942 18.2511C2.79855 18.273 2.82622 18.2934 2.8539 18.3094C2.89177 18.3327 2.92964 18.3502 2.96605 18.3647C3.00247 18.3778 3.04325 18.3909 3.08694 18.404" fill="#60041E"/>
<path d="M3.93028 18.7026C3.8793 18.6648 3.83269 18.6211 3.789 18.5686C3.7453 18.5162 3.70743 18.4579 3.67539 18.3938C3.64334 18.3298 3.62004 18.2613 3.60402 18.187C3.58799 18.1127 3.58362 18.0355 3.58945 17.9554C3.59528 17.8753 3.61421 17.7923 3.64626 17.7078C3.6783 17.6233 3.72491 17.5374 3.789 17.4515C3.85454 17.3612 3.92445 17.2883 3.99582 17.2301C4.06719 17.1718 4.14002 17.1267 4.21285 17.0961C4.28567 17.064 4.35996 17.0451 4.43279 17.0378C4.50707 17.0305 4.57844 17.032 4.64835 17.0451C4.71827 17.0567 4.78527 17.0786 4.85081 17.1077C4.9149 17.1368 4.97462 17.1718 5.02997 17.2126C5.0824 17.2519 5.13192 17.2971 5.17708 17.3495C5.22223 17.4019 5.2601 17.4587 5.29214 17.5228C5.32419 17.5855 5.34603 17.6539 5.36206 17.7267C5.37662 17.7996 5.38099 17.8753 5.37225 17.9554C5.36351 18.0355 5.34312 18.1186 5.30962 18.2045C5.27612 18.2904 5.2266 18.3778 5.16105 18.4667C5.09697 18.5526 5.03142 18.6225 4.96005 18.6793C4.89014 18.7347 4.81731 18.7784 4.74448 18.809C4.67166 18.8395 4.59737 18.8585 4.52309 18.8658C4.44881 18.873 4.37598 18.8716 4.30607 18.8614C4.23615 18.8512 4.16915 18.8323 4.10506 18.8046C4.04098 18.7769 3.98272 18.7434 3.93028 18.7055M4.19537 18.3327C4.27111 18.3895 4.34976 18.4375 4.42987 18.4798C4.50998 18.522 4.58863 18.5497 4.66437 18.5643C4.74011 18.5774 4.8144 18.5744 4.88431 18.5511C4.95423 18.5293 5.01686 18.4827 5.07366 18.4099C5.11007 18.3603 5.13338 18.3108 5.14503 18.2613C5.15668 18.2103 5.1596 18.1608 5.15231 18.1098C5.14503 18.0588 5.12901 18.0108 5.10571 17.9627C5.0824 17.9146 5.05327 17.868 5.01831 17.8229C4.98336 17.7777 4.94549 17.734 4.90179 17.6932C4.85955 17.6525 4.8144 17.6146 4.76925 17.5782C4.72118 17.5432 4.67166 17.5097 4.61922 17.4791C4.56679 17.4485 4.51435 17.4209 4.46046 17.399C4.40657 17.3772 4.35268 17.3612 4.30024 17.3495C4.24635 17.3393 4.19537 17.3364 4.14439 17.3437C4.09487 17.3495 4.0468 17.3655 4.00165 17.3917C3.9565 17.418 3.91571 17.4558 3.87784 17.5054C3.82395 17.5796 3.79482 17.6525 3.79191 17.7253C3.789 17.7981 3.80502 17.8709 3.83852 17.9409C3.87202 18.0108 3.92008 18.0792 3.98417 18.1462C4.0468 18.2118 4.11817 18.2744 4.19537 18.3327Z" fill="#60041E"/>
<path d="M4.51727 16.5688L5.0023 16.0255C5.05764 15.9643 5.11882 15.9046 5.18436 15.8478C5.25136 15.791 5.32128 15.74 5.39702 15.6949C5.4713 15.6497 5.5485 15.6147 5.63006 15.5871C5.71017 15.5594 5.79174 15.5463 5.8733 15.5448C5.95487 15.5448 6.03789 15.5594 6.11946 15.5885C6.20103 15.6191 6.28114 15.6686 6.35979 15.7371C6.44864 15.8172 6.51709 15.9061 6.5637 16.0066C6.61031 16.1056 6.63653 16.2105 6.63944 16.3168C6.64381 16.4246 6.62488 16.5324 6.5841 16.6401C6.54331 16.7479 6.48068 16.8499 6.39329 16.9475C6.34814 16.9985 6.30444 17.0378 6.26366 17.0625C6.22287 17.0888 6.18355 17.1077 6.14276 17.1208L6.15587 16.9533C6.19374 16.9533 6.22579 16.9475 6.25492 16.9329C6.28405 16.9198 6.31172 16.898 6.3394 16.8659C6.37727 16.8222 6.40203 16.7727 6.41077 16.7144C6.41951 16.6562 6.41222 16.5921 6.38892 16.5236C6.36561 16.4552 6.32774 16.3823 6.2724 16.3066C6.21705 16.2309 6.14713 16.1537 6.05829 16.075C5.98255 16.0066 5.90681 15.9556 5.83544 15.9235C5.76261 15.8915 5.69415 15.8711 5.62861 15.8638C5.56306 15.8565 5.50043 15.8594 5.44217 15.8726C5.38391 15.8857 5.33147 15.9046 5.28341 15.9279C5.23534 15.9512 5.19456 15.9774 5.15815 16.0066C5.12319 16.0357 5.09406 16.0619 5.07221 16.0867L5.01103 16.1551L6.43262 17.4252C6.44427 17.4354 6.45738 17.4442 6.4734 17.4529C6.48942 17.4616 6.50835 17.466 6.5302 17.466C6.55205 17.466 6.57536 17.4602 6.60012 17.4485C6.62488 17.4369 6.65255 17.4136 6.68168 17.3815L6.72247 17.4179L6.16461 18.0428L6.12383 18.0064C6.1515 17.9743 6.17044 17.9467 6.18209 17.9219C6.19374 17.8971 6.19811 17.8738 6.19811 17.852C6.19811 17.8316 6.19229 17.8127 6.18209 17.7952C6.17189 17.7777 6.15879 17.7631 6.14422 17.7486L4.80129 16.5484C4.78964 16.5382 4.77653 16.5294 4.75905 16.5207C4.74158 16.512 4.72264 16.5076 4.70079 16.5076C4.67895 16.5076 4.65564 16.5149 4.62942 16.528C4.6032 16.5411 4.57699 16.5644 4.54786 16.5965L4.51727 16.5688Z" fill="#60041E"/>
<path d="M5.96507 15.1035C5.94759 15.0453 5.92428 14.9928 5.89224 14.9477C5.8602 14.9025 5.83107 14.8661 5.80339 14.8355C5.79611 14.8283 5.78883 14.821 5.783 14.8152C5.77717 14.8093 5.77135 14.805 5.76843 14.8006C5.76261 14.7962 5.75824 14.7918 5.75387 14.7875L5.78883 14.7438C5.82087 14.7744 5.85728 14.7948 5.8937 14.802C5.93157 14.8108 5.96798 14.8122 6.00585 14.8064C6.04372 14.8006 6.08013 14.7889 6.11655 14.7729C6.15296 14.7569 6.18646 14.738 6.2185 14.7176C6.25055 14.6972 6.27822 14.6768 6.30153 14.6564C6.32629 14.636 6.34522 14.62 6.35979 14.6054L7.21332 13.8072C7.23225 13.8669 7.25701 13.9179 7.2876 13.9631C7.31819 14.0082 7.34732 14.0446 7.37645 14.0752C7.38373 14.084 7.39102 14.0898 7.39684 14.0971C7.40267 14.1029 7.40849 14.1087 7.41286 14.1116C7.41723 14.1175 7.42306 14.1218 7.42743 14.1248L7.39393 14.1684C7.36043 14.1379 7.32547 14.1189 7.2876 14.1102C7.24973 14.1014 7.21332 14.1 7.17545 14.1058C7.13758 14.1116 7.10116 14.1218 7.06475 14.1393C7.02834 14.1553 6.99484 14.1743 6.96425 14.1947C6.93366 14.2151 6.90599 14.2355 6.88123 14.2558C6.85647 14.2762 6.83753 14.2923 6.82297 14.3054L6.80258 14.3243C6.73703 14.3928 6.69042 14.467 6.66566 14.5486C6.63944 14.6287 6.6307 14.7117 6.63944 14.7962C6.64818 14.8807 6.67149 14.9637 6.71081 15.0453C6.75014 15.1269 6.80112 15.2026 6.86521 15.2725C6.92929 15.341 6.99775 15.4021 7.06912 15.4546C7.14049 15.507 7.21186 15.5463 7.28178 15.5711C7.35315 15.5959 7.42306 15.6031 7.49006 15.5929C7.55852 15.5827 7.62261 15.5507 7.68087 15.4954C7.72456 15.456 7.75515 15.4138 7.77263 15.3701C7.79156 15.3264 7.8003 15.2827 7.8003 15.2375C7.8003 15.1924 7.79302 15.1458 7.77845 15.0977C7.76389 15.0497 7.74495 15.0016 7.72165 14.9506L8.05957 14.7977C8.06831 14.8588 8.06976 14.9215 8.06539 14.9841C8.06102 15.0467 8.04791 15.1108 8.02461 15.1749C8.0013 15.239 7.96926 15.3031 7.92556 15.3686C7.88333 15.4327 7.82652 15.4983 7.75806 15.5624C7.68524 15.6308 7.6095 15.6862 7.53376 15.7269C7.45802 15.7677 7.38228 15.7969 7.30799 15.8129C7.23371 15.8304 7.15943 15.8362 7.08806 15.8318C7.01669 15.8274 6.94823 15.8143 6.88268 15.7925C6.81714 15.7706 6.75597 15.7415 6.69916 15.7036C6.64236 15.6658 6.59138 15.6235 6.54768 15.5755C6.49088 15.5143 6.44572 15.4473 6.41222 15.3759C6.37872 15.3045 6.35833 15.2288 6.34959 15.1502C6.34085 15.0715 6.34522 14.9899 6.3627 14.9069C6.38018 14.8224 6.40931 14.738 6.45155 14.652L5.97089 15.1021L5.96507 15.1035Z" fill="#60041E"/>
<path d="M7.241 13.2858C7.22061 13.261 7.20605 13.2334 7.19876 13.2042C7.19002 13.1751 7.18857 13.1445 7.19002 13.1154C7.19294 13.0862 7.20168 13.0571 7.21624 13.0294C7.23081 13.0018 7.24974 12.9785 7.2745 12.9581C7.29926 12.9377 7.32694 12.9231 7.35607 12.9158C7.3852 12.9071 7.41579 12.9042 7.44492 12.9071C7.47405 12.91 7.50318 12.9187 7.53085 12.9333C7.55853 12.9479 7.58183 12.9668 7.60222 12.9916C7.62261 13.0163 7.63718 13.044 7.64446 13.0731C7.6532 13.1023 7.65612 13.1329 7.6532 13.162C7.65029 13.1911 7.64155 13.2202 7.62698 13.2465C7.61242 13.2741 7.59348 13.2974 7.56872 13.3178C7.54396 13.3382 7.51629 13.3528 7.48716 13.3615C7.45803 13.3703 7.4289 13.3732 7.39831 13.3703C7.36918 13.3674 7.34005 13.3586 7.31237 13.344C7.2847 13.3295 7.26139 13.3105 7.241 13.2858ZM9.01069 14.4263L8.36108 14.9579L8.32612 14.9157C8.35817 14.8894 8.38293 14.8647 8.39749 14.8414C8.41206 14.8181 8.4208 14.7962 8.42371 14.7758C8.42662 14.7554 8.42371 14.7365 8.41643 14.7176C8.40915 14.7001 8.39895 14.6826 8.38584 14.6666L7.63864 13.7519C7.6299 13.7402 7.61679 13.7286 7.60077 13.7184C7.58474 13.7067 7.56727 13.7009 7.54542 13.698C7.52503 13.6951 7.50027 13.698 7.47405 13.7067C7.44783 13.7155 7.41724 13.7329 7.38229 13.7606L7.34587 13.7155L7.99549 13.1838L8.0319 13.229C8.00131 13.2537 7.97801 13.2785 7.96345 13.3018C7.94742 13.3251 7.93868 13.3455 7.93431 13.3659C7.92994 13.3863 7.9314 13.4038 7.93868 13.4212C7.94451 13.4387 7.95471 13.4547 7.96636 13.4693L8.72084 14.3942C8.73104 14.4059 8.74269 14.4161 8.75726 14.4277C8.77182 14.4379 8.79076 14.4452 8.81115 14.4481C8.83154 14.451 8.8563 14.4481 8.88398 14.4394C8.91165 14.4306 8.94224 14.4131 8.97574 14.3855L9.01069 14.4277V14.4263Z" fill="#60041E"/>
<path d="M9.67777 12.4482L9.6399 12.4788C9.59475 12.4541 9.54668 12.4366 9.49571 12.4279C9.44473 12.4191 9.3952 12.4162 9.34423 12.4206C9.2947 12.4249 9.24664 12.4351 9.20003 12.4526C9.15342 12.4686 9.11264 12.4905 9.07622 12.5167C9.00485 12.5677 8.95242 12.6332 8.92037 12.7119C8.88833 12.7905 8.87231 12.8721 8.87231 12.9609C8.87231 13.0483 8.88687 13.1357 8.91601 13.2246C8.94514 13.3134 8.98446 13.3921 9.03544 13.462C9.08933 13.5363 9.15196 13.5989 9.22625 13.6499C9.30053 13.7009 9.37918 13.7344 9.46221 13.7548C9.54523 13.7737 9.63116 13.7751 9.72001 13.7591C9.80886 13.7431 9.8948 13.7052 9.97636 13.6455C10.0448 13.5975 10.0943 13.5465 10.1249 13.4955C10.1555 13.4445 10.1774 13.3964 10.1876 13.3542C10.1978 13.3105 10.2007 13.2741 10.1992 13.245C10.1963 13.2144 10.1948 13.1969 10.1948 13.1896L10.2793 13.344C10.2793 13.3761 10.2735 13.411 10.2575 13.4489C10.2429 13.4868 10.2211 13.5275 10.1934 13.5683C10.1657 13.6091 10.1308 13.6499 10.09 13.6907C10.0492 13.7315 10.0026 13.7708 9.95015 13.8086C9.82925 13.8946 9.70982 13.9601 9.59329 14.0067C9.47531 14.0519 9.36316 14.0737 9.25392 14.0737C9.14468 14.0737 9.04272 14.0475 8.94659 13.9965C8.85046 13.9456 8.76452 13.8669 8.68878 13.7606C8.62324 13.663 8.57663 13.5698 8.5475 13.4795C8.51983 13.3892 8.50817 13.3018 8.51254 13.2173C8.51691 13.1328 8.53585 13.0498 8.56935 12.9711C8.60285 12.8925 8.648 12.8153 8.70335 12.7425C8.7587 12.6682 8.8257 12.5968 8.9029 12.5284C8.98009 12.4599 9.06457 12.3914 9.15488 12.3274C9.2146 12.2851 9.26849 12.2472 9.31364 12.2167C9.36025 12.1861 9.40103 12.1569 9.4389 12.1307C9.45201 12.1642 9.46803 12.1977 9.48842 12.2312C9.50881 12.2647 9.52484 12.2924 9.54086 12.3128C9.56125 12.3419 9.5831 12.3667 9.60495 12.3885C9.62679 12.4104 9.65156 12.4308 9.67923 12.4512" fill="#60041E"/>
<path d="M13.0089 11.921C12.9462 11.9967 12.8865 12.0564 12.8283 12.103C12.77 12.1482 12.7161 12.1846 12.668 12.2108C12.6069 12.2443 12.537 12.2603 12.4583 12.2603C12.3796 12.2603 12.2981 12.2501 12.2151 12.2297C12.132 12.2094 12.0476 12.1817 11.966 12.1482C11.883 12.1132 11.8058 12.0768 11.7344 12.0404C11.663 12.0025 11.6004 11.9676 11.5465 11.9341C11.4926 11.9006 11.4547 11.8758 11.43 11.8569C11.5319 11.7782 11.6135 11.6923 11.6747 11.5962C11.7009 11.5554 11.7242 11.5102 11.7446 11.4622C11.765 11.4141 11.7796 11.3631 11.7854 11.3078C11.7927 11.2539 11.7912 11.1956 11.781 11.1359C11.7708 11.0762 11.749 11.0135 11.714 10.948C11.682 10.8897 11.647 10.8402 11.6062 10.7994C11.5654 10.7601 11.5232 10.7281 11.4781 10.7033C11.4344 10.6785 11.3877 10.6625 11.3411 10.6523C11.2945 10.6421 11.2479 10.6392 11.2042 10.6407C11.1591 10.6407 11.1168 10.6479 11.0775 10.6581C11.0382 10.6683 11.0018 10.6829 10.9712 10.6989C10.9246 10.7237 10.8882 10.7499 10.8634 10.7747C10.8386 10.8009 10.8212 10.8256 10.8124 10.8519C10.8037 10.8781 10.8022 10.9028 10.8066 10.9276C10.811 10.9524 10.8197 10.9771 10.8328 11.0004L11.5844 12.4031C11.5931 12.4206 11.6062 12.438 11.6237 12.457C11.6412 12.4744 11.6616 12.489 11.6878 12.4992C11.714 12.5094 11.7461 12.5123 11.7839 12.5079C11.8218 12.5036 11.8655 12.489 11.915 12.4613L11.9412 12.5094L11.0586 12.9813L11.0324 12.9333C11.079 12.9085 11.1154 12.8837 11.1401 12.8575C11.1649 12.8328 11.1824 12.8065 11.1911 12.7818C11.1999 12.7556 11.2028 12.7308 11.1969 12.706C11.1926 12.6813 11.1838 12.6565 11.1707 12.6332L10.3973 11.1898C10.3886 11.1723 10.374 11.1548 10.3565 11.1388C10.339 11.1228 10.3172 11.1097 10.291 11.1024C10.2648 11.0951 10.2342 11.0922 10.1978 11.0966C10.1613 11.1009 10.1206 11.1155 10.0725 11.1417L10.0463 11.0922L10.9289 10.6203C11.0542 10.5533 11.1765 10.5008 11.2989 10.4644C11.4212 10.4266 11.5363 10.4091 11.6441 10.412C11.7519 10.4149 11.8509 10.4397 11.9383 10.4863C12.0257 10.5329 12.0985 10.6086 12.1524 10.7106C12.199 10.798 12.2223 10.8825 12.2209 10.9669C12.2209 11.0514 12.2034 11.1315 12.1699 11.2102C12.1364 11.2874 12.0913 11.3617 12.033 11.4316C11.9747 11.5015 11.9121 11.5656 11.8436 11.6253C11.9034 11.6632 11.9645 11.701 12.0301 11.736C12.0956 11.7709 12.1612 11.803 12.2267 11.8321C12.2923 11.8612 12.3578 11.886 12.4204 11.9079C12.4831 11.9297 12.5428 11.9457 12.5967 11.9574C12.652 11.969 12.7001 11.9749 12.7423 11.9763C12.7846 11.9763 12.8195 11.9705 12.8443 11.9559C12.8559 11.9501 12.8734 11.9384 12.8923 11.9253C12.9127 11.9108 12.9331 11.8918 12.9521 11.8671L13.003 11.9151L13.0089 11.921Z" fill="#60041E"/>
<path d="M13.0788 10.9175C13.0846 10.9393 13.0919 10.9582 13.1006 10.9772C13.1079 10.9961 13.1167 11.015 13.1239 11.034C13.1604 11.1214 13.2011 11.2044 13.2463 11.283C13.2914 11.3617 13.3424 11.4258 13.3992 11.4782C13.456 11.5307 13.5187 11.5656 13.5886 11.5831C13.6585 11.6006 13.7357 11.5933 13.8216 11.5598C13.8755 11.5379 13.9207 11.5088 13.9556 11.4739C13.9906 11.4389 14.0183 11.3996 14.0386 11.3544C14.0576 11.3107 14.0707 11.2627 14.0765 11.2117C14.0823 11.1607 14.0823 11.1083 14.078 11.0529L14.4494 11.0282C14.4363 11.0893 14.4144 11.149 14.3853 11.2073C14.3562 11.2656 14.3168 11.3224 14.2702 11.3763C14.2222 11.4302 14.1654 11.4797 14.0998 11.5263C14.0343 11.5729 13.9571 11.6151 13.8697 11.6515C13.7706 11.6923 13.6774 11.7185 13.5886 11.7302C13.4997 11.7419 13.4153 11.7419 13.3366 11.7302C13.2579 11.7185 13.1851 11.6967 13.1167 11.6647C13.0497 11.6326 12.987 11.5947 12.9331 11.5496C12.8778 11.5044 12.8297 11.4535 12.7904 11.3967C12.7496 11.3398 12.7161 11.2816 12.6914 11.2204C12.668 11.1622 12.6491 11.101 12.6375 11.034C12.6258 10.967 12.6214 10.8985 12.6258 10.8271C12.6302 10.7558 12.6433 10.6859 12.6651 10.616C12.687 10.546 12.7205 10.479 12.7656 10.4135C12.8108 10.3479 12.8676 10.2882 12.9375 10.2329C13.0074 10.1775 13.0919 10.1295 13.1895 10.0887C13.3337 10.029 13.4648 9.99547 13.5813 9.98964C13.6978 9.98381 13.8012 9.99692 13.893 10.0304C13.9848 10.0639 14.0634 10.1149 14.129 10.1819C14.1945 10.2489 14.2498 10.3261 14.295 10.4135L13.0802 10.9175H13.0788ZM13.2376 10.1804C13.1706 10.2081 13.1181 10.2445 13.0832 10.2882C13.0467 10.3319 13.0234 10.3829 13.0103 10.4383C12.9987 10.4936 12.9958 10.5548 13.0045 10.6189C13.0132 10.6844 13.0264 10.7514 13.0482 10.8213L13.826 10.498C13.7925 10.4339 13.7575 10.3756 13.7197 10.3246C13.6818 10.2737 13.6381 10.2314 13.5915 10.1994C13.5449 10.1673 13.4924 10.1484 13.4342 10.144C13.3759 10.1382 13.3118 10.1499 13.2405 10.1804" fill="#60041E"/>
<path d="M15.1107 9.38078C15.182 9.35893 15.2505 9.34582 15.3146 9.34291C15.3787 9.34 15.4369 9.34291 15.4908 9.35019C15.5432 9.35747 15.5913 9.36913 15.6321 9.38369C15.6729 9.39826 15.7078 9.41282 15.7326 9.42593C15.7544 9.39389 15.7807 9.3633 15.8098 9.33417C15.8389 9.30504 15.8681 9.27882 15.9001 9.25406C15.9307 9.23076 15.9627 9.20891 15.9962 9.19143C16.0283 9.17395 16.0603 9.15939 16.0909 9.14773L16.123 9.18997C16.0895 9.21619 16.0632 9.2526 16.0428 9.2963C16.0268 9.33417 16.0152 9.38078 16.0093 9.43904C16.0035 9.4973 16.0123 9.56867 16.0356 9.6517C16.0501 9.70122 16.0647 9.75074 16.0807 9.80318C16.0967 9.85561 16.1128 9.90659 16.1273 9.95902C16.1433 10.01 16.1565 10.0581 16.171 10.1047C16.1841 10.1513 16.1972 10.1921 16.2074 10.2285C16.2176 10.2649 16.2264 10.294 16.2336 10.3173C16.2409 10.3392 16.2438 10.3523 16.2453 10.3567C16.2701 10.4397 16.3021 10.5038 16.3385 10.5475C16.3764 10.5926 16.4128 10.6261 16.4478 10.6465C16.49 10.6713 16.5322 10.6844 16.5759 10.6887L16.573 10.7412C16.5264 10.7528 16.474 10.7601 16.4157 10.763C16.3575 10.7645 16.3006 10.7616 16.2409 10.7514C16.1827 10.7412 16.1259 10.7252 16.0734 10.7019C16.0195 10.68 15.9729 10.6494 15.9321 10.6116C15.9249 10.6538 15.9103 10.696 15.8914 10.7397C15.8724 10.7834 15.8462 10.8242 15.8113 10.865C15.7763 10.9043 15.7326 10.9422 15.6802 10.9757C15.6277 11.0106 15.5636 11.0383 15.4879 11.0616C15.3641 11.0995 15.249 11.1111 15.1412 11.0951C15.0335 11.0791 14.9373 11.0456 14.8529 10.9932C14.7684 10.9407 14.6955 10.8737 14.6358 10.7936C14.5761 10.7135 14.5324 10.6261 14.5033 10.5344C14.4814 10.4644 14.4683 10.3931 14.464 10.3173C14.4581 10.2416 14.464 10.1659 14.4756 10.0916C14.4887 10.0158 14.5106 9.943 14.5426 9.87018C14.5747 9.79735 14.6154 9.73035 14.6679 9.66772C14.7203 9.60509 14.7829 9.54974 14.8558 9.50022C14.9286 9.45069 15.0145 9.41137 15.1107 9.38224M15.5753 10.8708C15.6423 10.8504 15.6918 10.8184 15.7268 10.7747C15.7617 10.731 15.785 10.6829 15.7981 10.6305C15.8113 10.5781 15.8156 10.5271 15.8127 10.4746C15.8098 10.4222 15.8054 10.3771 15.7981 10.3377L15.6438 9.79298C15.635 9.77404 15.6248 9.75074 15.6102 9.72307C15.5957 9.69685 15.5797 9.66917 15.5593 9.6415C15.5389 9.61383 15.517 9.58761 15.4908 9.56139C15.4646 9.53517 15.4355 9.51478 15.402 9.49876C15.3685 9.48274 15.3321 9.47254 15.2913 9.46817C15.2505 9.4638 15.2068 9.46817 15.1587 9.48419C15.0874 9.50604 15.0276 9.54391 14.981 9.5978C14.9344 9.6517 14.8995 9.71578 14.8776 9.79152C14.8558 9.86581 14.847 9.94883 14.8499 10.0377C14.8528 10.128 14.8689 10.2183 14.898 10.3115C14.9359 10.4339 14.981 10.5344 15.0335 10.613C15.0859 10.6931 15.1442 10.7543 15.2039 10.798C15.2651 10.8417 15.3277 10.8694 15.3903 10.8796C15.4544 10.8898 15.5156 10.8854 15.5724 10.8679" fill="#60041E"/>
<path d="M17.9349 10.1542C17.9189 10.1935 17.897 10.2343 17.8693 10.2751C17.8417 10.3159 17.8082 10.3538 17.7659 10.3902C17.7251 10.4266 17.6756 10.4586 17.6188 10.4863C17.562 10.514 17.4965 10.5358 17.4222 10.5519C17.2955 10.5781 17.1789 10.5766 17.0741 10.5519C16.9692 10.5256 16.876 10.4819 16.7973 10.4222C16.7187 10.361 16.6531 10.2882 16.6007 10.2023C16.5497 10.1163 16.5148 10.026 16.4958 9.93137C16.4813 9.86 16.474 9.78717 16.474 9.71143C16.474 9.63715 16.4813 9.56286 16.4973 9.49004C16.5133 9.41721 16.5381 9.3473 16.5701 9.2803C16.6036 9.21184 16.6473 9.15066 16.6997 9.09532C16.7536 9.03997 16.8177 8.99045 16.8935 8.94966C16.9692 8.90888 17.0551 8.87829 17.1556 8.8579C17.2124 8.84625 17.2663 8.84042 17.3188 8.84042C17.3697 8.84042 17.4178 8.84333 17.463 8.84916C17.5081 8.85644 17.5489 8.86518 17.5868 8.87829C17.6246 8.88994 17.6581 8.90305 17.6873 8.91616L17.5606 8.28694C17.5576 8.27237 17.5518 8.25635 17.5431 8.24033C17.5343 8.22431 17.5212 8.2112 17.5037 8.19955C17.4863 8.18789 17.4644 8.18061 17.4367 8.17624C17.4091 8.17187 17.3756 8.17478 17.3348 8.18207L17.3231 8.12526L17.9465 8L18.3718 10.1105C18.3748 10.1251 18.3806 10.1397 18.3893 10.1557C18.3981 10.1717 18.4112 10.1848 18.4286 10.1965C18.4461 10.2081 18.4694 10.2154 18.4971 10.2198C18.5248 10.2241 18.5583 10.2227 18.5991 10.2139L18.6107 10.2678L17.9873 10.3931L17.9393 10.1557L17.9349 10.1542ZM17.5008 10.3756C17.5649 10.3625 17.6174 10.3407 17.6611 10.3072C17.7047 10.2737 17.7397 10.2358 17.7659 10.195C17.7936 10.1528 17.8125 10.1091 17.8271 10.061C17.8402 10.0144 17.8504 9.97069 17.8548 9.92845C17.8606 9.88767 17.8621 9.85126 17.8621 9.82213C17.8621 9.793 17.8591 9.77261 17.8577 9.76387L17.7426 9.19145L17.6611 9.36623C17.6377 9.27884 17.6072 9.20164 17.5664 9.13756C17.5489 9.10988 17.5285 9.08366 17.5052 9.05745C17.4819 9.03268 17.4542 9.01084 17.4251 8.99336C17.3945 8.97588 17.361 8.96423 17.3231 8.95694C17.2853 8.95112 17.243 8.95112 17.1979 8.96131C17.125 8.97588 17.0653 9.00792 17.0187 9.05453C16.9721 9.1026 16.9386 9.16232 16.9182 9.23223C16.8964 9.3036 16.8862 9.38225 16.8876 9.4711C16.8876 9.55995 16.8978 9.65171 16.9168 9.74639C16.9415 9.87165 16.975 9.97652 17.0173 10.061C17.0595 10.1455 17.1061 10.2139 17.1585 10.2649C17.211 10.3159 17.2663 10.3494 17.3246 10.3669C17.3843 10.3844 17.444 10.3858 17.5037 10.3742" fill="#60041E"/>
<path d="M19.138 10.2474C19.0681 10.2547 19.0098 10.2591 18.9661 10.2591C18.921 10.2591 18.8845 10.2591 18.8554 10.2562C18.8263 10.2532 18.803 10.2503 18.784 10.2474C18.7651 10.2445 18.7476 10.2445 18.7287 10.2474C18.7331 10.2125 18.7345 10.1819 18.7345 10.1542C18.7345 10.1265 18.7345 10.1003 18.7302 10.0785C18.7258 10.045 18.72 10.0144 18.7112 9.98524C18.7025 9.95611 18.6923 9.92698 18.6806 9.89639L18.7316 9.88765C18.7578 9.9328 18.7957 9.97067 18.8409 10.0027C18.8875 10.0333 18.937 10.0595 18.9923 10.0785C19.0477 10.0974 19.103 10.1105 19.1613 10.1163C19.2196 10.1236 19.2734 10.1236 19.323 10.1178C19.3856 10.1105 19.4395 10.0959 19.4861 10.0755C19.5327 10.0537 19.572 10.026 19.6012 9.99398C19.6318 9.96194 19.6536 9.92407 19.6667 9.88328C19.6798 9.84104 19.6842 9.79735 19.6784 9.74928C19.6725 9.6983 19.658 9.65898 19.6347 9.62839C19.6114 9.5978 19.5793 9.57595 19.5429 9.55993C19.505 9.54391 19.4628 9.53371 19.4133 9.52934C19.3652 9.52497 19.3128 9.52352 19.2574 9.52352C19.2152 9.52352 19.17 9.52352 19.122 9.52352C19.0739 9.52352 19.0258 9.51915 18.9763 9.51187C18.9282 9.50458 18.8802 9.49439 18.8336 9.47982C18.787 9.46526 18.7462 9.44341 18.7083 9.41719C18.6704 9.39097 18.6399 9.35602 18.6151 9.31378C18.5903 9.27154 18.5743 9.22056 18.567 9.16084C18.5583 9.08947 18.567 9.02538 18.5889 8.96858C18.6122 8.91177 18.6442 8.86225 18.6879 8.81855C18.7302 8.77486 18.7811 8.73699 18.8394 8.70494C18.8977 8.6729 18.9588 8.64668 19.0215 8.62483C19.0841 8.60299 19.1482 8.58551 19.2108 8.5724C19.2734 8.55929 19.3317 8.55055 19.3841 8.54472C19.4774 8.53453 19.5589 8.53016 19.6303 8.53162C19.7017 8.53307 19.7599 8.53162 19.808 8.52579C19.8022 8.5622 19.7993 8.5957 19.7993 8.62775C19.7993 8.65979 19.7993 8.68892 19.8036 8.71368C19.8065 8.74573 19.8138 8.77631 19.8226 8.80399C19.8313 8.83312 19.8415 8.86225 19.8561 8.89284L19.8051 8.90158C19.7832 8.86225 19.7614 8.82584 19.741 8.79234C19.7206 8.75884 19.6929 8.73116 19.6565 8.70931C19.6201 8.68747 19.572 8.6729 19.5109 8.66562C19.4497 8.65833 19.3667 8.65979 19.2618 8.67144C19.2283 8.67581 19.1933 8.68455 19.1584 8.70057C19.1234 8.7166 19.0914 8.73699 19.0637 8.76321C19.036 8.78942 19.0142 8.82147 18.9982 8.85788C18.9821 8.89429 18.9763 8.93653 18.9821 8.98314C18.9894 9.04432 19.0084 9.09093 19.0389 9.12443C19.0695 9.15793 19.1059 9.18123 19.1467 9.1958C19.1875 9.21036 19.2283 9.2191 19.2705 9.22056C19.3128 9.22201 19.3477 9.22201 19.3769 9.22056C19.4133 9.22056 19.4541 9.22056 19.5021 9.22056C19.5502 9.22056 19.5983 9.22493 19.6492 9.23221C19.7002 9.23949 19.7497 9.24969 19.7993 9.26425C19.8488 9.27882 19.8939 9.29921 19.9347 9.32689C19.9755 9.35456 20.0105 9.38952 20.0381 9.43176C20.0658 9.474 20.0833 9.52643 20.0906 9.5876C20.0993 9.66917 20.092 9.74054 20.0687 9.80172C20.0454 9.86289 20.0105 9.91678 19.9638 9.96194C19.9172 10.0071 19.8619 10.0464 19.7963 10.0785C19.7308 10.1105 19.6623 10.1367 19.5881 10.1586C19.5138 10.1804 19.438 10.1964 19.3608 10.2095C19.2836 10.2227 19.2079 10.2329 19.1351 10.2416" fill="#60041E"/>
<path d="M63.9256 25.7549H66.5535C66.5008 26.6162 66.2635 27.3809 65.8416 28.0488C65.4256 28.7168 64.8426 29.2383 64.0926 29.6133C63.3485 29.9883 62.452 30.1758 61.4032 30.1758C60.5828 30.1758 59.8475 30.0352 59.1971 29.7539C58.5467 29.4668 57.9901 29.0566 57.5272 28.5234C57.0701 27.9902 56.7215 27.3457 56.4813 26.5898C56.241 25.834 56.1209 24.9873 56.1209 24.0498V23.1621C56.1209 22.2246 56.244 21.3779 56.4901 20.6221C56.742 19.8604 57.0994 19.2129 57.5623 18.6797C58.0311 18.1465 58.5907 17.7363 59.241 17.4492C59.8914 17.1621 60.618 17.0186 61.4207 17.0186C62.4871 17.0186 63.3866 17.2119 64.119 17.5986C64.8573 17.9854 65.4285 18.5186 65.8328 19.1982C66.243 19.8779 66.4891 20.6514 66.5711 21.5186H63.9344C63.9051 21.0029 63.8026 20.5664 63.6268 20.209C63.451 19.8457 63.1844 19.5732 62.827 19.3916C62.4754 19.2041 62.0067 19.1104 61.4207 19.1104C60.9813 19.1104 60.5975 19.1924 60.2694 19.3564C59.9412 19.5205 59.6658 19.7695 59.4432 20.1035C59.2205 20.4375 59.0535 20.8594 58.9422 21.3691C58.8367 21.873 58.784 22.4648 58.784 23.1445V24.0498C58.784 24.7119 58.8338 25.2949 58.9334 25.7988C59.033 26.2969 59.1854 26.7188 59.3905 27.0645C59.6014 27.4043 59.8709 27.6621 60.1991 27.8379C60.533 28.0078 60.9344 28.0928 61.4032 28.0928C61.9539 28.0928 62.408 28.0049 62.7655 27.8291C63.1229 27.6533 63.3953 27.3926 63.5828 27.0469C63.7762 26.7012 63.8905 26.2705 63.9256 25.7549ZM67.7225 25.3418V25.1572C67.7225 24.46 67.8221 23.8184 68.0213 23.2324C68.2205 22.6406 68.5106 22.1279 68.8914 21.6943C69.2723 21.2607 69.741 20.9238 70.2977 20.6836C70.8543 20.4375 71.493 20.3145 72.2137 20.3145C72.9344 20.3145 73.576 20.4375 74.1385 20.6836C74.701 20.9238 75.1727 21.2607 75.5535 21.6943C75.9403 22.1279 76.2332 22.6406 76.4324 23.2324C76.6317 23.8184 76.7313 24.46 76.7313 25.1572V25.3418C76.7313 26.0332 76.6317 26.6748 76.4324 27.2666C76.2332 27.8525 75.9403 28.3652 75.5535 28.8047C75.1727 29.2383 74.7039 29.5752 74.1473 29.8154C73.5907 30.0557 72.952 30.1758 72.2313 30.1758C71.5106 30.1758 70.869 30.0557 70.3065 29.8154C69.7498 29.5752 69.2782 29.2383 68.8914 28.8047C68.5106 28.3652 68.2205 27.8525 68.0213 27.2666C67.8221 26.6748 67.7225 26.0332 67.7225 25.3418ZM70.2537 25.1572V25.3418C70.2537 25.7402 70.2889 26.1123 70.3592 26.458C70.4295 26.8037 70.5408 27.1084 70.6932 27.3721C70.8514 27.6299 71.0565 27.832 71.3084 27.9785C71.5604 28.125 71.868 28.1982 72.2313 28.1982C72.5828 28.1982 72.8846 28.125 73.1366 27.9785C73.3885 27.832 73.5907 27.6299 73.743 27.3721C73.8953 27.1084 74.0067 26.8037 74.077 26.458C74.1532 26.1123 74.1912 25.7402 74.1912 25.3418V25.1572C74.1912 24.7705 74.1532 24.4072 74.077 24.0674C74.0067 23.7217 73.8924 23.417 73.7342 23.1533C73.5819 22.8838 73.3797 22.6729 73.1278 22.5205C72.8758 22.3682 72.5711 22.292 72.2137 22.292C71.8563 22.292 71.5516 22.3682 71.2996 22.5205C71.0535 22.6729 70.8514 22.8838 70.6932 23.1533C70.5408 23.417 70.4295 23.7217 70.3592 24.0674C70.2889 24.4072 70.2537 24.7705 70.2537 25.1572ZM80.8182 22.3184V33.6562H78.2869V20.4902H80.6336L80.8182 22.3184ZM86.8387 25.1396V25.3242C86.8387 26.0156 86.7567 26.6572 86.5926 27.249C86.4344 27.8408 86.2 28.3564 85.8895 28.7959C85.5789 29.2295 85.1922 29.5693 84.7293 29.8154C84.2723 30.0557 83.7449 30.1758 83.1473 30.1758C82.5672 30.1758 82.0633 30.0586 81.6356 29.8242C81.2078 29.5898 80.8475 29.2617 80.5545 28.8398C80.2674 28.4121 80.036 27.917 79.8602 27.3545C79.6844 26.792 79.5496 26.1885 79.4559 25.5439V25.0605C79.5496 24.3691 79.6844 23.7363 79.8602 23.1621C80.036 22.582 80.2674 22.0811 80.5545 21.6592C80.8475 21.2314 81.2049 20.9004 81.6268 20.666C82.0545 20.4316 82.5555 20.3145 83.1297 20.3145C83.7332 20.3145 84.2635 20.4287 84.7205 20.6572C85.1834 20.8857 85.5701 21.2139 85.8807 21.6416C86.1971 22.0693 86.4344 22.5791 86.5926 23.1709C86.7567 23.7627 86.8387 24.4189 86.8387 25.1396ZM84.2987 25.3242V25.1396C84.2987 24.7354 84.2635 24.3633 84.1932 24.0234C84.1287 23.6777 84.0233 23.376 83.8768 23.1182C83.7362 22.8604 83.5487 22.6611 83.3143 22.5205C83.0858 22.374 82.8074 22.3008 82.4793 22.3008C82.1336 22.3008 81.8377 22.3564 81.5916 22.4678C81.3514 22.5791 81.1551 22.7402 81.0028 22.9512C80.8504 23.1621 80.7362 23.4141 80.66 23.707C80.5838 24 80.5369 24.3311 80.5194 24.7002V25.9219C80.5487 26.3555 80.6307 26.7451 80.7655 27.0908C80.9002 27.4307 81.1082 27.7002 81.3895 27.8994C81.6707 28.0986 82.0399 28.1982 82.4969 28.1982C82.8309 28.1982 83.1121 28.125 83.3407 27.9785C83.5692 27.8262 83.7537 27.6182 83.8944 27.3545C84.0408 27.0908 84.1434 26.7861 84.202 26.4404C84.2664 26.0947 84.2987 25.7227 84.2987 25.3242ZM93.0701 20.4902V22.2832H87.533V20.4902H93.0701ZM88.9041 18.1436H91.4354V27.1348C91.4354 27.4102 91.4705 27.6211 91.5408 27.7676C91.617 27.9141 91.7283 28.0166 91.8748 28.0752C92.0213 28.1279 92.2059 28.1543 92.4285 28.1543C92.5867 28.1543 92.7274 28.1484 92.8504 28.1367C92.9793 28.1191 93.0877 28.1016 93.1756 28.084L93.1844 29.9473C92.9676 30.0176 92.7332 30.0732 92.4813 30.1143C92.2293 30.1553 91.951 30.1758 91.6463 30.1758C91.0897 30.1758 90.6033 30.085 90.1873 29.9033C89.7772 29.7158 89.4608 29.417 89.2381 29.0068C89.0155 28.5967 88.9041 28.0576 88.9041 27.3896V18.1436ZM97.1834 20.4902V30H94.6434V20.4902H97.1834ZM94.4852 18.0117C94.4852 17.6426 94.6141 17.3379 94.8719 17.0977C95.1297 16.8574 95.4754 16.7373 95.909 16.7373C96.3367 16.7373 96.6795 16.8574 96.9373 17.0977C97.201 17.3379 97.3328 17.6426 97.3328 18.0117C97.3328 18.3809 97.201 18.6855 96.9373 18.9258C96.6795 19.166 96.3367 19.2861 95.909 19.2861C95.4754 19.2861 95.1297 19.166 94.8719 18.9258C94.6141 18.6855 94.4852 18.3809 94.4852 18.0117ZM103.204 28.1982C103.514 28.1982 103.79 28.1396 104.03 28.0225C104.27 27.8994 104.458 27.7295 104.593 27.5127C104.733 27.29 104.806 27.0293 104.812 26.7305H107.194C107.188 27.3984 107.01 27.9932 106.658 28.5146C106.306 29.0303 105.835 29.4375 105.243 29.7363C104.651 30.0293 103.989 30.1758 103.257 30.1758C102.518 30.1758 101.874 30.0527 101.323 29.8066C100.778 29.5605 100.324 29.2207 99.9608 28.7871C99.5975 28.3477 99.325 27.8379 99.1434 27.2578C98.9617 26.6719 98.8709 26.0449 98.8709 25.377V25.1221C98.8709 24.4482 98.9617 23.8213 99.1434 23.2412C99.325 22.6553 99.5975 22.1455 99.9608 21.7119C100.324 21.2725 100.778 20.9297 101.323 20.6836C101.868 20.4375 102.507 20.3145 103.239 20.3145C104.018 20.3145 104.701 20.4639 105.287 20.7627C105.879 21.0615 106.342 21.4893 106.676 22.0459C107.015 22.5967 107.188 23.25 107.194 24.0059H104.812C104.806 23.6895 104.739 23.4023 104.61 23.1445C104.487 22.8867 104.305 22.6816 104.065 22.5293C103.831 22.3711 103.541 22.292 103.195 22.292C102.826 22.292 102.524 22.3711 102.29 22.5293C102.055 22.6816 101.874 22.8926 101.745 23.1621C101.616 23.4258 101.525 23.7275 101.472 24.0674C101.426 24.4014 101.402 24.7529 101.402 25.1221V25.377C101.402 25.7461 101.426 26.1006 101.472 26.4404C101.519 26.7803 101.607 27.082 101.736 27.3457C101.871 27.6094 102.055 27.8174 102.29 27.9697C102.524 28.1221 102.829 28.1982 103.204 28.1982ZM108.82 17.2031H113.593C114.571 17.2031 115.412 17.3496 116.115 17.6426C116.824 17.9355 117.369 18.3691 117.75 18.9434C118.131 19.5176 118.321 20.2236 118.321 21.0615C118.321 21.7471 118.204 22.3359 117.97 22.8281C117.741 23.3145 117.416 23.7217 116.994 24.0498C116.578 24.3721 116.089 24.6299 115.526 24.8232L114.691 25.2627H110.543L110.525 23.2061H113.61C114.073 23.2061 114.457 23.124 114.762 22.96C115.066 22.7959 115.295 22.5674 115.447 22.2744C115.605 21.9814 115.684 21.6416 115.684 21.2549C115.684 20.8447 115.608 20.4902 115.456 20.1914C115.304 19.8926 115.072 19.6641 114.762 19.5059C114.451 19.3477 114.061 19.2686 113.593 19.2686H111.457V30H108.82V17.2031ZM115.974 30L113.056 24.2959L115.843 24.2783L118.796 29.877V30H115.974ZM124.57 30.1758C123.832 30.1758 123.17 30.0586 122.584 29.8242C121.998 29.584 121.5 29.2529 121.09 28.8311C120.685 28.4092 120.375 27.9199 120.158 27.3633C119.941 26.8008 119.833 26.2031 119.833 25.5703V25.2188C119.833 24.498 119.935 23.8389 120.14 23.2412C120.346 22.6436 120.639 22.125 121.019 21.6855C121.406 21.2461 121.875 20.9092 122.426 20.6748C122.976 20.4346 123.597 20.3145 124.289 20.3145C124.963 20.3145 125.56 20.4258 126.082 20.6484C126.603 20.8711 127.04 21.1875 127.391 21.5977C127.749 22.0078 128.018 22.5 128.2 23.0742C128.382 23.6426 128.472 24.2754 128.472 24.9727V26.0273H120.914V24.3398H125.985V24.1465C125.985 23.7949 125.921 23.4814 125.792 23.2061C125.669 22.9248 125.481 22.7021 125.229 22.5381C124.977 22.374 124.655 22.292 124.263 22.292C123.929 22.292 123.641 22.3652 123.401 22.5117C123.161 22.6582 122.965 22.8633 122.812 23.127C122.666 23.3906 122.555 23.7012 122.478 24.0586C122.408 24.4102 122.373 24.7969 122.373 25.2188V25.5703C122.373 25.9512 122.426 26.3027 122.531 26.625C122.642 26.9473 122.798 27.2256 122.997 27.46C123.202 27.6943 123.448 27.876 123.735 28.0049C124.028 28.1338 124.359 28.1982 124.728 28.1982C125.185 28.1982 125.61 28.1104 126.003 27.9346C126.401 27.7529 126.744 27.4805 127.031 27.1172L128.262 28.4531C128.062 28.7402 127.79 29.0156 127.444 29.2793C127.104 29.543 126.694 29.7598 126.214 29.9297C125.733 30.0938 125.185 30.1758 124.57 30.1758ZM135.047 27.8555V23.6191C135.047 23.3145 134.997 23.0537 134.897 22.8369C134.798 22.6143 134.642 22.4414 134.431 22.3184C134.226 22.1953 133.96 22.1338 133.632 22.1338C133.35 22.1338 133.107 22.1836 132.902 22.2832C132.697 22.377 132.539 22.5146 132.428 22.6963C132.316 22.8721 132.261 23.0801 132.261 23.3203H129.729C129.729 22.916 129.823 22.5322 130.011 22.1689C130.198 21.8057 130.471 21.4863 130.828 21.2109C131.185 20.9297 131.61 20.71 132.102 20.5518C132.6 20.3936 133.157 20.3145 133.772 20.3145C134.511 20.3145 135.167 20.4375 135.741 20.6836C136.315 20.9297 136.766 21.2988 137.095 21.791C137.429 22.2832 137.596 22.8984 137.596 23.6367V27.7061C137.596 28.2275 137.628 28.6553 137.692 28.9893C137.757 29.3174 137.85 29.6045 137.973 29.8506V30H135.416C135.293 29.7422 135.199 29.4199 135.135 29.0332C135.076 28.6406 135.047 28.248 135.047 27.8555ZM135.381 24.208L135.398 25.6406H133.983C133.649 25.6406 133.359 25.6787 133.113 25.7549C132.867 25.8311 132.665 25.9395 132.507 26.0801C132.348 26.2148 132.231 26.373 132.155 26.5547C132.085 26.7363 132.05 26.9355 132.05 27.1523C132.05 27.3691 132.099 27.5654 132.199 27.7412C132.299 27.9111 132.442 28.0459 132.63 28.1455C132.817 28.2393 133.037 28.2861 133.289 28.2861C133.67 28.2861 134.001 28.21 134.282 28.0576C134.563 27.9053 134.78 27.7178 134.932 27.4951C135.091 27.2725 135.173 27.0615 135.179 26.8623L135.847 27.9346C135.753 28.1748 135.624 28.4238 135.46 28.6816C135.302 28.9395 135.099 29.1826 134.853 29.4111C134.607 29.6338 134.311 29.8184 133.966 29.9648C133.62 30.1055 133.21 30.1758 132.735 30.1758C132.132 30.1758 131.584 30.0557 131.092 29.8154C130.605 29.5693 130.219 29.2324 129.931 28.8047C129.65 28.3711 129.51 27.8789 129.51 27.3281C129.51 26.8301 129.603 26.3877 129.791 26.001C129.978 25.6143 130.254 25.2891 130.617 25.0254C130.986 24.7559 131.446 24.5537 131.997 24.4189C132.548 24.2783 133.186 24.208 133.913 24.208H135.381ZM145.163 27.9258V16.5H147.712V30H145.418L145.163 27.9258ZM139.151 25.3594V25.1748C139.151 24.4482 139.233 23.7891 139.397 23.1973C139.561 22.5996 139.802 22.0869 140.118 21.6592C140.434 21.2314 140.824 20.9004 141.287 20.666C141.75 20.4316 142.277 20.3145 142.869 20.3145C143.426 20.3145 143.912 20.4316 144.328 20.666C144.75 20.9004 145.107 21.2344 145.4 21.668C145.699 22.0957 145.939 22.6025 146.121 23.1885C146.303 23.7686 146.434 24.4043 146.516 25.0957V25.5C146.434 26.1621 146.303 26.7773 146.121 27.3457C145.939 27.9141 145.699 28.4121 145.4 28.8398C145.107 29.2617 144.75 29.5898 144.328 29.8242C143.906 30.0586 143.414 30.1758 142.851 30.1758C142.26 30.1758 141.732 30.0557 141.269 29.8154C140.812 29.5752 140.426 29.2383 140.109 28.8047C139.799 28.3711 139.561 27.8613 139.397 27.2754C139.233 26.6895 139.151 26.0508 139.151 25.3594ZM141.682 25.1748V25.3594C141.682 25.752 141.712 26.1182 141.77 26.458C141.835 26.7979 141.937 27.0996 142.078 27.3633C142.224 27.6211 142.412 27.8232 142.64 27.9697C142.875 28.1104 143.159 28.1807 143.493 28.1807C143.927 28.1807 144.284 28.084 144.565 27.8906C144.847 27.6914 145.06 27.4189 145.207 27.0732C145.359 26.7275 145.447 26.3291 145.471 25.8779V24.7266C145.453 24.3574 145.4 24.0264 145.312 23.7334C145.23 23.4346 145.107 23.1797 144.943 22.9688C144.785 22.7578 144.586 22.5938 144.346 22.4766C144.111 22.3594 143.833 22.3008 143.511 22.3008C143.182 22.3008 142.901 22.377 142.667 22.5293C142.432 22.6758 142.242 22.8779 142.096 23.1357C141.955 23.3936 141.849 23.6982 141.779 24.0498C141.715 24.3955 141.682 24.7705 141.682 25.1748ZM154.831 27.3721C154.831 27.1904 154.778 27.0264 154.673 26.8799C154.567 26.7334 154.371 26.5986 154.084 26.4756C153.803 26.3467 153.395 26.2295 152.862 26.124C152.382 26.0186 151.933 25.8867 151.517 25.7285C151.107 25.5645 150.75 25.3682 150.445 25.1396C150.146 24.9111 149.912 24.6416 149.742 24.3311C149.572 24.0146 149.487 23.6543 149.487 23.25C149.487 22.8516 149.572 22.4766 149.742 22.125C149.918 21.7734 150.167 21.4629 150.489 21.1934C150.817 20.918 151.216 20.7041 151.684 20.5518C152.159 20.3936 152.692 20.3145 153.284 20.3145C154.11 20.3145 154.819 20.4463 155.411 20.71C156.009 20.9736 156.466 21.3369 156.782 21.7998C157.104 22.2568 157.265 22.7783 157.265 23.3643H154.734C154.734 23.1182 154.681 22.8984 154.576 22.7051C154.476 22.5059 154.318 22.3506 154.101 22.2393C153.89 22.1221 153.615 22.0635 153.275 22.0635C152.994 22.0635 152.751 22.1133 152.546 22.2129C152.341 22.3066 152.182 22.4355 152.071 22.5996C151.966 22.7578 151.913 22.9336 151.913 23.127C151.913 23.2734 151.942 23.4053 152.001 23.5225C152.065 23.6338 152.168 23.7363 152.308 23.8301C152.449 23.9238 152.631 24.0117 152.853 24.0938C153.082 24.1699 153.363 24.2402 153.697 24.3047C154.383 24.4453 154.995 24.6299 155.534 24.8584C156.073 25.0811 156.501 25.3857 156.817 25.7725C157.134 26.1533 157.292 26.6543 157.292 27.2754C157.292 27.6973 157.198 28.084 157.011 28.4355C156.823 28.7871 156.554 29.0947 156.202 29.3584C155.85 29.6162 155.429 29.8184 154.936 29.9648C154.45 30.1055 153.902 30.1758 153.293 30.1758C152.408 30.1758 151.658 30.0176 151.043 29.7012C150.433 29.3848 149.971 28.9834 149.654 28.4971C149.344 28.0049 149.188 27.501 149.188 26.9854H151.588C151.599 27.3311 151.687 27.6094 151.851 27.8203C152.021 28.0312 152.235 28.1836 152.493 28.2773C152.757 28.3711 153.041 28.418 153.346 28.418C153.674 28.418 153.946 28.374 154.163 28.2861C154.38 28.1924 154.544 28.0693 154.655 27.917C154.772 27.7588 154.831 27.5771 154.831 27.3721Z" fill="black" fill-opacity="0.85"/>
</svg>
