<svg width="599" height="536" viewBox="0 0 599 536" fill="none" xmlns="http://www.w3.org/2000/svg">
<path d="M302.378 170.978C302.297 171.01 302.242 171.064 302.173 171.108C297.469 170.622 292.589 174.97 291.694 179.543C290.402 186.138 295.744 192.88 302.406 193.286C309.199 193.7 315.477 188.285 315.754 181.439C316.04 174.433 309.374 168.153 302.378 170.978ZM305.476 172.761C309.597 172.768 312.893 175.801 313.268 179.923C310.462 179.873 307.654 179.915 304.848 179.972C305.04 177.571 305.232 175.172 305.464 172.774C305.467 172.768 305.472 172.767 305.476 172.761ZM294.51 179.75C295.547 175.681 299.199 173.904 302.952 173.21C302.74 175.467 302.574 177.726 302.439 179.989C300.243 179.984 298.004 179.998 295.966 180.734C295.44 180.925 295.438 181.617 295.966 181.808C297.946 182.524 300.151 182.555 302.302 182.554C302.187 185.24 302.135 187.927 302.184 190.619C297.211 190.079 293.258 184.664 294.51 179.75ZM304.027 190.633C304.233 187.944 304.43 185.255 304.636 182.568C307.455 182.625 310.277 182.666 313.097 182.621C312.185 186.958 308.402 190.249 304.027 190.633Z" fill="#87847D"/>
<path d="M415.208 215.049C412.219 205.029 407.411 195.41 403.982 185.497C401.046 177.014 399.506 166.596 395.075 158.729C395.293 157.758 394.761 156.595 393.467 156.58C365.445 156.267 337.41 156.474 309.386 156.447C295.825 156.435 282.263 156.421 268.702 156.407C255.222 156.395 241.08 155.169 227.711 157.031C227.336 157.083 227.097 157.347 226.978 157.669C226.742 157.773 226.52 157.922 226.357 158.171C220.971 166.338 217.283 176.027 212.799 184.74C208.244 193.592 203.421 202.317 199.138 211.307C198.903 211.802 198.992 212.26 199.228 212.606C199.152 213.362 199.624 214.215 200.618 214.346C203.091 214.669 205.58 214.93 208.074 215.159C208.036 241.909 209.555 268.659 209.442 295.428C209.333 321.681 208.682 347.927 207.975 374.171C206.54 427.562 204.805 480.978 206.3 534.388C206.351 536.207 208.884 536.384 209.359 534.929C226.805 536.499 244.82 535.219 262.31 535.138C280.878 535.051 299.446 534.968 318.014 534.879C336.129 534.792 354.244 534.706 372.358 534.62C375.748 534.603 402.7 537.637 400.326 529.826C400.862 529.627 401.267 529.152 401.213 528.391C399.391 502.327 402.469 475.686 403.107 449.584C403.742 423.645 403.99 397.7 404.245 371.756C404.748 320.634 406.06 269.43 405.325 218.312L412.197 218.379C413.304 218.39 413.885 217.591 413.957 216.737C414.742 216.678 415.49 215.988 415.208 215.049ZM399.579 183.095C397.376 182.427 395.515 181.391 393.62 179.704C392.615 178.81 390.894 179.391 390.9 180.831C390.919 187.535 384.918 190.107 379.275 188.804C374.977 187.812 372.18 185.099 369.577 181.587C369.047 180.87 367.807 180.399 367.116 181.27C361.007 188.963 350.522 189.231 344.701 181.049C344.022 180.093 342.669 180 342.008 181.049C337.023 188.955 327.472 188.441 322.032 181.285C321.851 181.048 321.624 180.928 321.395 180.893C321.393 180.786 321.403 180.683 321.399 180.576C321.304 178.005 320.557 175.574 319.333 173.476C324.079 175.965 329.413 174.178 332.087 169.677C336.99 178.019 351.291 175.747 355.426 166.894C360.684 176.389 373.171 176.363 379.589 168.278C383.597 173.123 389.818 175.126 395.985 173.143C397.09 176.541 398.377 179.891 399.579 183.095ZM228.912 159.4C241.923 161.057 255.622 159.952 268.701 159.964C282.263 159.975 295.823 159.987 309.385 160C337.337 160.024 365.3 160.281 393.249 160.024C393.395 163.352 394.11 166.803 395.097 170.25C389.522 171.82 384.055 169.92 380.904 164.793C380.29 163.794 378.813 163.769 378.206 164.793C372.891 173.741 361.958 173.071 356.439 164.749C356.188 164.371 355.836 164.254 355.512 164.305C354.783 163.74 353.457 163.825 353.058 164.982C350.357 172.833 335.552 175.4 333.516 165.228C333.236 163.832 330.995 163.844 330.707 165.228C329.617 170.454 322.334 173.272 317.794 170.741C317.606 170.637 317.413 170.642 317.242 170.705C314.573 167.915 310.859 166.251 306.772 166.591C306.707 166.519 306.659 166.443 306.572 166.381C305.649 165.73 304.982 164.888 304.76 163.788C304.785 163.617 304.815 163.448 304.829 163.274C304.965 161.516 302.195 161.512 302.083 163.274C302.021 164.221 301.775 165.15 301.295 165.97C301.114 166.279 300.676 166.932 300.643 167.461C297.492 168.084 294.417 169.268 291.933 171.085C291.731 170.816 291.419 170.614 291.078 170.576C289.744 170.431 288.478 170.878 287.132 170.856C285.522 170.83 283.856 170.419 282.392 169.747C279.58 168.455 277.528 166.238 276.133 163.522C275.772 162.821 274.878 163.068 274.618 163.652C274.214 163.74 273.839 163.999 273.654 164.507C270.054 174.403 257.392 171.672 253.125 164.294C252.508 163.227 251.051 163.569 250.667 164.615C248.633 170.154 243.892 173.283 238.085 173.511C234.308 173.659 226.752 172.491 225.533 167.816C226.821 165.045 227.992 162.243 228.912 159.4ZM318.299 185.929C315.802 193.786 307.519 196.801 299.879 194.855C293.113 193.13 287.165 186.704 288.913 179.313C290.573 172.292 297.828 169.853 304.131 168.538C304.363 168.831 304.73 169.031 305.194 168.964C315.169 167.524 321.17 176.895 318.299 185.929ZM216.426 185.361C219.021 180.322 221.957 175.194 224.522 169.954C226.366 174.169 232.686 175.827 236.947 176.021C243.611 176.327 249.23 173.232 252.22 167.644C258.259 174.728 271.838 176.682 275.617 166.935C276.944 169.386 279.13 171.298 281.735 172.465C283.799 173.389 286.789 174.104 289.267 173.596C287.377 175.877 286.241 178.762 286.375 182.322C286.376 182.371 286.386 182.416 286.389 182.466C286.241 182.548 286.097 182.657 285.962 182.817C279.718 190.199 269.483 190.042 264.226 181.665C263.491 180.494 261.78 180.752 261.357 182.039C257.45 193.961 242.366 194.061 237.37 182.912C236.906 181.877 235.195 181.936 234.711 182.912C230.817 190.791 222.271 191.896 215.807 186.549C216.014 186.152 216.221 185.758 216.426 185.361ZM214.945 188.219C221.074 194.925 230.81 193.643 235.922 186.768C242.492 197.412 257.617 196.461 263.26 185.551C269.569 192.778 280.205 193.317 287.041 186.132C289.265 193.28 296.757 197.68 304.271 197.81C313.149 197.963 320.173 192.024 321.248 183.542C326.434 191.869 337.422 191.54 343.419 184.37C350.165 191.833 361.061 192.198 368.152 184.807C372.055 189.535 377.449 193.513 383.921 192.528C388.838 191.781 392.584 188.324 393.722 183.8C395.828 185.23 398.043 186.14 400.787 186.671C400.823 186.678 400.856 186.676 400.891 186.68C400.997 186.975 401.113 187.282 401.215 187.573C402.642 191.675 404.05 195.933 405.59 200.15C401.862 204.886 397.784 204.834 392.253 202.912C388.269 201.527 385.133 199.125 381.491 197.124C381.275 197.005 381.032 196.997 380.803 197.053C380.025 196.854 379.174 197.157 378.985 198.185C377.932 203.914 372.62 207.531 366.826 206.4C362.076 205.473 358.622 201.597 356.376 197.575C355.683 196.332 353.742 196.622 353.371 197.967C350.112 209.781 337.087 202.65 331.519 197.518C331.338 197.352 331.117 197.283 330.898 197.286C330.234 196.469 328.863 196.227 328.215 197.424C322.507 207.956 309.552 209.64 301.567 200.588C300.683 199.585 299.287 200.268 298.873 201.299C295.648 209.307 282.606 202.768 278.953 198.876C278.655 197.67 276.563 197.046 275.972 198.431C270.294 211.764 255.169 206.712 247.568 198.494C246.829 197.695 245.629 198.011 245.075 198.815C239.088 207.505 227.55 207.192 221.835 198.414C221.366 197.695 220.118 197.312 219.489 198.113C216.308 202.158 212.068 206.921 206.415 204.042C209.386 198.838 212.193 193.539 214.945 188.219ZM303.067 531.588C290.235 531.666 277.402 531.746 264.57 531.824C264.57 531.82 264.573 531.816 264.573 531.812C265.005 505.575 264.171 479.314 264.622 453.065C277.434 455.215 291.429 453.79 304.361 453.863C318.828 453.945 333.295 453.989 347.762 454.039C347.901 454.039 348.012 454 348.128 453.965C347.393 466.494 348.533 479.308 348.943 491.824C349.37 504.865 348.919 518.354 350.469 531.306C334.669 531.399 318.868 531.491 303.067 531.588ZM264.49 451.786C272.569 437.873 287.133 431.105 303.029 430.989C319.061 430.871 341.043 434.443 346.591 451.593C332.513 451.612 318.437 451.577 304.36 451.514C291.37 451.458 277.38 449.831 264.49 451.786ZM401.042 371.756C400.784 397.7 400.535 423.646 399.899 449.584C399.262 475.521 396.224 502.001 397.976 527.908C397.049 528.182 396.319 529.198 396.938 530.299C397.118 530.619 387.103 531.088 385.946 531.094C382.323 531.116 378.7 531.138 375.077 531.159C367.504 531.204 359.932 531.249 352.358 531.295C353.092 517.823 351.703 503.952 351.266 490.461C350.853 477.745 351.178 464.74 349.438 452.13C349.39 451.787 349.133 451.678 348.865 451.705C348.329 432.751 319.633 428.656 305.512 428.268C288.215 427.793 269.151 434.718 262.36 451.893C262.192 452.315 262.405 452.661 262.729 452.853C261.73 479.03 260.891 505.659 262.767 531.812C262.768 531.821 262.772 531.827 262.774 531.835C260.808 531.847 258.843 531.86 256.877 531.87C241.188 531.966 225.051 531.051 209.415 532.61C207.929 479.791 209.556 426.975 210.942 374.172C211.631 347.93 212.216 321.683 212.311 295.43C212.407 268.867 212.964 241.783 210.169 215.331C224.362 216.5 238.801 216.391 252.955 216.672C270.478 217.021 288.005 217.156 305.531 217.329L402.993 218.289C401.246 269.393 401.548 320.623 401.042 371.756ZM305.528 213.663C288.449 213.497 271.371 213.364 254.295 213.036C236.907 212.703 219.43 211.269 202.045 211.395C203.252 209.464 204.421 207.51 205.565 205.542C210.439 210.005 216.467 205.779 220.418 201.549C227.244 210.284 239.421 210.394 246.577 202.003C255.8 210.79 272.052 214.255 278.424 200.715C283.188 207.198 295.646 211.233 300.758 204.346C310.017 212.994 324.525 211.011 330.803 199.558C336.998 206.877 350.217 211.529 355.311 201.975C358.766 206.684 363.897 210.349 370.016 209.884C375.664 209.455 380.412 205.679 381.878 200.338C387.996 205.995 402.471 211.801 407.091 204.107C408.534 207.764 410.118 211.343 411.969 214.705L305.528 213.663Z" fill="#87847D"/>
<path d="M305.398 494.804C305.474 483.685 305.63 472.56 305.5 461.442C305.494 460.988 305.249 460.703 304.935 460.563C304.975 460.264 304.827 459.921 304.509 459.844C294.055 457.299 282.152 458.277 271.438 457.841C270.73 457.812 270.358 458.296 270.289 458.839C270.206 458.879 270.13 458.939 270.093 459.037C268.342 463.694 268.718 468.972 268.534 473.905C268.316 479.728 268.175 485.553 268.093 491.379C267.927 503.003 267.719 514.721 268.356 526.333C268.426 527.596 270.026 527.796 270.535 526.916C281.278 528.831 292.377 528.959 303.249 528.332C303.473 529.141 304.637 529.085 304.738 528.167C305.922 517.172 305.323 505.85 305.398 494.804ZM270.701 525.299C270.784 513.993 270.465 502.686 270.64 491.376C270.724 485.998 270.857 480.622 271.02 475.246C271.17 470.32 271.987 465.034 271.005 460.176C271.135 460.231 271.274 460.276 271.438 460.283C281.825 460.727 293.165 462.55 303.525 461.159C303.498 461.248 303.465 461.333 303.462 461.44C303.162 472.556 303.148 483.683 303.054 494.802C302.966 505.117 302.304 515.66 303.044 525.975C292.197 526.426 281.529 525.842 270.701 525.299Z" fill="#87847D"/>
<path d="M344.812 491.843C344.448 481.548 344.897 470.804 343.291 460.617C343.631 459.896 343.309 458.869 342.277 458.897C332.701 459.165 322.353 457.674 312.919 458.948C312.426 459.015 312.523 459.727 312.919 459.855C321.552 462.627 332.513 461.817 341.559 461.337C340.709 471.808 341.936 482.726 342.292 493.206C342.654 503.874 342.818 514.584 343.745 525.224C333.396 525.371 322.946 525.187 312.637 526.162C313.033 515.423 312.291 504.567 312.263 493.82C312.232 482.718 312.455 471.623 312.52 460.521C312.529 459.121 310.398 459.128 310.351 460.521C309.623 482.412 308.573 505.291 310.595 527.116C310.689 528.128 311.954 528.337 312.426 527.74C322.946 528.379 333.573 527.795 344.104 527.578C344.749 527.565 345.104 527.129 345.2 526.638C345.431 526.501 345.608 526.265 345.615 525.895C345.857 514.547 345.212 503.178 344.812 491.843Z" fill="#87847D"/>
<path d="M341.512 446.157C322.435 430.291 289.932 428.482 271.959 447.346C271.854 447.457 271.809 447.589 271.803 447.72C271.386 447.881 271.382 448.506 271.907 448.535C283.203 449.152 294.636 448.343 305.952 448.356C317.308 448.37 328.647 448.676 339.999 448.938C340.553 448.952 340.834 448.553 340.86 448.129C341.659 447.966 342.283 446.797 341.512 446.157ZM274.049 447.421C276.47 445.888 278.9 444.468 281.358 443.165C281.032 444.367 280.935 445.707 281.453 446.736C278.971 446.925 276.501 447.142 274.049 447.421ZM282.919 446.64C282.889 445.915 282.579 445.215 282.528 444.48C282.483 443.83 282.538 443.156 282.647 442.502C284.145 441.741 285.651 441.013 287.182 440.363C286.894 440.976 286.688 441.624 286.576 442.372C286.408 443.484 286.182 445.027 287.065 445.867C287.428 446.213 287.936 446.023 288.104 445.592C288.46 444.685 288.008 443.651 288.041 442.683C288.073 441.752 288.247 440.725 288.545 439.795C290.338 439.084 292.157 438.451 294.021 437.925C293.781 439.151 293.589 440.382 293.483 441.628C293.365 443.028 293.131 444.487 293.777 445.769C294.043 446.297 294.804 446.113 294.966 445.614C295.375 444.354 295 442.938 294.935 441.628C294.871 440.309 294.886 438.989 294.931 437.67C296.291 437.313 297.667 436.991 299.076 436.751C298.936 438.682 298.968 440.615 298.991 442.55C298.999 443.263 298.854 444.183 299.051 444.871C299.09 445.007 299.324 445.458 299.489 445.643C299.512 445.78 299.566 445.899 299.649 446.012C294.04 446.06 288.453 446.259 282.919 446.64ZM301.137 446.004C301.137 446.004 301.138 446.002 301.14 446C301.356 445.632 301.315 445.42 301.216 445.022C300.997 444.139 300.726 443.536 300.667 442.55C300.547 440.551 300.434 438.554 300.142 436.572C301.462 436.377 302.804 436.234 304.175 436.152C304.162 439.258 304.005 442.798 304.884 445.646C304.928 445.787 305.023 445.899 305.138 445.984C303.804 445.978 302.471 445.998 301.137 446.004ZM311.344 446.079C309.591 446.045 307.839 446.004 306.085 445.99C306.173 445.908 306.243 445.799 306.265 445.647C306.698 442.665 306.028 439.201 305.536 436.103C305.823 436.095 306.106 436.074 306.395 436.071C308.187 436.048 309.949 436.134 311.69 436.302C311.202 439.387 310.511 443.119 311.344 446.079ZM312.957 446.106C313.218 444.508 312.963 442.864 312.911 441.247C312.859 439.639 312.868 438.035 312.924 436.426C314.752 436.65 316.54 437.004 318.309 437.423C318.032 438.979 317.984 440.585 318.011 442.162C318.035 443.536 318.003 444.999 318.504 446.285C316.654 446.226 314.813 446.149 312.957 446.106ZM320.034 446.334C320.245 444.959 319.893 443.552 319.805 442.162C319.712 440.691 319.743 439.217 319.69 437.745C321.519 438.233 323.313 438.83 325.078 439.511C325.162 441.852 325.236 444.198 325.426 446.532C323.63 446.464 321.838 446.393 320.034 446.334ZM326.378 440.041C327.989 440.71 329.563 441.479 331.118 442.295C331.059 443.216 331.134 444.143 331.173 445.063C331.199 445.712 331.158 446.256 331.41 446.765C329.994 446.707 328.579 446.651 327.157 446.595C326.966 444.405 326.671 442.221 326.378 440.041ZM332.888 446.824C333.143 446.167 332.963 445.573 332.82 444.84C332.699 444.224 332.582 443.606 332.444 442.991C334.654 444.22 336.811 445.58 338.902 447.079C336.91 446.992 334.902 446.906 332.888 446.824Z" fill="#87847D"/>
<path d="M300.526 494.063C299.961 492.564 297.623 490.916 296.074 492.073C295.898 492.203 295.783 492.364 295.719 492.534C294.278 493.026 293.773 494.939 294.169 496.291C294.689 498.065 296.651 498.86 298.339 498.297C300.08 497.714 301.196 495.842 300.526 494.063ZM297.457 496.217C296.779 496.38 296.288 496.018 296.101 495.368C295.929 494.766 296.104 494.223 296.404 493.727C296.447 493.736 296.484 493.751 296.529 493.755C297.357 493.829 298.243 493.821 298.521 494.832C298.713 495.535 298.085 496.067 297.457 496.217Z" fill="#87847D"/>
<path d="M321.328 493.04C320.735 491.689 319.019 490.916 317.694 491.504C317.656 491.496 317.621 491.478 317.58 491.475C315.617 491.397 313.867 492.989 314.213 495.021C314.572 497.126 316.732 498.288 318.722 497.669C320.582 497.09 322.193 495.013 321.328 493.04ZM317.813 495.462C316.416 495.654 316.167 494.116 316.913 493.313C317.207 493.729 317.764 493.964 318.315 493.65C318.722 493.418 319.208 493.621 319.248 494.132C319.301 494.841 318.403 495.383 317.813 495.462Z" fill="#87847D"/>
<path d="M263.337 366.303C263.446 365.586 262.993 365.069 262.454 364.861C262.431 364.322 262.073 363.801 261.36 363.776C252.373 363.477 243.325 363.665 234.331 363.734C230.647 363.761 222.987 362.023 220.706 365.673C220.698 365.685 220.704 365.696 220.697 365.71C220.162 365.774 219.674 366.137 219.68 366.835C219.823 384.179 219.006 401.504 219.09 418.839C218.599 419.395 218.817 420.429 219.791 420.479C233.724 421.211 247.89 420.52 261.829 420.056C262.723 420.025 263.177 419.341 263.202 418.65C263.392 418.535 263.535 418.335 263.539 418.022C263.779 400.875 260.765 383.337 263.337 366.303ZM261.832 417.191C248.215 417.297 234.377 417.209 220.801 418.416C222.515 401.322 222.344 383.995 222.068 366.835C222.064 366.572 221.975 366.372 221.855 366.199C228.031 365.375 234.88 366.294 241.09 366.24C247.686 366.184 254.3 366.317 260.893 366.076C258.347 382.692 260.056 400.551 261.905 417.206C261.877 417.204 261.859 417.191 261.832 417.191Z" fill="#87847D"/>
<path d="M258.189 411.781C258.135 405.473 257.942 398.874 256.877 392.66C256.778 392.083 256.173 391.994 255.758 392.233C255.659 391.891 255.393 391.594 254.983 391.598C245.041 391.677 235.198 391.965 225.243 391.636C224.72 391.62 224.483 392.257 224.687 392.636C224.65 392.721 224.611 392.803 224.599 392.904C224.141 396.568 223.871 400.266 223.702 403.954C223.558 407.111 223.066 410.516 224.101 413.533C224.125 413.603 224.167 413.648 224.214 413.687C223.593 413.889 223.604 414.857 224.356 414.874C235.398 415.104 246.725 414.379 257.724 413.39C258.63 413.308 258.8 412.155 258.189 411.781ZM224.68 413.615C224.701 413.588 224.729 413.569 224.743 413.533C225.877 410.574 225.594 407.1 225.763 403.954C225.956 400.329 226.225 396.708 226.41 393.081C235.842 394.406 245.805 394.706 255.205 393.244C255.264 393.235 255.304 393.207 255.353 393.188C255.235 399.294 255.988 405.631 256.819 411.686C246.148 412.03 235.291 412.488 224.68 413.615Z" fill="#87847D"/>
<path d="M255.568 385.636C256.718 380.215 257.094 374.648 256.944 369.114C256.935 368.767 256.784 368.519 256.573 368.357C256.433 367.947 256.045 367.632 255.481 367.772C245.639 370.224 235.678 368.617 225.668 368.7C225.276 368.703 225.079 368.951 225.044 369.229C224.735 369.339 224.475 369.608 224.425 370.029C224.153 372.389 224.063 374.766 223.952 377.138C223.844 379.44 223.419 381.956 223.653 384.246C223.799 385.664 224.837 386.929 226.294 386.255C226.621 386.104 226.466 385.535 226.108 385.568C225.713 385.603 226.222 371.625 226.205 370.096C235.352 371.204 245.91 372.672 254.899 369.926C254.796 375.124 254.456 380.29 254.105 385.479C244.641 385.746 234.215 384.231 225.089 386.789C224.478 386.961 224.569 388.023 225.245 387.94C235.229 386.693 245.39 389.38 255.266 387.128C255.986 386.964 256.028 386.035 255.568 385.636Z" fill="#87847D"/>
<path d="M325.76 364.537C325.591 363.159 323.595 363.074 323.547 364.537C323.249 373.569 323.998 382.692 324.18 391.731C324.36 400.614 324.235 409.578 324.895 418.44C311.224 418.837 297.018 416.4 283.515 418.774C284.197 401.392 282.78 383.803 282.046 366.432C295.409 366.52 309.358 366.744 322.628 365.349C323.832 365.223 323.859 363.549 322.628 363.454C309.191 362.43 294.883 363.495 281.475 364.72C281.339 364.732 281.222 364.769 281.119 364.823C280.426 364.646 279.594 365.001 279.623 365.925C280.153 383.534 279.979 401.418 281.936 418.94C281.989 419.421 282.357 419.676 282.722 419.694C282.735 420.197 283.071 420.717 283.666 420.707C297.377 420.472 311.761 423.3 325.311 420.867C326.086 420.727 326.305 419.971 326.119 419.336C326.204 419.232 326.27 419.105 326.286 418.937C327.999 401.399 327.908 382.032 325.76 364.537Z" fill="#87847D"/>
<path d="M321.445 395.636C321.344 394.812 320.308 394.644 319.978 395.235C319.944 395.228 319.918 395.211 319.881 395.206C308.997 394.211 297.871 394.193 286.978 395.034C286.576 395.064 286.369 395.37 286.359 395.674C286.073 395.537 285.687 395.663 285.663 396.096C285.314 401.985 285.537 408.02 286.021 413.896C286.063 414.404 286.463 414.661 286.853 414.661C286.861 414.663 286.864 414.672 286.872 414.674C297.535 416.389 310.141 415.44 320.818 414.147C321.213 414.099 321.434 413.819 321.49 413.519C321.644 413.412 321.76 413.242 321.781 412.995C322.248 407.237 322.152 401.376 321.445 395.636ZM287.61 413.802C287.658 407.976 287.433 402.02 286.675 396.24C286.76 396.285 286.857 396.317 286.976 396.321C297.927 396.663 308.917 396.955 319.871 397.073C319.864 402.276 320.052 407.505 320.402 412.692C309.874 412.396 298.029 412.126 287.61 413.802Z" fill="#87847D"/>
<path d="M319.701 370.738C319.567 370.18 318.813 370.023 318.417 370.342C318.413 369.904 318.137 369.452 317.634 369.502C307.444 370.543 297.544 369.002 287.447 369.452C286.885 369.476 286.79 370.236 287.317 370.417C296.631 373.635 308.272 372.419 317.85 371.093C317.972 371.077 318.071 371.029 318.153 370.965C317.32 376.21 318.011 382.514 318.739 387.876C318.673 387.855 318.61 387.83 318.536 387.829C308.25 387.514 297.636 387.895 287.317 388.291C287.318 382.549 287.601 376.682 287.384 370.956C287.352 370.128 286.062 369.87 285.879 370.752C284.716 376.333 284.987 382.765 285.922 388.376C285.518 388.547 285.429 389.249 285.953 389.33C296.45 390.935 308.261 391.201 318.748 389.391C318.866 389.37 318.964 389.328 319.043 389.273C319.392 389.639 320.194 389.362 320.235 388.768C320.631 383.156 321.019 376.224 319.701 370.738Z" fill="#87847D"/>
<path d="M388.326 390.168C387.975 381.202 388.604 372.097 387.906 363.172C387.831 362.218 386.913 361.985 386.332 362.389C386.231 362.358 386.136 362.319 386.014 362.312C385.607 362.288 385.201 362.264 384.794 362.24C384.589 362.227 384.417 362.294 384.28 362.404C370.309 363.209 356.178 362.565 342.282 363.77C342.006 363.793 341.802 363.991 341.699 364.225C341.117 363.855 340.238 364.081 340.188 365.012C339.706 373.852 340.585 382.907 340.942 391.752C341.3 400.579 341.573 409.421 342.728 418.187C341.721 418.297 341.712 419.686 342.737 419.775C357.559 421.061 372.699 419.782 387.514 418.808C388.253 418.76 388.685 418.265 388.834 417.7C389.225 417.821 389.746 417.586 389.741 417.087C389.645 408.109 388.677 399.142 388.326 390.168ZM387.511 415.916C372.987 416.879 358.338 416.729 343.851 418.09C344.309 409.313 343.883 400.527 343.549 391.752C343.212 382.927 343.365 373.842 342.207 365.089C356.326 367.165 371.55 365.811 385.718 364.608C384.759 373.427 385.401 382.705 385.81 391.516C386.189 399.706 386.658 407.99 388.205 416.058C388.01 415.962 387.788 415.899 387.511 415.916Z" fill="#87847D"/>
<path d="M383.734 394.044C383.687 393.767 383.527 393.609 383.332 393.532C383.201 393.21 382.924 392.963 382.516 393.004C371.052 394.158 359.704 394.551 348.198 393.73C347.713 393.696 347.454 394.192 347.513 394.603C347.163 394.499 346.741 394.677 346.723 395.169C346.508 401.403 346.778 407.675 347.015 413.905C347.059 415.044 348.818 415.054 348.794 413.905C348.659 407.666 348.552 401.385 347.967 395.169C347.964 395.142 347.952 395.124 347.946 395.098C347.969 395.104 347.985 395.117 348.009 395.121C359.401 396.698 370.788 396.771 382.149 394.913C381.92 400.422 382.597 406.108 383.238 411.59C371.643 412.326 359.484 412.472 348.098 414.827C347.592 414.931 347.738 415.671 348.215 415.694C359.824 416.249 371.845 414.486 383.406 413.416C383.65 413.394 383.833 413.286 383.977 413.146C384.31 413.179 384.647 412.986 384.648 412.531C384.668 406.437 384.753 400.064 383.734 394.044Z" fill="#87847D"/>
<path d="M382.207 389.024C382.325 388.943 382.397 388.801 382.297 388.669C380.873 386.792 382.192 380.704 382.244 378.491C382.31 375.754 382.543 372.952 381.932 370.273C381.808 369.728 381.187 369.572 380.753 369.779C381.205 369.107 380.735 367.991 379.75 368.287C368.929 371.542 357.933 367.352 347.085 370.038C346.716 370.13 346.577 370.499 346.632 370.822C346.625 370.866 346.605 370.899 346.603 370.946C346.368 377.013 346.529 383.174 346.968 389.228C346.982 389.409 347.055 389.544 347.153 389.644C347.134 389.966 347.331 390.302 347.761 390.321C359.013 390.824 370.322 390.997 381.582 390.611C382.501 390.578 382.705 389.526 382.207 389.024ZM348.224 389.031C348.605 383.138 348.72 377.152 348.464 371.252C359.042 370.481 370.085 373.929 380.27 370.168C380.334 370.145 380.376 370.103 380.43 370.071C380.395 370.133 380.36 370.194 380.343 370.271C379.417 374.256 379.933 378.793 380.142 382.854C380.243 384.8 379.975 387.414 381.551 388.758C370.455 388.378 359.314 388.544 348.224 389.031Z" fill="#87847D"/>
<path d="M261.909 297.548C262.017 296.831 261.565 296.314 261.026 296.106C261.002 295.568 260.645 295.046 259.932 295.022C250.944 294.724 241.896 294.911 232.903 294.98C229.218 295.007 221.558 293.269 219.278 296.919C219.27 296.931 219.275 296.942 219.268 296.956C218.733 297.02 218.245 297.384 218.251 298.081C218.395 315.423 217.578 332.75 217.661 350.085C217.17 350.641 217.388 351.675 218.362 351.725C232.295 352.457 246.462 351.766 260.401 351.302C261.295 351.271 261.748 350.587 261.773 349.896C261.964 349.78 262.106 349.581 262.11 349.268C262.35 332.12 259.337 314.582 261.909 297.548ZM260.403 348.436C246.787 348.542 232.948 348.454 219.372 349.66C221.086 332.567 220.915 315.238 220.639 298.08C220.635 297.817 220.546 297.617 220.427 297.444C226.602 296.62 233.451 297.538 239.661 297.485C246.257 297.429 252.872 297.562 259.464 297.32C256.918 313.937 258.628 331.796 260.476 348.451C260.449 348.45 260.431 348.436 260.403 348.436Z" fill="#87847D"/>
<path d="M256.76 343.027C256.707 336.72 256.513 330.12 255.448 323.906C255.349 323.329 254.745 323.24 254.329 323.479C254.23 323.137 253.964 322.84 253.554 322.844C243.612 322.923 233.769 323.211 223.815 322.882C223.291 322.866 223.054 323.503 223.258 323.882C223.221 323.967 223.183 324.049 223.17 324.15C222.712 327.814 222.442 331.512 222.274 335.2C222.13 338.358 221.637 341.763 222.673 344.779C222.696 344.849 222.738 344.894 222.785 344.934C222.164 345.137 222.175 346.105 222.928 346.121C233.969 346.352 245.296 345.626 256.295 344.636C257.202 344.554 257.372 343.401 256.76 343.027ZM223.251 344.861C223.272 344.834 223.301 344.815 223.314 344.779C224.448 341.82 224.166 338.346 224.334 335.2C224.528 331.575 224.797 327.954 224.982 324.327C234.414 325.652 244.376 325.952 253.777 324.491C253.836 324.481 253.875 324.453 253.925 324.434C253.807 330.54 254.56 336.877 255.39 342.932C244.719 343.276 233.862 343.734 223.251 344.861Z" fill="#87847D"/>
<path d="M254.139 316.883C255.289 311.461 255.665 305.895 255.516 300.361C255.506 300.014 255.355 299.766 255.144 299.604C255.004 299.194 254.616 298.877 254.053 299.019C244.211 301.47 234.25 299.863 224.239 299.947C223.847 299.951 223.651 300.198 223.615 300.477C223.307 300.587 223.046 300.856 222.997 301.277C222.724 303.636 222.635 306.014 222.524 308.386C222.415 310.688 221.99 313.204 222.225 315.494C222.37 316.912 223.408 318.177 224.866 317.503C225.192 317.352 225.037 316.783 224.679 316.816C224.284 316.851 224.793 302.873 224.776 301.344C233.923 302.452 244.481 303.92 253.47 301.174C253.367 306.372 253.027 311.538 252.676 316.727C243.213 316.994 232.787 315.479 223.66 318.037C223.049 318.209 223.141 319.271 223.817 319.188C233.8 317.941 243.961 320.627 253.837 318.376C254.557 318.21 254.6 317.282 254.139 316.883Z" fill="#87847D"/>
<path d="M324.33 295.78C324.162 294.402 322.167 294.317 322.117 295.78C321.82 304.811 322.569 313.935 322.751 322.973C322.93 331.857 322.806 340.82 323.465 349.683C309.795 350.079 295.589 347.642 282.086 350.016C282.768 332.634 281.351 315.045 280.616 297.674C293.979 297.762 307.929 297.987 321.199 296.591C322.403 296.465 322.43 294.791 321.199 294.696C307.762 293.672 293.454 294.738 280.046 295.963C279.91 295.976 279.792 296.013 279.689 296.066C278.997 295.889 278.165 296.244 278.192 297.167C278.723 314.777 278.549 332.66 280.505 350.182C280.559 350.663 280.926 350.918 281.291 350.936C281.305 351.44 281.642 351.96 282.235 351.949C295.947 351.715 310.33 354.542 323.881 352.109C324.655 351.97 324.875 351.213 324.688 350.578C324.773 350.474 324.839 350.348 324.857 350.179C326.569 332.641 326.479 313.274 324.33 295.78Z" fill="#87847D"/>
<path d="M320.016 326.878C319.914 326.054 318.879 325.886 318.547 326.477C318.513 326.471 318.487 326.453 318.45 326.449C307.566 325.453 296.441 325.435 285.547 326.276C285.145 326.306 284.938 326.612 284.929 326.916C284.642 326.779 284.257 326.905 284.232 327.338C283.884 333.227 284.106 339.262 284.59 345.138C284.632 345.646 285.033 345.903 285.422 345.903C285.43 345.905 285.433 345.914 285.441 345.916C296.105 347.631 308.711 346.682 319.388 345.389C319.783 345.341 320.003 345.062 320.06 344.761C320.213 344.654 320.33 344.484 320.35 344.238C320.819 338.479 320.723 332.619 320.016 326.878ZM286.18 345.044C286.228 339.216 286.004 333.262 285.245 327.482C285.33 327.528 285.428 327.559 285.547 327.563C296.498 327.906 307.488 328.197 318.442 328.315C318.435 333.518 318.623 338.748 318.972 343.935C308.445 343.638 296.6 343.368 286.18 345.044Z" fill="#87847D"/>
<path d="M318.272 301.981C318.137 301.423 317.383 301.267 316.987 301.583C316.983 301.146 316.707 300.694 316.204 300.744C306.014 301.785 296.114 300.245 286.017 300.694C285.454 300.718 285.361 301.478 285.887 301.659C295.201 304.877 306.842 303.661 316.421 302.335C316.543 302.318 316.641 302.27 316.724 302.207C315.89 307.452 316.581 313.756 317.309 319.117C317.243 319.097 317.18 319.072 317.106 319.071C306.82 318.755 296.206 319.137 285.887 319.533C285.889 313.791 286.171 307.923 285.954 302.198C285.923 301.369 284.633 301.112 284.449 301.993C283.286 307.575 283.558 314.007 284.493 319.618C284.088 319.789 283.999 320.491 284.523 320.572C295.02 322.176 306.831 322.442 317.319 320.632C317.437 320.612 317.534 320.569 317.614 320.514C317.962 320.881 318.764 320.604 318.805 320.01C319.201 314.399 319.589 307.467 318.272 301.981Z" fill="#87847D"/>
<path d="M386.896 321.41C386.545 312.446 387.176 303.339 386.477 294.414C386.401 293.46 385.484 293.227 384.903 293.631C384.801 293.6 384.707 293.561 384.585 293.554C384.177 293.53 383.77 293.506 383.364 293.483C383.16 293.471 382.987 293.538 382.85 293.648C368.88 294.453 354.749 293.808 340.853 295.013C340.577 295.037 340.371 295.234 340.27 295.469C339.687 295.098 338.808 295.325 338.758 296.256C338.275 305.095 339.154 314.15 339.512 322.995C339.87 331.823 340.142 340.665 341.297 349.431C340.291 349.54 340.281 350.931 341.307 351.018C356.128 352.304 371.268 351.025 386.083 350.052C386.822 350.004 387.254 349.509 387.404 348.944C387.794 349.064 388.316 348.83 388.31 348.331C388.215 339.351 387.247 330.384 386.896 321.41ZM386.082 347.159C371.558 348.121 356.909 347.972 342.421 349.332C342.879 340.555 342.454 331.769 342.12 322.995C341.782 314.171 341.936 305.086 340.777 296.332C354.897 298.408 370.121 297.055 384.289 295.851C383.33 304.67 383.972 313.949 384.38 322.759C384.76 330.949 385.229 339.233 386.776 347.301C386.581 347.204 386.359 347.141 386.082 347.159Z" fill="#87847D"/>
<path d="M382.304 325.286C382.258 325.009 382.097 324.851 381.902 324.775C381.771 324.452 381.494 324.206 381.087 324.247C369.623 325.4 358.274 325.793 346.769 324.972C346.283 324.938 346.024 325.434 346.083 325.845C345.734 325.741 345.311 325.919 345.293 326.412C345.078 332.645 345.348 338.918 345.585 345.147C345.629 346.286 347.389 346.296 347.364 345.147C347.229 338.908 347.123 332.627 346.537 326.412C346.534 326.384 346.522 326.366 346.516 326.34C346.54 326.346 346.555 326.36 346.58 326.364C357.971 327.94 369.358 328.013 380.719 326.155C380.49 331.664 381.168 337.351 381.808 342.832C370.214 343.569 358.054 343.714 346.669 346.069C346.163 346.174 346.308 346.913 346.785 346.936C358.395 347.493 370.415 345.728 381.976 344.659C382.221 344.637 382.403 344.528 382.547 344.388C382.88 344.421 383.219 344.228 383.219 343.773C383.238 337.68 383.323 331.307 382.304 325.286Z" fill="#87847D"/>
<path d="M380.778 320.266C380.896 320.185 380.967 320.043 380.867 319.911C379.444 318.034 380.763 311.946 380.815 309.733C380.881 306.997 381.114 304.194 380.503 301.515C380.379 300.971 379.758 300.814 379.325 301.021C379.777 300.349 379.307 299.233 378.323 299.529C367.502 302.784 356.505 298.594 345.657 301.282C345.288 301.374 345.15 301.742 345.204 302.066C345.198 302.11 345.177 302.143 345.176 302.189C344.94 308.257 345.102 314.417 345.542 320.473C345.555 320.654 345.628 320.789 345.727 320.889C345.708 321.211 345.905 321.547 346.334 321.566C357.587 322.069 368.896 322.242 380.156 321.855C381.072 321.821 381.276 320.768 380.778 320.266ZM346.795 320.273C347.177 314.38 347.291 308.394 347.035 302.492C357.613 301.722 368.656 305.17 378.841 301.409C378.905 301.386 378.946 301.343 379.001 301.312C378.966 301.374 378.931 301.435 378.914 301.512C377.988 305.497 378.504 310.034 378.713 314.095C378.813 316.041 378.547 318.655 380.121 319.999C369.026 319.621 357.885 319.786 346.795 320.273Z" fill="#87847D"/>
<path d="M262.601 233.615C262.709 232.898 262.257 232.381 261.718 232.173C261.695 231.634 261.337 231.113 260.624 231.09C251.636 230.791 242.588 230.977 233.595 231.046C229.911 231.075 222.25 229.335 219.97 232.985C219.962 232.997 219.967 233.008 219.961 233.022C219.426 233.086 218.938 233.449 218.943 234.147C219.087 251.489 218.27 268.816 218.354 286.151C217.863 286.707 218.081 287.739 219.054 287.791C232.988 288.523 247.154 287.832 261.093 287.366C261.987 287.336 262.441 286.652 262.465 285.961C262.656 285.844 262.799 285.645 262.803 285.333C263.043 268.185 260.029 250.647 262.601 233.615ZM261.094 284.502C247.478 284.607 233.639 284.521 220.063 285.726C221.777 268.632 221.606 251.304 221.33 234.146C221.326 233.883 221.237 233.683 221.118 233.51C227.292 232.686 234.142 233.604 240.352 233.551C246.948 233.495 253.563 233.628 260.155 233.386C257.609 250.003 259.319 267.862 261.167 284.517C261.141 284.516 261.123 284.502 261.094 284.502Z" fill="#87847D"/>
<path d="M257.452 279.089C257.399 272.782 257.205 266.183 256.14 259.969C256.041 259.392 255.437 259.303 255.021 259.541C254.922 259.2 254.656 258.902 254.248 258.906C244.306 258.986 234.463 259.274 224.508 258.945C223.984 258.928 223.747 259.566 223.951 259.944C223.914 260.028 223.876 260.112 223.864 260.213C223.406 263.877 223.136 267.575 222.967 271.263C222.823 274.419 222.331 277.825 223.366 280.842C223.389 280.91 223.432 280.957 223.478 280.996C222.857 281.199 222.868 282.167 223.621 282.183C234.663 282.413 245.99 281.688 256.989 280.698C257.894 280.617 258.062 279.464 257.452 279.089ZM223.943 280.924C223.964 280.896 223.993 280.877 224.006 280.842C225.14 277.883 224.858 274.408 225.026 271.263C225.22 267.638 225.488 264.016 225.674 260.39C235.106 261.714 245.068 262.015 254.469 260.553C254.528 260.543 254.567 260.516 254.617 260.497C254.499 266.602 255.251 272.94 256.084 278.995C245.411 279.339 234.554 279.797 223.943 280.924Z" fill="#87847D"/>
<path d="M254.83 252.949C255.98 247.528 256.356 241.961 256.206 236.427C256.197 236.08 256.046 235.832 255.835 235.67C255.695 235.26 255.307 234.944 254.744 235.085C244.902 237.536 234.94 235.93 224.93 236.013C224.538 236.017 224.342 236.264 224.305 236.544C223.996 236.654 223.736 236.922 223.686 237.343C223.413 239.703 223.324 242.08 223.213 244.452C223.105 246.755 222.68 249.271 222.914 251.562C223.06 252.979 224.098 254.245 225.555 253.57C225.881 253.42 225.726 252.851 225.369 252.883C224.974 252.919 225.482 238.941 225.466 237.412C234.613 238.52 245.17 239.988 254.159 237.242C254.057 242.44 253.717 247.606 253.366 252.794C243.902 253.062 233.476 251.547 224.35 254.105C223.74 254.277 223.83 255.339 224.506 255.256C234.489 254.009 244.651 256.695 254.527 254.444C255.249 254.277 255.291 253.348 254.83 252.949Z" fill="#87847D"/>
<path d="M325.021 231.85C324.853 230.472 322.858 230.387 322.808 231.85C322.511 240.882 323.26 250.005 323.442 259.043C323.622 267.927 323.497 276.89 324.156 285.753C310.486 286.149 296.28 283.713 282.777 286.086C283.459 268.704 282.042 251.116 281.307 233.745C294.67 233.833 308.62 234.056 321.89 232.662C323.094 232.535 323.121 230.861 321.89 230.767C308.453 229.742 294.145 230.808 280.737 232.034C280.601 232.046 280.483 232.083 280.38 232.136C279.688 231.96 278.856 232.315 278.885 233.237C279.415 250.847 279.24 268.73 281.198 286.252C281.251 286.733 281.619 286.988 281.983 287.006C281.997 287.511 282.333 288.03 282.928 288.019C296.639 287.785 311.022 290.612 324.573 288.18C325.348 288.04 325.567 287.283 325.381 286.648C325.466 286.544 325.533 286.418 325.549 286.249C327.262 268.711 327.171 249.344 325.021 231.85Z" fill="#87847D"/>
<path d="M320.708 262.948C320.607 262.124 319.571 261.957 319.241 262.548C319.207 262.541 319.181 262.523 319.144 262.519C308.26 261.523 297.134 261.506 286.241 262.346C285.839 262.376 285.632 262.682 285.622 262.986C285.336 262.849 284.951 262.975 284.924 263.409C284.576 269.298 284.798 275.332 285.282 281.209C285.325 281.716 285.725 281.974 286.115 281.974C286.123 281.975 286.126 281.985 286.134 281.986C296.797 283.701 309.403 282.753 320.08 281.46C320.475 281.412 320.696 281.132 320.752 280.832C320.905 280.725 321.022 280.555 321.043 280.308C321.51 274.549 321.416 268.689 320.708 262.948ZM286.873 281.114C286.921 275.287 286.696 269.332 285.938 263.553C286.023 263.598 286.12 263.63 286.239 263.634C297.191 263.975 308.18 264.267 319.134 264.385C319.127 269.588 319.315 274.818 319.665 280.005C309.137 279.709 297.292 279.439 286.873 281.114Z" fill="#87847D"/>
<path d="M318.965 238.052C318.83 237.494 318.076 237.337 317.68 237.654C317.676 237.217 317.4 236.764 316.897 236.815C306.707 237.856 296.807 236.315 286.709 236.764C286.147 236.789 286.052 237.549 286.579 237.73C295.893 240.948 307.533 239.731 317.112 238.405C317.234 238.389 317.333 238.341 317.415 238.278C316.581 243.523 317.273 249.827 318.001 255.188C317.935 255.167 317.872 255.143 317.798 255.141C307.511 254.826 296.898 255.207 286.579 255.603C286.58 249.861 286.862 243.994 286.646 238.268C286.614 237.44 285.324 237.182 285.14 238.064C283.978 243.646 284.249 250.078 285.184 255.688C284.78 255.86 284.691 256.562 285.214 256.643C295.712 258.247 307.522 258.513 318.01 256.703C318.128 256.683 318.225 256.64 318.305 256.585C318.653 256.951 319.455 256.674 319.496 256.081C319.894 250.47 320.281 243.538 318.965 238.052Z" fill="#87847D"/>
<path d="M387.588 257.481C387.237 248.516 387.867 239.409 387.169 230.484C387.095 229.53 386.176 229.297 385.595 229.702C385.493 229.67 385.399 229.632 385.277 229.625C384.869 229.6 384.464 229.577 384.056 229.554C383.852 229.541 383.679 229.608 383.542 229.718C369.572 230.523 355.441 229.878 341.545 231.084C341.269 231.107 341.063 231.304 340.962 231.539C340.379 231.169 339.502 231.395 339.451 232.327C338.968 241.167 339.847 250.222 340.205 259.067C340.563 267.894 340.836 276.737 341.99 285.502C340.984 285.612 340.974 287.001 342 287.09C356.822 288.376 371.962 287.097 386.777 286.123C387.516 286.075 387.948 285.58 388.097 285.015C388.488 285.136 389.009 284.902 389.003 284.403C388.907 275.422 387.939 266.455 387.588 257.481ZM386.774 283.229C372.25 284.191 357.601 284.042 343.113 285.402C343.571 276.626 343.146 267.839 342.812 259.066C342.474 250.241 342.628 241.156 341.469 232.403C355.589 234.479 370.813 233.125 384.981 231.921C384.022 240.741 384.664 250.02 385.072 258.83C385.452 267.019 385.921 275.304 387.468 283.372C387.273 283.274 387.051 283.211 386.774 283.229Z" fill="#87847D"/>
<path d="M382.997 261.356C382.95 261.079 382.79 260.922 382.595 260.845C382.463 260.523 382.186 260.276 381.779 260.317C370.315 261.47 358.966 261.864 347.461 261.042C346.976 261.008 346.717 261.504 346.776 261.916C346.426 261.812 346.004 261.99 345.986 262.482C345.771 268.715 346.041 274.988 346.278 281.217C346.322 282.356 348.081 282.366 348.056 281.217C347.922 274.978 347.815 268.697 347.229 262.482C347.227 262.455 347.214 262.437 347.209 262.411C347.232 262.416 347.247 262.43 347.272 262.434C358.663 264.011 370.05 264.083 381.412 262.226C381.183 267.735 381.86 273.421 382.5 278.903C370.906 279.639 358.747 279.784 347.361 282.14C346.855 282.244 347 282.983 347.478 283.006C359.087 283.563 371.108 281.798 382.669 280.729C382.913 280.707 383.095 280.599 383.239 280.459C383.571 280.492 383.91 280.298 383.911 279.843C383.93 273.75 384.015 267.377 382.997 261.356Z" fill="#87847D"/>
<path d="M381.469 256.338C381.587 256.257 381.658 256.115 381.558 255.982C380.135 254.104 381.454 248.017 381.506 245.804C381.572 243.067 381.805 240.266 381.193 237.585C381.07 237.041 380.449 236.885 380.015 237.092C380.468 236.42 379.997 235.304 379.013 235.6C368.192 238.855 357.196 234.665 346.347 237.352C345.979 237.444 345.84 237.813 345.895 238.136C345.888 238.18 345.867 238.213 345.866 238.26C345.63 244.327 345.792 250.487 346.231 256.544C346.245 256.725 346.317 256.859 346.416 256.959C346.397 257.281 346.594 257.617 347.023 257.636C358.276 258.14 369.585 258.312 380.845 257.926C381.764 257.893 381.966 256.84 381.469 256.338ZM347.485 256.345C347.868 250.452 347.982 244.465 347.725 238.564C358.304 237.794 369.345 241.242 379.531 237.481C379.596 237.458 379.637 237.415 379.692 237.385C379.656 237.447 379.622 237.508 379.604 237.585C378.678 241.57 379.194 246.107 379.404 250.168C379.504 252.114 379.237 254.728 380.812 256.072C369.718 255.692 358.575 255.858 347.485 256.345Z" fill="#87847D"/>
<path d="M509.166 132.502L509.167 132.5C510.483 128.762 511.772 125.018 513.023 121.263L509.166 132.502ZM509.166 132.502C508.95 133.118 508.747 134.152 508.551 135.154C508.533 135.247 508.515 135.34 508.496 135.432C508.263 136.619 507.995 137.954 507.655 139.225C507.309 140.519 506.92 141.618 506.491 142.375C506.173 142.938 505.965 143.086 505.916 143.116C501.522 143.589 497.452 142.518 493.848 139.948L493.848 139.948M509.166 132.502L493.848 139.948M493.848 139.948C493.702 139.844 493.505 139.619 493.37 139.311C493.234 138.999 493.234 138.775 493.252 138.688L493.254 138.681M493.848 139.948L493.254 138.681M493.254 138.681C496.863 121.333 499.027 103.671 499.996 86.0035L499.996 86.0029M493.254 138.681L499.996 86.0029M499.996 86.0029C500.469 77.3339 500.65 68.6364 500.468 59.945C500.429 57.8308 500.362 55.7209 500.285 53.6185L500.285 53.6148M499.996 86.0029L500.285 53.6148M500.285 53.6148C500.267 53.1368 500.236 52.654 500.207 52.1975L500.2 52.0793C500.168 51.578 500.139 51.1048 500.125 50.6391C500.096 49.7034 500.132 48.8891 500.293 48.1576L500.294 48.1544M500.285 53.6148L500.294 48.1544M500.294 48.1544C500.488 47.2648 500.8 46.729 501.113 46.3874C501.426 46.0468 501.835 45.7956 502.389 45.6228C503.592 45.2472 505.214 45.3091 507.187 45.5307C516.475 46.5754 525.493 49.1169 533.983 53.0345C534.673 53.3549 534.98 54.0157 534.7 54.8427L534.699 54.8438M500.294 48.1544L534.699 54.8438M534.699 54.8438C531.335 64.783 528.137 74.7973 524.946 84.7908M534.699 54.8438L524.946 84.7908M524.946 84.7908C523.383 89.6851 521.822 94.5744 520.244 99.4474M524.946 84.7908L520.244 99.4474M520.244 99.4474C518.519 104.773 516.749 110.081 514.975 115.398M520.244 99.4474L514.975 115.398M514.975 115.398C514.324 117.351 513.673 119.305 513.023 121.262L514.975 115.398Z" stroke="#AEA8A5" stroke-width="4"/>
<path d="M492.59 153.246L492.59 153.246C489.683 153.935 486.397 156.499 484.934 159.27C483.621 161.759 483.821 164.537 485.069 167.208C486.33 169.903 488.593 172.308 491.023 173.777L491.024 173.777C493.464 175.253 496.463 176.364 499.335 176.567C502.178 176.768 504.752 176.081 506.686 174.154L492.59 153.246ZM492.59 153.246C497.526 152.074 500.762 153.417 502.932 155.16M492.59 153.246L502.932 155.16M502.932 155.16C504.929 156.762 506.086 158.735 506.799 159.952M502.932 155.16L506.799 159.952M506.799 159.952C506.9 160.125 506.993 160.283 507.077 160.422M506.799 159.952L507.077 160.422M507.077 160.422C509.796 164.907 510.117 170.732 506.687 174.153L507.077 160.422Z" stroke="#AEA8A5" stroke-width="4"/>
<path d="M458.812 43.543L458.813 43.5431C465.693 47.8455 471.453 54.2992 474.455 61.7766L476.311 61.0314L474.455 61.7766C477.606 69.6244 477.811 78.2842 475.45 86.455L475.45 86.4551C473.189 94.2811 468.471 101.636 462.124 106.687C460.475 107.999 458.703 109.189 456.864 110.21L458.812 43.543ZM458.812 43.543C450.916 38.6044 441.552 36.3814 432.379 37.69C432.378 37.6907 432.378 37.6913 432.378 37.692C432.228 37.9183 432.034 38.3489 431.84 39.0499C431.456 40.4381 431.203 42.388 431.03 44.6006C430.868 46.6773 430.784 48.8734 430.707 50.8922L430.694 51.2196C430.616 53.2734 430.538 55.2121 430.368 56.4854L430.368 56.4856M458.812 43.543L430.368 56.4856M430.368 56.4856C430.345 56.659 430.407 56.8943 430.728 57.1034C431.072 57.327 431.413 57.3139 431.599 57.2199C434.835 55.585 437.946 56.2672 440.403 57.8331C442.79 59.3536 444.677 61.7518 445.898 63.9566C448.38 68.4365 450.128 73.458 450.768 78.5983L450.768 78.5984M430.368 56.4856L450.768 78.5984M450.768 78.5984C451.346 83.2371 450.758 88.3702 447.918 92.5728L450.768 78.5984ZM427.155 124.055L427.155 124.054C428.376 118.246 429.639 112.448 430.903 106.643C431.343 104.622 431.784 102.6 432.223 100.576C432.238 100.508 432.316 100.321 432.665 100.113C433.019 99.9023 433.453 99.8007 433.768 99.8085L427.155 124.055ZM427.155 124.055C426.971 124.931 427.19 125.465 427.431 125.745C427.67 126.022 428.156 126.314 429.045 126.253L429.045 126.253M427.155 124.055L429.045 126.253M429.045 126.253C433.93 125.92 438.822 126.18 443.618 126.833L429.045 126.253ZM444.832 124.511L444.832 124.511C445.041 125.096 444.967 125.825 444.68 126.321C444.548 126.549 444.399 126.681 444.264 126.753C444.142 126.817 443.947 126.878 443.618 126.833L444.832 124.511ZM444.832 124.511C442.987 119.344 446.5 114.978 450.321 113.175L444.832 124.511ZM432.456 37.5886C432.456 37.5885 432.454 37.5901 432.451 37.5936C432.454 37.5905 432.456 37.5887 432.456 37.5886ZM447.918 92.5731C444.795 97.1946 439.297 99.9507 433.768 99.8086L447.918 92.5731ZM450.321 113.175C451.215 112.753 452.133 112.366 453.004 112C453.256 111.893 453.504 111.789 453.747 111.686C454.854 111.215 455.887 110.753 456.864 110.21L450.321 113.175Z" stroke="#AEA8A5" stroke-width="4"/>
<path d="M422.164 151.05L422.164 151.05C421.93 150.709 421.495 149.723 421.033 148.536C420.821 147.991 420.627 147.465 420.474 147.047C420.446 146.972 420.418 146.895 420.391 146.821C420.285 146.53 420.187 146.26 420.137 146.141L420.136 146.139C419.97 145.745 419.932 145.229 419.936 144.31L419.936 144.309C419.941 143.06 420.174 141.813 420.641 140.733L420.641 140.733C421.718 138.24 423.675 136.254 426.1 135.424C430.493 133.921 435.388 136.484 436.943 140.946L422.164 151.05ZM422.164 151.05C424.365 154.262 429.004 154.921 432.566 152.789M422.164 151.05L432.566 152.789M432.566 152.789C436.666 150.334 438.512 145.447 436.943 140.946L432.566 152.789Z" stroke="#AEA8A5" stroke-width="4"/>
</svg>
