<svg width="24" height="24" viewBox="0 0 24 24" fill="none" xmlns="http://www.w3.org/2000/svg">
<path d="M3.7499 21.0001C3.84841 21.0003 3.94597 20.9809 4.03696 20.9432C4.12795 20.9054 4.21058 20.8501 4.28006 20.7803L20.7801 4.28025C20.9148 4.13845 20.9888 3.94964 20.9863 3.75407C20.9838 3.5585 20.905 3.37164 20.7667 3.23334C20.6284 3.09504 20.4415 3.01624 20.2459 3.01373C20.0504 3.01123 19.8615 3.08522 19.7197 3.21994L3.21975 19.7199C3.11493 19.8248 3.04355 19.9584 3.01464 20.1039C2.98573 20.2493 3.00058 20.4001 3.05732 20.5371C3.11406 20.6741 3.21013 20.7912 3.33341 20.8736C3.45668 20.956 3.60162 21 3.7499 21.0001ZM12.3749 14.8056L14.8026 12.3779C14.8165 12.3641 14.8344 12.355 14.8537 12.3519C14.873 12.3488 14.8929 12.3518 14.9104 12.3606C14.9279 12.3693 14.9423 12.3833 14.9514 12.4006C14.9606 12.418 14.9641 12.4377 14.9615 12.4571C14.8635 13.087 14.5677 13.6693 14.117 14.12C13.6663 14.5707 13.084 14.8665 12.4541 14.9645C12.4347 14.9671 12.415 14.9636 12.3976 14.9544C12.3803 14.9453 12.3663 14.9309 12.3576 14.9134C12.3488 14.8959 12.3458 14.876 12.3489 14.8567C12.352 14.8374 12.3611 14.8195 12.3749 14.8056ZM11.6249 9.19462L9.1935 11.6251C9.17962 11.6391 9.16169 11.6483 9.14225 11.6516C9.12282 11.6548 9.10286 11.6518 9.08521 11.643C9.06757 11.6343 9.05314 11.6201 9.04396 11.6027C9.03479 11.5853 9.03135 11.5654 9.03412 11.5459C9.13188 10.9152 9.42783 10.332 9.87911 9.88071C10.3304 9.42942 10.9136 9.13348 11.5443 9.03572C11.5638 9.03271 11.5838 9.03594 11.6014 9.04496C11.619 9.05398 11.6332 9.06833 11.6422 9.08595C11.6511 9.10358 11.6543 9.12357 11.6512 9.14309C11.6481 9.16261 11.6389 9.18064 11.6249 9.19462Z" fill="#C7C7C7"/>
<path d="M0.984379 12.8137C0.829191 12.5702 0.747143 12.2872 0.747974 11.9984C0.748806 11.7096 0.832479 11.4271 0.989065 11.1844C2.22938 9.26625 3.8386 7.63688 5.64235 6.47203C7.64063 5.18203 9.84375 4.5 12.015 4.5C13.1596 4.50157 14.2965 4.6882 15.3816 5.05266C15.4119 5.06276 15.4392 5.08046 15.4608 5.10409C15.4824 5.12772 15.4976 5.15647 15.5049 5.18763C15.5122 5.21878 15.5115 5.25129 15.5027 5.28207C15.4939 5.31284 15.4774 5.34085 15.4547 5.36344L13.2403 7.57781C13.2173 7.60086 13.1887 7.61752 13.1573 7.62615C13.1259 7.63478 13.0928 7.63508 13.0613 7.62703C12.3107 7.44412 11.5256 7.45752 10.7817 7.66595C10.0378 7.87438 9.3601 8.27082 8.81382 8.8171C8.26754 9.36338 7.87111 10.0411 7.66267 10.785C7.45424 11.5289 7.44084 12.3139 7.62375 13.0645C7.63172 13.096 7.63137 13.129 7.62274 13.1603C7.61411 13.1916 7.5975 13.2202 7.57453 13.2431L4.38938 16.4306C4.35624 16.4638 4.31186 16.4834 4.265 16.4855C4.21814 16.4876 4.1722 16.472 4.13625 16.4419C2.91019 15.3968 1.84776 14.1739 0.984379 12.8137ZM12 16.5C12.6812 16.5 13.3535 16.3454 13.9663 16.0478C14.5791 15.7502 15.1163 15.3173 15.5374 14.7819C15.9585 14.2464 16.2526 13.6223 16.3974 12.9567C16.5422 12.2911 16.534 11.6012 16.3734 10.9392C16.3655 10.9077 16.3658 10.8747 16.3745 10.8434C16.3831 10.8121 16.3997 10.7836 16.4227 10.7606L19.5558 7.62609C19.589 7.59283 19.6335 7.57327 19.6805 7.57127C19.7274 7.56927 19.7735 7.58499 19.8094 7.61531C20.9527 8.59078 22.0125 9.77766 22.9814 11.1647C23.151 11.4081 23.2444 11.6965 23.2498 11.9931C23.2551 12.2897 23.1721 12.5813 23.0114 12.8306C21.7734 14.768 20.1806 16.3997 18.4045 17.5486C16.4034 18.8438 14.2538 19.5 12.015 19.5C10.8588 19.4969 9.71013 19.3143 8.61 18.9586C8.57936 18.9488 8.55175 18.9313 8.52983 18.9078C8.50791 18.8842 8.49242 18.8554 8.48484 18.8242C8.47726 18.7929 8.47785 18.7602 8.48655 18.7293C8.49525 18.6983 8.51178 18.6701 8.53453 18.6473L10.7597 16.4227C10.7826 16.3997 10.8112 16.3831 10.8425 16.3744C10.8738 16.3658 10.9068 16.3655 10.9383 16.3734C11.2859 16.4577 11.6423 16.5002 12 16.5Z" fill="#C7C7C7"/>
</svg>
