<svg width="136" height="80" viewBox="0 0 136 80" fill="none" xmlns="http://www.w3.org/2000/svg">
<path d="M130.83 1.48662C88.6003 2.25865 46.3705 -1.58041 4.16082 0.774707C3.30969 0.83377 0.5 2.93155 0.5 4.25729V75.3781C0.5 76.3674 0.895508 77.0994 1.50934 77.575C1.86582 78.6434 2.75598 79.4946 4.21989 79.4545C46.4095 78.4652 132.73 80.3246 133.502 79.9491C134.373 79.5336 135.026 78.6825 135.045 77.4158C135.361 53.313 135.183 29.2102 135.5 5.10737C135.52 3.30807 131.7 1.46764 130.83 1.48662ZM129.188 69.898C117.928 57.6488 106.648 45.4186 95.3882 33.1695C106.767 25.3532 118.066 17.4567 129.504 9.7596C129.286 29.805 129.385 49.8515 129.188 69.898ZM122.262 7.50257C112.644 14.0332 103.106 20.682 93.5478 27.2516C88.3239 30.8333 83.119 34.4151 77.8751 37.9177C76.1929 39.0262 74.5307 40.3118 72.7694 41.2621C71.8982 41.7367 71.6018 41.935 71.5428 42.0141C71.5227 41.9941 71.5027 41.9941 71.4637 41.9941C68.0201 41.6186 63.6664 38.2341 60.6595 36.631C54.7026 33.4648 48.7858 30.1794 42.909 26.8551C31.5089 20.3856 20.1309 13.7558 9.2265 6.47425C46.8852 4.79202 84.583 7.70085 122.262 7.50257ZM6.43684 70.7881V11.7382C18.2905 19.6536 30.7179 26.8171 43.1252 33.8023C46.014 35.4255 48.9229 37.0476 51.8328 38.6307C51.7927 38.6507 51.7336 38.6897 51.6946 38.7298C42.6707 46.7444 32.7766 53.3931 22.6442 59.9238C17.8939 62.9718 10.4731 66.0389 6.43684 70.7881ZM12.0763 73.3995C15.2034 70.728 20.5855 68.2938 22.9607 66.7708C26.9379 64.1984 30.9552 61.6651 34.8934 59.0136C42.2551 54.0861 49.2804 48.8021 55.9091 42.9254C56.4628 42.4307 57.2075 41.5279 57.4015 41.6312C58.8106 42.3748 60.2218 43.1057 61.6477 43.8366C64.141 45.1233 67.921 47.8539 70.8298 48.0321C76.9839 48.3886 85.2358 40.5323 90.4607 36.594C102.037 49.1406 113.594 61.7062 125.151 74.2718C87.4528 74.8845 49.774 72.8659 12.0763 73.3995Z" fill="#E1C394"/>
</svg>
